<svg xmlns="http://www.w3.org/2000/svg" width="80" height="76" viewBox="0 0 80 76">
  <g id="Group_4298" data-name="Group 4298" transform="translate(-0.051 0.182)">
    <circle id="Ellipse_90" data-name="Ellipse 90" cx="2" cy="2" r="2" transform="translate(10.051 35.818)" fill="#ed4e08"/>
    <ellipse id="Ellipse_91" data-name="Ellipse 91" cx="1.5" cy="2" rx="1.5" ry="2" transform="translate(66.051 35.818)" fill="#ed4e08"/>
    <ellipse id="Ellipse_97" data-name="Ellipse 97" cx="2" cy="1.5" rx="2" ry="1.5" transform="translate(58.051 65.818)" fill="#ed4e08"/>
    <circle id="Ellipse_98" data-name="Ellipse 98" cx="1.5" cy="1.5" r="1.5" transform="translate(66.051 65.818)" fill="#ed4e08"/>
    <ellipse id="Ellipse_99" data-name="Ellipse 99" cx="2" cy="1.5" rx="2" ry="1.5" transform="translate(76.051 65.818)" fill="#ed4e08"/>
    <circle id="Ellipse_93" data-name="Ellipse 93" cx="1.5" cy="1.5" r="1.5" transform="translate(51.051 6.818)" fill="#ed4e08"/>
    <ellipse id="Ellipse_94" data-name="Ellipse 94" cx="2" cy="1.5" rx="2" ry="1.5" transform="translate(58.051 6.818)" fill="#ed4e08"/>
    <circle id="Ellipse_95" data-name="Ellipse 95" cx="1.5" cy="1.5" r="1.5" transform="translate(66.051 6.818)" fill="#ed4e08"/>
    <ellipse id="Ellipse_96" data-name="Ellipse 96" cx="2" cy="1.5" rx="2" ry="1.5" transform="translate(76.051 6.818)" fill="#ed4e08"/>
    <circle id="Ellipse_92" data-name="Ellipse 92" cx="2" cy="2" r="2" transform="translate(76.051 35.818)" fill="#ed4e08"/>
    <g id="Ellipse_87" data-name="Ellipse 87" transform="translate(0.051 24.818)" fill="none" stroke="#ed4e08" stroke-width="6">
      <circle cx="12" cy="12" r="12" stroke="none"/>
      <circle cx="12" cy="12" r="9" fill="none"/>
    </g>
    <g id="Ellipse_88" data-name="Ellipse 88" transform="translate(4.051 -0.182)" fill="none" stroke="#171635" stroke-width="6">
      <circle cx="8.5" cy="8.5" r="8.5" stroke="none"/>
      <circle cx="8.5" cy="8.5" r="5.5" fill="none"/>
    </g>
    <g id="Ellipse_89" data-name="Ellipse 89" transform="translate(4.051 58.818)" fill="none" stroke="#171635" stroke-width="6">
      <circle cx="8.5" cy="8.5" r="8.5" stroke="none"/>
      <circle cx="8.5" cy="8.5" r="5.5" fill="none"/>
    </g>
    <rect id="Rectangle_2132" data-name="Rectangle 2132" width="17" height="4" rx="2" transform="translate(29.051 6.818)" fill="#171635"/>
    <rect id="Rectangle_2133" data-name="Rectangle 2133" width="33" height="5" rx="2.5" transform="translate(29.051 34.818)" fill="#171635"/>
    <rect id="Rectangle_2134" data-name="Rectangle 2134" width="24" height="4" rx="2" transform="translate(29.051 65.818)" fill="#171635"/>
  </g>
</svg>
