<svg id="Group_4295" data-name="Group 4295" xmlns="http://www.w3.org/2000/svg" width="76.746" height="77.381" viewBox="0 0 76.746 77.381">
  <g id="Ellipse_100" data-name="Ellipse 100" transform="translate(7.928 8.246)" fill="none" stroke="#171635" stroke-width="5">
    <circle cx="30.445" cy="30.445" r="30.445" stroke="none"/>
    <circle cx="30.445" cy="30.445" r="27.945" fill="none"/>
  </g>
  <rect id="Rectangle_2135" data-name="Rectangle 2135" width="4.44" height="10.148" rx="2.22" transform="translate(36.471)" fill="#171635"/>
  <rect id="Rectangle_2136" data-name="Rectangle 2136" width="4.44" height="10.148" rx="2.22" transform="translate(36.471 67.233)" fill="#171635"/>
  <rect id="Rectangle_2137" data-name="Rectangle 2137" width="4.44" height="10.148" rx="2.22" transform="translate(66.598 40.91) rotate(-90)" fill="#171635"/>
  <rect id="Rectangle_2138" data-name="Rectangle 2138" width="4.44" height="10.148" rx="2.22" transform="translate(0 40.91) rotate(-90)" fill="#171635"/>
  <path id="Path_6267" data-name="Path 6267" d="M13935.336,2437.319s14.9,3.146,19.562-7.5a15.563,15.563,0,0,0-6.63-20.463" transform="translate(-13903.727 -2383.761)" fill="none" stroke="#ed4e08" stroke-linecap="round" stroke-width="6"/>
  <circle id="Ellipse_101" data-name="Ellipse 101" cx="2.22" cy="2.22" r="2.22" transform="translate(21.248 37.422)" fill="#ed4e08"/>
  <circle id="Ellipse_102" data-name="Ellipse 102" cx="2.22" cy="2.22" r="2.22" transform="translate(23.151 29.176)" fill="#ed4e08"/>
  <circle id="Ellipse_103" data-name="Ellipse 103" cx="2.22" cy="2.22" r="2.22" transform="translate(29.494 23.468)" fill="#ed4e08"/>
  <circle id="Ellipse_104" data-name="Ellipse 104" cx="2.22" cy="2.22" r="2.22" transform="translate(23.785 45.667)" fill="#ed4e08"/>
</svg>
