<svg xmlns="http://www.w3.org/2000/svg" width="22.24" height="16.69" viewBox="0 0 22.24 16.69">
  <g id="menu_3_" data-name="menu (3)" transform="translate(0 -1.75)">
    <g id="Group_4332" data-name="Group 4332" transform="translate(0 1.75)">
      <path id="Path_6283" data-name="Path 6283" d="M21.522,1.75H.719A.653.653,0,0,0,0,2.3V4.761a.653.653,0,0,0,.719.553h20.8a.653.653,0,0,0,.719-.553V2.3A.653.653,0,0,0,21.522,1.75Z" transform="translate(0 -1.75)" fill="#000000"/>
      <path id="Path_6284" data-name="Path 6284" d="M21.522,36.75H.719A.653.653,0,0,0,0,37.3v2.458a.653.653,0,0,0,.719.553h20.8a.653.653,0,0,0,.719-.553V37.3A.653.653,0,0,0,21.522,36.75Z" transform="translate(0 -30.187)" fill="#000000"/>
      <path id="Path_6285" data-name="Path 6285" d="M21.522,71.75H.719A.653.653,0,0,0,0,72.3v2.458a.653.653,0,0,0,.719.553h20.8a.653.653,0,0,0,.719-.553V72.3A.653.653,0,0,0,21.522,71.75Z" transform="translate(0 -58.624)" fill="#000000"/>
    </g>
  </g>
</svg>
