<svg xmlns="http://www.w3.org/2000/svg" width="59.479" height="61.352" viewBox="0 0 59.479 61.352">
  <g id="idea" transform="translate(-7.815)">
    <g id="Group_4302" data-name="Group 4302" transform="translate(55.435 23.081)">
      <g id="Group_4301" data-name="Group 4301">
        <path id="Path_6269" data-name="Path 6269" d="M407.26,192.966a1.2,1.2,0,1,0-1.695,1.695l.056.055a1.2,1.2,0,0,0,1.639-1.749Z" transform="translate(-405.214 -192.615)" fill="#fff"/>
      </g>
    </g>
    <g id="Group_4304" data-name="Group 4304" transform="translate(39.923 18.361)">
      <g id="Group_4303" data-name="Group 4303">
        <path id="Path_6270" data-name="Path 6270" d="M290.887,156.332a18.759,18.759,0,0,0-2.093-1.235,16.071,16.071,0,0,0-12.187-1.162,1.2,1.2,0,1,0,.711,2.289,13.719,13.719,0,0,1,10.4,1.014,16.682,16.682,0,0,1,1.825,1.077,1.2,1.2,0,1,0,1.346-1.983Z" transform="translate(-275.764 -153.23)" fill="#fff"/>
      </g>
    </g>
    <g id="Group_4306" data-name="Group 4306" transform="translate(15.466 7.604)">
      <g id="Group_4305" data-name="Group 4305">
        <path id="Path_6271" data-name="Path 6271" d="M122.149,92.824a15.418,15.418,0,0,1-1.319-3.3,11.332,11.332,0,0,0-1.444-10.772,22.45,22.45,0,0,0-17.491-9.28,21.443,21.443,0,0,0-9.879,2.4,10.258,10.258,0,1,0-15.442,10.6,2,2,0,0,1,1.157,1.78v7.012a2.429,2.429,0,0,0,2.426,2.427h.407A21.341,21.341,0,0,0,87.791,107.2a4.726,4.726,0,0,1-.327,2.329c-.371,1.29-.94,2.723-1.442,3.987-.336.846-.626,1.576-.8,2.129a1.2,1.2,0,0,0,1.142,1.561h17.1a1.945,1.945,0,0,0,1.82-1.451,11.715,11.715,0,0,0,.5-1.814c.142-.648.476-2.164.808-2.347a.243.243,0,0,1,.067,0,1.178,1.178,0,0,0,.186.015c1.791,0,3.255.081,4.546.153,3.788.21,6.074.337,8.08-2.552,1.02-1.469.9-3.612.782-5.881a21.4,21.4,0,0,1-.013-3.38,10.453,10.453,0,0,1,1.061-.791c1.13-.776,2.2-1.508,2.2-2.622A10.507,10.507,0,0,0,122.149,92.824Zm-44.323-12.4a7.862,7.862,0,1,1,8.2,0,4.36,4.36,0,0,0-2.1,2.567h-4A4.363,4.363,0,0,0,77.826,80.425Zm5.9,4.964v1.752h-3.6V85.39Zm-3.569,5.9a.035.035,0,0,1-.029-.03V89.539h3.6v1.722a.035.035,0,0,1-.03.03Zm39.786,5.9c-1.031.708-1.922,1.32-2.054,2.246a21.333,21.333,0,0,0-.032,4.029c.091,1.683.194,3.591-.358,4.385-1.192,1.718-2.224,1.734-5.978,1.526-1.239-.069-2.776-.154-4.6-.157a2.554,2.554,0,0,0-2.674,1.585,11.134,11.134,0,0,0-.807,2.625,12.733,12.733,0,0,1-.356,1.383h-15l.162-.409c1.726-4.347,2.82-7.534,1.155-8.973a18.963,18.963,0,0,1-6.422-11.74H83.7a2.429,2.429,0,0,0,2.426-2.427V84.252a2,2,0,0,1,1.157-1.782,10.188,10.188,0,0,0,4.872-7.932,19.039,19.039,0,0,1,9.743-2.67,20.18,20.18,0,0,1,15.5,8.214,8.994,8.994,0,0,1,1.19,8.605c-.47,1.132.227,2.7,1.4,5.17a21.623,21.623,0,0,1,1.078,2.5A11.323,11.323,0,0,1,119.943,97.187Z" transform="translate(-71.668 -63.458)" fill="#fff"/>
      </g>
    </g>
    <g id="Group_4308" data-name="Group 4308" transform="translate(27.311 12.998)">
      <g id="Group_4307" data-name="Group 4307">
        <path id="Path_6272" data-name="Path 6272" d="M174.806,111.641a4.8,4.8,0,0,0-2.544-3.038,1.2,1.2,0,0,0-1.1,2.13,2.4,2.4,0,0,1,1.329,1.532,3.633,3.633,0,0,1-.333,2.476,1.2,1.2,0,1,0,2.021,1.288A6.007,6.007,0,0,0,174.806,111.641Z" transform="translate(-170.514 -108.47)" fill="#fff"/>
      </g>
    </g>
    <g id="Group_4310" data-name="Group 4310" transform="translate(24.527)">
      <g id="Group_4309" data-name="Group 4309">
        <path id="Path_6273" data-name="Path 6273" d="M148.477,0a1.2,1.2,0,0,0-1.2,1.2V4.614a1.2,1.2,0,1,0,2.4,0V1.2A1.2,1.2,0,0,0,148.477,0Z" transform="translate(-147.279)" fill="#fff"/>
      </g>
    </g>
    <g id="Group_4312" data-name="Group 4312" transform="translate(7.815 16.712)">
      <g id="Group_4311" data-name="Group 4311" transform="translate(0)">
        <path id="Path_6274" data-name="Path 6274" d="M12.429,139.465H9.013a1.2,1.2,0,0,0,0,2.4h3.416a1.2,1.2,0,0,0,0-2.4Z" transform="translate(-7.815 -139.465)" fill="#fff"/>
      </g>
    </g>
    <g id="Group_4314" data-name="Group 4314" transform="translate(16.171 2.239)">
      <g id="Group_4313" data-name="Group 4313">
        <path id="Path_6275" data-name="Path 6275" d="M81.489,22.241l-1.708-2.957a1.2,1.2,0,1,0-2.075,1.2l1.708,2.957a1.2,1.2,0,0,0,2.075-1.2Z" transform="translate(-77.545 -18.684)" fill="#fff"/>
      </g>
    </g>
    <g id="Group_4316" data-name="Group 4316" transform="translate(10.053 8.356)">
      <g id="Group_4315" data-name="Group 4315">
        <path id="Path_6276" data-name="Path 6276" d="M31.25,71.6,28.293,69.9a1.2,1.2,0,1,0-1.2,2.075l2.957,1.708a1.2,1.2,0,1,0,1.2-2.075Z" transform="translate(-26.495 -69.735)" fill="#fff"/>
      </g>
    </g>
    <g id="Group_4318" data-name="Group 4318" transform="translate(36.043 8.356)">
      <g id="Group_4317" data-name="Group 4317">
        <path id="Path_6277" data-name="Path 6277" d="M248.576,70.332a1.2,1.2,0,0,0-1.637-.439L243.982,71.6a1.2,1.2,0,1,0,1.2,2.075l2.957-1.708A1.2,1.2,0,0,0,248.576,70.332Z" transform="translate(-243.382 -69.732)" fill="#fff"/>
      </g>
    </g>
    <g id="Group_4320" data-name="Group 4320" transform="translate(10.053 23.36)">
      <g id="Group_4319" data-name="Group 4319">
        <path id="Path_6278" data-name="Path 6278" d="M31.69,195.545a1.2,1.2,0,0,0-1.637-.439l-2.958,1.708a1.2,1.2,0,1,0,1.2,2.076l2.958-1.708A1.2,1.2,0,0,0,31.69,195.545Z" transform="translate(-26.495 -194.946)" fill="#fff"/>
      </g>
    </g>
    <g id="Group_4322" data-name="Group 4322" transform="translate(16.171 28.654)">
      <g id="Group_4321" data-name="Group 4321">
        <path id="Path_6279" data-name="Path 6279" d="M80.8,239.287a1.2,1.2,0,0,0-1.637.439l-1.461,2.531a1.2,1.2,0,1,0,2.076,1.2l1.461-2.531A1.2,1.2,0,0,0,80.8,239.287Z" transform="translate(-77.545 -239.127)" fill="#fff"/>
      </g>
    </g>
    <g id="Group_4324" data-name="Group 4324" transform="translate(31.175 2.239)">
      <g id="Group_4323" data-name="Group 4323">
        <path id="Path_6280" data-name="Path 6280" d="M206.268,18.844a1.2,1.2,0,0,0-1.637.439l-1.708,2.957a1.2,1.2,0,1,0,2.075,1.2l1.708-2.957A1.2,1.2,0,0,0,206.268,18.844Z" transform="translate(-202.763 -18.683)" fill="#fff"/>
      </g>
    </g>
  </g>
</svg>
