<svg xmlns="http://www.w3.org/2000/svg" width="239" height="58" viewBox="0 0 239 58">
  <g id="Group_4291" data-name="Group 4291" transform="translate(-277 -52)">
    <path id="Path_231" data-name="Path 231" d="M327.244,160.243a3.587,3.587,0,0,0-1.712-1.514,6,6,0,0,0-2.423-.483,6.824,6.824,0,0,0-1.55.178,4.734,4.734,0,0,0-1.405.569,3.713,3.713,0,0,0-1.088,1.018,3.14,3.14,0,0,0-.552,1.478,2.046,2.046,0,0,0,.6,1.96,7.175,7.175,0,0,0,2.05,1.177q1.266.5,2.744.962a10.412,10.412,0,0,1,2.708,1.283,5.664,5.664,0,0,1,1.924,2.172,6.015,6.015,0,0,1,.374,3.6A8.688,8.688,0,0,1,325.3,178.7a10.206,10.206,0,0,1-3.154,1.5,12.983,12.983,0,0,1-3.6.5,12.362,12.362,0,0,1-4.4-.8,7.22,7.22,0,0,1-3.385-2.645l3.848-3.28a4.84,4.84,0,0,0,1.908,1.944,5.452,5.452,0,0,0,2.728.694,6.023,6.023,0,0,0,1.584-.215,5.481,5.481,0,0,0,1.5-.641,4.334,4.334,0,0,0,1.193-1.084,3.4,3.4,0,0,0,.641-1.514,2.357,2.357,0,0,0-.6-2.139,6.468,6.468,0,0,0-2.05-1.266q-1.263-.516-2.744-.992a10.6,10.6,0,0,1-2.691-1.266,5.287,5.287,0,0,1-2.318-5.719,7.742,7.742,0,0,1,1.27-3.366,8.95,8.95,0,0,1,2.44-2.37,10.933,10.933,0,0,1,3.19-1.408,13.621,13.621,0,0,1,3.491-.463,11.749,11.749,0,0,1,3.8.608,7.049,7.049,0,0,1,3.048,1.984Z" transform="translate(20.853 -84.939)" fill="#ed4e08"/>
    <path id="Path_232" data-name="Path 232" d="M381.834,163.232h.069a6.1,6.1,0,0,1,2.033-1.941,7.151,7.151,0,0,1,6.219-.3,4.4,4.4,0,0,1,1.729,1.5,4.9,4.9,0,0,1,.747,2.139,10.008,10.008,0,0,1-.036,2.529l-1.5,10.8h-4.275l1.213-8.658a15.8,15.8,0,0,0,.142-1.587,5.622,5.622,0,0,0-.162-1.653,2.536,2.536,0,0,0-.767-1.283,2.42,2.42,0,0,0-1.673-.516,4.44,4.44,0,0,0-1.855.357,3.967,3.967,0,0,0-1.322.962,4.959,4.959,0,0,0-.889,1.389,5.824,5.824,0,0,0-.446,1.653l-1.283,9.336H375.49L379.269,151h4.275Z" transform="translate(-23.246 -82.818)" fill="#ed4e08"/>
    <path id="Path_233" data-name="Path 233" d="M438.119,188.418a10.08,10.08,0,0,1,1.25-3.69,10.431,10.431,0,0,1,2.387-2.833,10.579,10.579,0,0,1,3.223-1.815,10.969,10.969,0,0,1,3.726-.641,9.369,9.369,0,0,1,3.521.641,7.274,7.274,0,0,1,2.691,1.815,7.185,7.185,0,0,1,1.587,2.833,8.6,8.6,0,0,1,.212,3.689,10.035,10.035,0,0,1-1.246,3.689,10.612,10.612,0,0,1-2.37,2.833,10.38,10.38,0,0,1-3.207,1.815,10.954,10.954,0,0,1-3.723.641,9.522,9.522,0,0,1-3.531-.641,7.24,7.24,0,0,1-2.708-1.815,7.144,7.144,0,0,1-1.587-2.833,8.6,8.6,0,0,1-.225-3.689Zm4.278,0a5.131,5.131,0,0,0,.073,1.924,4.182,4.182,0,0,0,.764,1.653,3.991,3.991,0,0,0,1.425,1.141,4.628,4.628,0,0,0,2.05.426,5.491,5.491,0,0,0,2.175-.426,5.815,5.815,0,0,0,2.956-2.78,6.24,6.24,0,0,0,.608-1.924,5.289,5.289,0,0,0-.073-1.924,4.143,4.143,0,0,0-.767-1.653,3.967,3.967,0,0,0-1.425-1.141,4.628,4.628,0,0,0-2.05-.426,5.349,5.349,0,0,0-2.155.426,5.868,5.868,0,0,0-1.729,1.141,6.243,6.243,0,0,0-1.227,1.653A6.023,6.023,0,0,0,442.4,188.418Z" transform="translate(-67.406 -101.854)" fill="#ed4e08"/>
    <path id="Path_234" data-name="Path 234" d="M503.124,179.863h4.063l-.357,2.565h.069a6.692,6.692,0,0,1,2.817-2.281,8.873,8.873,0,0,1,3.491-.711,8.01,8.01,0,0,1,3.438.694,6.247,6.247,0,0,1,2.39,1.9,7.071,7.071,0,0,1,1.246,2.853,10.582,10.582,0,0,1,.089,3.527,11.812,11.812,0,0,1-1.1,3.528,10.282,10.282,0,0,1-2.086,2.85,9.557,9.557,0,0,1-2.886,1.908,8.648,8.648,0,0,1-3.438.694,7.891,7.891,0,0,1-2.1-.248,6.355,6.355,0,0,1-1.551-.641,5.2,5.2,0,0,1-1.088-.836,6.231,6.231,0,0,1-.711-.876H505.3l-1.461,10.3H499.56Zm12.969,8.553a5.2,5.2,0,0,0-.069-1.924,4.189,4.189,0,0,0-.767-1.653,3.968,3.968,0,0,0-1.425-1.141,4.629,4.629,0,0,0-2.05-.426,5.349,5.349,0,0,0-2.156.426,5.867,5.867,0,0,0-1.729,1.141,6.183,6.183,0,0,0-1.23,1.653,5.952,5.952,0,0,0-.622,1.924,5.2,5.2,0,0,0,.069,1.924,4.189,4.189,0,0,0,.767,1.653,3.967,3.967,0,0,0,1.425,1.141,4.629,4.629,0,0,0,2.05.426,5.465,5.465,0,0,0,2.172-.426,5.806,5.806,0,0,0,2.975-2.78A6.236,6.236,0,0,0,516.093,188.415Z" transform="translate(-109.756 -101.852)" fill="#ed4e08"/>
    <g id="Group_4278" data-name="Group 4278">
      <rect id="Rectangle_2" data-name="Rectangle 2" width="6.919" height="8.705" rx="3.46" transform="translate(320.263 78.395) rotate(90)" fill="#ed4e08"/>
      <path id="Path_240" data-name="Path 240" d="M157.494,185.08a.252.252,0,0,0,0-.05,1.884,1.884,0,0,0-.03-.274.562.562,0,0,1,0-.073c-.017-.076-.03-.152-.05-.228l-.04-.142-.03-.089a3.4,3.4,0,0,0-2.394-2.261h-.04l-.152-.036-.218-.036h-.093c-.089,0-.175-.017-.264-.02H126.549l-1.065,1.227a3.422,3.422,0,0,0,.331,4.817l.066.059a3.4,3.4,0,0,0,2.565.817h17.985l-16.5,18.963a3.468,3.468,0,0,0,.331,4.88h0a3.471,3.471,0,0,0,4.883-.331l21.489-24.7a3.424,3.424,0,0,0,.486-.737l.023-.043c.03-.066.06-.129.086-.2s.036-.1.053-.145l.04-.112c.023-.079.046-.159.063-.238l.02-.073a1.937,1.937,0,0,1,.046-.271.26.26,0,0,1,0-.053,1.388,1.388,0,0,1,.02-.284v-.116h0A.972.972,0,0,0,157.494,185.08Z" transform="translate(152.353 -103.482)" fill="#ed4e08"/>
      <path id="Path_241" data-name="Path 241" d="M163.733,107.767a3.425,3.425,0,0,0-.331-4.82l-.066-.06a3.425,3.425,0,0,0-4.817.331l-18.59,21.489H149.1Z" transform="translate(142.122 -50.052)" fill="#ed4e08"/>
    </g>
    <g id="Group_14" data-name="Group 14" transform="translate(412.082 67.091)">
      <path id="Path_235" data-name="Path 235" d="M613.033,160.213H605.3l.562-4.063h19.955l-.572,4.063h-7.723l-2.956,21.158h-4.493Z" transform="translate(-605.3 -153.356)" fill="#ed4e08"/>
      <path id="Path_236" data-name="Path 236" d="M657.277,179.866h4.261l-.39,2.708h.069a6.585,6.585,0,0,1,2.37-2.314,6.252,6.252,0,0,1,3.154-.82,3.874,3.874,0,0,1,.747.069c.238.05.489.106.75.179l-.6,4.133c-.331-.093-.661-.172-.992-.231a5.7,5.7,0,0,0-.992-.089,5.114,5.114,0,0,0-2.5.552,5.482,5.482,0,0,0-1.584,1.266,4.77,4.77,0,0,0-.84,1.425,5.2,5.2,0,0,0-.284,1.071l-1.283,9.158H654.89Z" transform="translate(-638.496 -168.946)" fill="#ed4e08"/>
      <path id="Path_237" data-name="Path 237" d="M706.724,194.614h-.106a6.84,6.84,0,0,1-2.645,2.119,8,8,0,0,1-3.227.661,7.905,7.905,0,0,1-2.261-.33,5.2,5.2,0,0,1-1.872-.962,3.968,3.968,0,0,1-1.17-1.607,4.3,4.3,0,0,1-.212-2.245,5.346,5.346,0,0,1,1.531-3.26,8.205,8.205,0,0,1,2.959-1.8,13.926,13.926,0,0,1,3.617-.747q1.9-.142,3.511-.142h1.068l.036-.463a2.386,2.386,0,0,0-.751-2.407,4.2,4.2,0,0,0-2.708-.8,7.173,7.173,0,0,0-2.6.479,7.55,7.55,0,0,0-2.208,1.3l-1.927-2.235a9.64,9.64,0,0,1,3.617-2.1,13.191,13.191,0,0,1,4.043-.641,9.47,9.47,0,0,1,3.012.407,5.647,5.647,0,0,1,1.924,1.055,3.674,3.674,0,0,1,1.051,1.478,6.052,6.052,0,0,1,.393,1.693,8.944,8.944,0,0,1,0,1.653c-.059.536-.116.992-.162,1.408l-1.355,9.835H706.4Zm.5-5.313h-.889c-.6,0-1.266.026-2.013.073a11.57,11.57,0,0,0-2.139.331,5.528,5.528,0,0,0-1.765.787,2.063,2.063,0,0,0-.889,1.441,1.712,1.712,0,0,0,.142,1.015,1.984,1.984,0,0,0,.6.7,2.559,2.559,0,0,0,.893.407,4.1,4.1,0,0,0,1.031.126,5.056,5.056,0,0,0,3.422-1.051,4.443,4.443,0,0,0,1.461-2.866Z" transform="translate(-665.459 -168.94)" fill="#ed4e08"/>
      <path id="Path_238" data-name="Path 238" d="M768.988,175.369h-.073a6.966,6.966,0,0,1-2.833,2.281,8.734,8.734,0,0,1-3.475.711,7.97,7.97,0,0,1-3.455-.694,6.364,6.364,0,0,1-2.387-1.908,7.091,7.091,0,0,1-1.286-2.85,9.725,9.725,0,0,1-.069-3.528,10.542,10.542,0,0,1,1.1-3.528A10.947,10.947,0,0,1,758.63,163a9.587,9.587,0,0,1,2.889-1.9,8.625,8.625,0,0,1,3.438-.694,7.909,7.909,0,0,1,2.1.248,6.04,6.04,0,0,1,1.531.641,5.429,5.429,0,0,1,1.071.836,6.4,6.4,0,0,1,.711.873h.109l1.712-12h4.275l-3.759,26.934h-4.08Zm-9.3-5.987a5.291,5.291,0,0,0,.073,1.924,4.142,4.142,0,0,0,.767,1.653,3.967,3.967,0,0,0,1.425,1.141,4.629,4.629,0,0,0,2.05.426,5.465,5.465,0,0,0,2.172-.426,5.822,5.822,0,0,0,1.746-1.141,5.921,5.921,0,0,0,1.213-1.653,6.328,6.328,0,0,0,.6-1.924,5.2,5.2,0,0,0-.069-1.924,4.235,4.235,0,0,0-.767-1.653,3.99,3.99,0,0,0-1.425-1.141,4.629,4.629,0,0,0-2.05-.426,5.339,5.339,0,0,0-2.156.426,5.868,5.868,0,0,0-1.729,1.141,6.182,6.182,0,0,0-1.23,1.653,6.023,6.023,0,0,0-.625,1.924Z" transform="translate(-705.697 -149.909)" fill="#ed4e08"/>
      <path id="Path_239" data-name="Path 239" d="M827.443,189.937a4.073,4.073,0,0,0,.264,1.709,3.61,3.61,0,0,0,.84,1.266,3.716,3.716,0,0,0,1.283.8,4.533,4.533,0,0,0,1.653.288,5.7,5.7,0,0,0,2.8-.661,8.514,8.514,0,0,0,2.119-1.653L839.142,194a10.517,10.517,0,0,1-3.706,2.645,10.668,10.668,0,0,1-3.99.784,9.522,9.522,0,0,1-3.547-.641,6.992,6.992,0,0,1-4.3-4.648,8.6,8.6,0,0,1-.212-3.689,10.016,10.016,0,0,1,1.246-3.689,10.486,10.486,0,0,1,2.387-2.833,10.639,10.639,0,0,1,3.227-1.815,10.935,10.935,0,0,1,3.723-.641,6.458,6.458,0,0,1,5.452,2.4q1.851,2.4,1.25,6.9l-.179,1.177Zm9.227-3.21a3.507,3.507,0,0,0-.747-2.975,3.888,3.888,0,0,0-3.028-1.084,4.731,4.731,0,0,0-3.207,1.1,5.75,5.75,0,0,0-1.782,2.956Z" transform="translate(-751.216 -168.967)" fill="#ed4e08"/>
      <text id="TM" transform="translate(92.918 5.909)" fill="#ed4e08" font-size="7" font-family="Florencesans-Bold, Florencesans" font-weight="700"><tspan x="0" y="0">TM</tspan></text>
    </g>
  </g>
</svg>
