<svg xmlns="http://www.w3.org/2000/svg" width="78.584" height="79.139" viewBox="0 0 78.584 79.139">
  <g id="Group_4297" data-name="Group 4297" transform="translate(0.086 0.438)">
    <path id="Path_6268" data-name="Path 6268" d="M14436.281,2455.677s31.668.154,36.2-29.24" transform="translate(-14396.834 -2379.476)" fill="none" stroke="#171635" stroke-linecap="round" stroke-width="5"/>
    <ellipse id="Ellipse_105" data-name="Ellipse 105" cx="2.5" cy="2" rx="2.5" ry="2" transform="translate(7.914 60.563)" fill="#ed4e08"/>
    <ellipse id="Ellipse_106" data-name="Ellipse 106" cx="2.5" cy="3" rx="2.5" ry="3" transform="translate(-0.086 34.563)" fill="#ed4e08"/>
    <circle id="Ellipse_107" data-name="Ellipse 107" cx="3" cy="3" r="3" transform="translate(5.914 16.563)" fill="#ed4e08"/>
    <circle id="Ellipse_108" data-name="Ellipse 108" cx="2.5" cy="2.5" r="2.5" transform="translate(19.914 4.563)" fill="#ed4e08"/>
    <ellipse id="Ellipse_109" data-name="Ellipse 109" cx="2.5" cy="3" rx="2.5" ry="3" transform="translate(36.914 -0.438)" fill="#ed4e08"/>
    <ellipse id="Ellipse_110" data-name="Ellipse 110" cx="2.5" cy="3" rx="2.5" ry="3" transform="translate(50.914 2.563)" fill="#ed4e08"/>
    <ellipse id="Ellipse_111" data-name="Ellipse 111" cx="2.5" cy="3" rx="2.5" ry="3" transform="translate(60.914 8.563)" fill="#ed4e08"/>
    <ellipse id="Ellipse_112" data-name="Ellipse 112" cx="2.5" cy="3" rx="2.5" ry="3" transform="translate(66.914 14.563)" fill="#ed4e08"/>
    <circle id="Ellipse_113" data-name="Ellipse 113" cx="2.5" cy="2.5" r="2.5" transform="translate(71.914 23.563)" fill="#ed4e08"/>
    <ellipse id="Ellipse_114" data-name="Ellipse 114" cx="2" cy="2.5" rx="2" ry="2.5" transform="translate(73.914 30.563)" fill="#ed4e08"/>
    <ellipse id="Ellipse_115" data-name="Ellipse 115" cx="2" cy="2.5" rx="2" ry="2.5" transform="translate(73.914 38.563)" fill="#ed4e08"/>
  </g>
</svg>
