<svg xmlns="http://www.w3.org/2000/svg" width="88" height="77" viewBox="0 0 88 77">
  <g id="Group_4294" data-name="Group 4294" transform="translate(-0.211 0.438)">
    <g id="Rectangle_2131" data-name="Rectangle 2131" transform="translate(0.211 27.563)" fill="#fff" stroke="#171635" stroke-width="5">
      <rect width="56" height="49" rx="10" stroke="none"/>
      <rect x="2.5" y="2.5" width="51" height="44" rx="7.5" fill="none"/>
    </g>
    <g id="Rectangle_2130" data-name="Rectangle 2130" transform="translate(20.211 -0.438)" fill="#fff" stroke="#171635" stroke-width="5">
      <rect width="68" height="60" rx="10" stroke="none"/>
      <rect x="2.5" y="2.5" width="63" height="55" rx="7.5" fill="none"/>
    </g>
    <ellipse id="Ellipse_80" data-name="Ellipse 80" cx="1.5" cy="2" rx="1.5" ry="2" transform="translate(27.211 27.563)" fill="#ed4e08"/>
    <ellipse id="Ellipse_81" data-name="Ellipse 81" cx="1.5" cy="2" rx="1.5" ry="2" transform="translate(36.211 27.563)" fill="#ed4e08"/>
    <ellipse id="Ellipse_82" data-name="Ellipse 82" cx="1.5" cy="2" rx="1.5" ry="2" transform="translate(44.211 27.563)" fill="#ed4e08"/>
    <ellipse id="Ellipse_83" data-name="Ellipse 83" cx="1.5" cy="2" rx="1.5" ry="2" transform="translate(53.211 27.563)" fill="#ed4e08"/>
    <circle id="Ellipse_84" data-name="Ellipse 84" cx="1.5" cy="1.5" r="1.5" transform="translate(53.211 34.563)" fill="#ed4e08"/>
    <ellipse id="Ellipse_85" data-name="Ellipse 85" cx="1.5" cy="2" rx="1.5" ry="2" transform="translate(53.211 41.563)" fill="#ed4e08"/>
    <ellipse id="Ellipse_86" data-name="Ellipse 86" cx="1.5" cy="2" rx="1.5" ry="2" transform="translate(53.211 48.563)" fill="#ed4e08"/>
  </g>
</svg>
