<svg id="code_1_" data-name="code (1)" xmlns="http://www.w3.org/2000/svg" width="24.148" height="18.119" viewBox="0 0 24.148 18.119">
  <g id="Group_4756" data-name="Group 4756" transform="translate(0 0)">
    <path id="Path_6685" data-name="Path 6685" d="M196.267,65.47l-.818-.224a.369.369,0,0,0-.31.033.429.429,0,0,0-.2.257l-4.922,17.036a.4.4,0,0,0,.033.323.428.428,0,0,0,.257.2l.818.224a.368.368,0,0,0,.31-.033.43.43,0,0,0,.2-.257L196.557,66a.4.4,0,0,0-.033-.323A.428.428,0,0,0,196.267,65.47Z" transform="translate(-181.211 -65.225)" fill="#ed4e08"/>
    <path id="Path_6686" data-name="Path 6686" d="M7.68,119.86a.417.417,0,0,0-.132-.3l-.66-.66a.415.415,0,0,0-.607,0L.132,125.046a.415.415,0,0,0,0,.607L6.281,131.8a.415.415,0,0,0,.607,0l.66-.659a.415.415,0,0,0,0-.607L2.362,125.35l5.186-5.186A.417.417,0,0,0,7.68,119.86Z" transform="translate(0 -116.29)" fill="#ed4e08"/>
    <path id="Path_6687" data-name="Path 6687" d="M363.86,125.043l-6.149-6.149a.415.415,0,0,0-.607,0l-.66.66a.415.415,0,0,0,0,.607l5.186,5.186-5.186,5.186a.415.415,0,0,0,0,.607l.66.659a.415.415,0,0,0,.607,0l6.149-6.149a.415.415,0,0,0,0-.607Z" transform="translate(-339.843 -116.288)" fill="#ed4e08"/>
  </g>
</svg>
