<svg xmlns="http://www.w3.org/2000/svg" width="22.361" height="38.004" viewBox="0 0 22.361 38.004">
  <g id="drawing-compass" transform="translate(-78.371)">
    <path id="Path_6684" data-name="Path 6684" d="M100.69,37.008,98.621,31.1a2.469,2.469,0,0,0-.995-4.455L93.058,11.188A3.955,3.955,0,0,0,91.6,5.958V2.371a.748.748,0,0,0-.748-.748H90.3V.748a.748.748,0,0,0-1.5,0v.874h-.549a.748.748,0,0,0-.748.748V5.959a3.955,3.955,0,0,0-1.46,5.23L81.477,26.642a2.469,2.469,0,0,0-1,4.455l-2.069,5.911a.749.749,0,1,0,1.413.495l2.085-5.956a2.475,2.475,0,0,0,2.345-1.722H88.8v.657a.748.748,0,0,0,1.5,0v-.657h4.547a2.475,2.475,0,0,0,2.345,1.722L99.277,37.5a.749.749,0,1,0,1.413-.495ZM81.9,30.05a.974.974,0,1,1,.974-.974A.975.975,0,0,1,81.9,30.05ZM94.84,22.5l-3.82-9.473a3.956,3.956,0,0,0,.875-.487ZM89,3.119h1.1V5.427a3.886,3.886,0,0,0-1.1,0Zm.549,3.766a2.464,2.464,0,1,1-2.464,2.464A2.466,2.466,0,0,1,89.552,6.885Zm-2.344,5.654a3.962,3.962,0,0,0,.875.487L84.263,22.5ZM94.85,28.328H90.3v-.657a.748.748,0,0,0-1.5,0v.657h-4.55a2.469,2.469,0,0,0-.413-.779l5.711-14.162,5.711,14.162A2.464,2.464,0,0,0,94.85,28.328Zm1.379.748a.974.974,0,1,1,.974.974A.975.975,0,0,1,96.229,29.076Z" transform="translate(0)" fill="#ed4e08"/>
  </g>
</svg>
