<svg id="Group_33" data-name="Group 33" xmlns="http://www.w3.org/2000/svg" width="7.236" height="15.576" viewBox="0 0 7.236 15.576">
  <path id="Path_89" data-name="Path 89" d="M394.066,221.73v7.53a.2.2,0,0,0,.2.2h2.8a.2.2,0,0,0,.2-.2v-7.653h2.027a.2.2,0,0,0,.2-.179l.2-2.306a.2.2,0,0,0-.2-.213h-2.222v-1.636a.694.694,0,0,1,.695-.695h1.562a.2.2,0,0,0,.2-.2v-2.306a.2.2,0,0,0-.2-.2h-2.64a2.805,2.805,0,0,0-2.805,2.805v2.223h-1.4a.2.2,0,0,0-.2.2v2.306a.2.2,0,0,0,.2.2h1.4Z" transform="translate(-392.472 -213.881)" fill-rule="evenodd"/>
</svg>
