<svg xmlns="http://www.w3.org/2000/svg" width="15.144" height="12.474" viewBox="0 0 15.144 12.474">
  <g id="Group_32" data-name="Group 32" transform="translate(0)">
    <g id="Group_162" data-name="Group 162" transform="translate(0 0)">
      <path id="Path_84" data-name="Path 84" d="M317.646,218.634a6.208,6.208,0,0,1-1.53.437c.247-.041.61-.488.755-.668a2.819,2.819,0,0,0,.509-.927c.013-.027.023-.06,0-.08a.086.086,0,0,0-.081.007,7.8,7.8,0,0,1-1.817.7.121.121,0,0,1-.125-.033,1.465,1.465,0,0,0-.159-.162,3.215,3.215,0,0,0-.88-.539,3.065,3.065,0,0,0-1.35-.218,3.227,3.227,0,0,0-1.281.362,3.3,3.3,0,0,0-1.033.844,3.178,3.178,0,0,0-.617,1.236,3.345,3.345,0,0,0-.032,1.3c.01.073,0,.083-.063.073a9.7,9.7,0,0,1-6.244-3.178c-.073-.083-.112-.083-.172.007a3.167,3.167,0,0,0,.54,3.741c.122.116.248.232.384.338a3.172,3.172,0,0,1-1.2-.338c-.073-.046-.11-.02-.116.063a1.888,1.888,0,0,0,.02.358,3.2,3.2,0,0,0,1.973,2.552,1.851,1.851,0,0,0,.4.122,3.565,3.565,0,0,1-1.182.037c-.086-.017-.119.027-.086.11a3.324,3.324,0,0,0,2.483,2.079c.112.02.225.02.338.046-.007.01-.014.01-.02.02a3.939,3.939,0,0,1-1.7.9,6.074,6.074,0,0,1-2.576.329c-.139-.02-.168-.019-.205,0s0,.057.04.092c.176.116.354.219.536.318a8.52,8.52,0,0,0,1.721.689,9.17,9.17,0,0,0,8.9-2.081,9.342,9.342,0,0,0,2.463-6.814c0-.1.116-.152.185-.2a6,6,0,0,0,1.206-1.26.367.367,0,0,0,.075-.241v-.013C317.7,218.594,317.707,218.606,317.646,218.634Z" transform="translate(-302.559 -217.139)"/>
    </g>
    <g id="Group_163" data-name="Group 163" transform="translate(4.497 12.42)">
      <path id="Path_85" data-name="Path 85" d="M312.006,243.228Z" transform="translate(-312.006 -243.228)" fill-rule="evenodd"/>
    </g>
    <g id="Group_164" data-name="Group 164" transform="translate(4.382 12.42)">
      <path id="Path_86" data-name="Path 86" d="M311.879,243.228c-.02,0-.25,0,0,0Z" transform="translate(-311.763 -243.228)" fill-rule="evenodd"/>
    </g>
    <g id="Group_165" data-name="Group 165" transform="translate(5.007 12.422)">
      <path id="Path_87" data-name="Path 87" d="M313.077,243.244c0-.025.268,0,0,0C313.077,243.23,313.11,243.244,313.077,243.244Z" transform="translate(-313.077 -243.232)" fill-rule="evenodd"/>
    </g>
    <g id="Group_166" data-name="Group 166" transform="translate(10.301 0.018)">
      <path id="Path_88" data-name="Path 88" d="M324.259,217.177a.053.053,0,0,1-.062,0Z" transform="translate(-324.197 -217.177)" fill-rule="evenodd"/>
    </g>
  </g>
</svg>
