<svg xmlns="http://www.w3.org/2000/svg" width="13.701" height="13.087" viewBox="0 0 13.701 13.087">
  <g id="Group_34" data-name="Group 34" transform="translate(0)">
    <g id="Group_172" data-name="Group 172" transform="translate(0 0)">
      <g id="Group_169" data-name="Group 169">
        <path id="Path_91" data-name="Path 91" d="M397.046,284.606a2.915,2.915,0,0,0-2.642,1.461V285.03a.217.217,0,0,0-.219-.214H391.69a.214.214,0,0,0-.214.219c.024,1.366,0,7.189,0,8.388a.211.211,0,0,0,.214.214h2.5a.218.218,0,0,0,.219-.214V288.71a2.045,2.045,0,0,1,.1-.714,1.605,1.605,0,0,1,1.5-1.071c1.062,0,1.485.809,1.485,1.995v4.5a.218.218,0,0,0,.219.214h2.5a.213.213,0,0,0,.214-.214v-4.846C400.421,285.868,398.974,284.606,397.046,284.606Zm-7.417.209h-2.5a.213.213,0,0,0-.214.214v8.393a.213.213,0,0,0,.214.214h2.5a.217.217,0,0,0,.219-.214V285.03A.217.217,0,0,0,389.629,284.815Zm-1.338-4.266a1.571,1.571,0,1,0,1.571,1.571A1.573,1.573,0,0,0,388.291,280.55Z" transform="translate(-386.72 -280.55)"/>
      </g>
      <g id="Group_171" data-name="Group 171" transform="translate(0.195 4.056)">
        <g id="Group_170" data-name="Group 170">
          <path id="Path_92" data-name="Path 92" d="M405.65,293.04v4.846a.213.213,0,0,1-.214.214h-2.5a.217.217,0,0,1-.219-.214v-4.5c0-1.185-.424-1.995-1.485-1.995a1.6,1.6,0,0,0-1.5,1.071,2.046,2.046,0,0,0-.1.714v4.713a.218.218,0,0,1-.219.214h-2.5a.21.21,0,0,1-.214-.214c0-1.2.029-7.022,0-8.388a.214.214,0,0,1,.214-.219h2.495a.217.217,0,0,1,.219.214v1.038a.1.1,0,0,0-.019.029h.019v-.029a2.915,2.915,0,0,1,2.642-1.461C404.2,289.07,405.65,290.332,405.65,293.04Z" transform="translate(-392.144 -289.07)"/>
          <path id="Path_93" data-name="Path 93" d="M390.063,289.724v8.393a.217.217,0,0,1-.219.214h-2.5a.213.213,0,0,1-.214-.214v-8.393a.213.213,0,0,1,.214-.214h2.5A.217.217,0,0,1,390.063,289.724Z" transform="translate(-387.13 -289.301)"/>
        </g>
      </g>
    </g>
    <g id="Group_173" data-name="Group 173" transform="translate(0 0)">
      <ellipse id="Ellipse_20" data-name="Ellipse 20" cx="1.571" cy="1.571" rx="1.571" ry="1.571"/>
    </g>
  </g>
</svg>
