<svg id="lightbulb" xmlns="http://www.w3.org/2000/svg" width="53.77" height="64.5" viewBox="0 0 53.77 64.5">
  <g id="Group_4755" data-name="Group 4755">
    <g id="Group_4754" data-name="Group 4754">
      <path id="Path_6675" data-name="Path 6675" d="M121.916,93.2a16.612,16.612,0,0,0-10.979,29.058c2.625,2.625,2.387,8.234,2.327,8.294a.988.988,0,0,0,.3.776,1.1,1.1,0,0,0,.716.3h15.215a.988.988,0,0,0,.716-.3,1.134,1.134,0,0,0,.3-.776c0-.06-.3-5.668,2.327-8.294l.179-.179a16.562,16.562,0,0,0-11.1-28.879Zm9.547,27.506c-.06.06-.179.179-.179.239-2.327,2.506-2.745,6.623-2.8,8.592H115.293c-.06-1.969-.477-6.265-2.983-8.831a14.529,14.529,0,1,1,19.153,0Z" transform="translate(-94.982 -79.298)" fill="#ed4e08"/>
      <path id="Path_6676" data-name="Path 6676" d="M210.343,121.6a1.014,1.014,0,1,0,0,2.029A10.861,10.861,0,0,1,221.2,134.488a1.014,1.014,0,1,0,2.029,0A12.834,12.834,0,0,0,210.343,121.6Z" transform="translate(-183.469 -103.461)" fill="#ed4e08"/>
      <path id="Path_6677" data-name="Path 6677" d="M170.681,358.4H157.435a2.506,2.506,0,1,0,0,5.012h13.186a2.573,2.573,0,0,0,2.566-2.506A2.521,2.521,0,0,0,170.681,358.4Zm0,2.924H157.435a.471.471,0,0,1-.477-.477.439.439,0,0,1,.477-.477h13.186a.471.471,0,0,1,.477.477A.426.426,0,0,1,170.681,361.324Z" transform="translate(-137.184 -304.938)" fill="#ed4e08"/>
      <path id="Path_6678" data-name="Path 6678" d="M179.943,398.8h-9.308a2.506,2.506,0,0,0,0,5.012h9.308a2.521,2.521,0,0,0,2.506-2.506A2.483,2.483,0,0,0,179.943,398.8Zm0,2.924h-9.308a.471.471,0,0,1-.477-.477.439.439,0,0,1,.477-.477h9.308a.477.477,0,1,1,0,.955Z" transform="translate(-148.415 -339.312)" fill="#ed4e08"/>
      <path id="Path_6679" data-name="Path 6679" d="M210.343,8.95a1.006,1.006,0,0,0,1.014-1.014V1.014a1.014,1.014,0,1,0-2.029,0V7.936A1.046,1.046,0,0,0,210.343,8.95Z" transform="translate(-183.469)" fill="#ed4e08"/>
      <path id="Path_6680" data-name="Path 6680" d="M298.533,33.305a.962.962,0,0,0-1.372.239l-3.819,5.728a.983.983,0,0,0,.239,1.432.962.962,0,0,0,.537.179.952.952,0,0,0,.835-.477l3.819-5.728A.925.925,0,0,0,298.533,33.305Z" transform="translate(-254.772 -28.174)" fill="#ed4e08"/>
      <path id="Path_6681" data-name="Path 6681" d="M107.8,38.769a.962.962,0,0,0,.537-.179,1.045,1.045,0,0,0,.3-1.432l-3.7-5.788A1.034,1.034,0,1,0,103.2,32.5l3.7,5.788A.99.99,0,0,0,107.8,38.769Z" transform="translate(-93.034 -26.299)" fill="#ed4e08"/>
      <path id="Path_6682" data-name="Path 6682" d="M43.508,106.681,37.482,103.4a1.051,1.051,0,0,0-1.372.418.952.952,0,0,0,.418,1.372l6.026,3.282a1.4,1.4,0,0,0,.477.119.984.984,0,0,0,.9-.537A1.051,1.051,0,0,0,43.508,106.681Z" transform="translate(-35.966 -87.886)" fill="#ed4e08"/>
      <path id="Path_6683" data-name="Path 6683" d="M350.2,103.817a1.051,1.051,0,0,0-1.372-.418l-6.086,3.282a1.051,1.051,0,0,0-.418,1.372.984.984,0,0,0,.9.537,1.124,1.124,0,0,0,.477-.119l6.086-3.282A1.051,1.051,0,0,0,350.2,103.817Z" transform="translate(-296.54 -87.886)" fill="#ed4e08"/>
    </g>
  </g>
</svg>
