<svg xmlns="http://www.w3.org/2000/svg" width="1081.85" height="502.218" viewBox="0 0 1081.85 502.218">
  <g id="Group_4757" data-name="Group 4757" transform="translate(0.01 0.018)">
    <path id="Path_6694" data-name="Path 6694" d="M81.64,477.56c3.57,5.78,7.1,11.49,10.92,17.67-4.57,0-8.74.05-12.92-.07-.49-.01-1.07-.92-1.42-1.53-1.15-2-2.21-4.05-3.47-6.41-1.24,2.26-2.41,4.23-3.41,6.28a2.728,2.728,0,0,1-2.87,1.81c-3.66-.11-7.32-.04-11.34-.04a18.93,18.93,0,0,1,.89-1.8c2.94-4.73,5.84-9.48,8.88-14.14.87-1.34.58-2.18-.06-3.52-1.99-4.15-5.02-5.59-9.56-5.03-3.35.41-6.79.08-10.36.08v4.04H58.27v9.31H46.78v10.94H34.9v-33.7c.74-.04,1.46-.12,2.18-.12,10.32-.01,20.65.04,30.97-.05a3.315,3.315,0,0,1,3.49,2.06c.9,1.84,2,3.58,3.19,5.66,1.27-2.28,2.28-4.35,3.55-6.25a3.344,3.344,0,0,1,2.29-1.36c3.82-.14,7.65-.06,12.05-.06C88.82,466.93,85.24,472.23,81.64,477.56Z" fill="#fff"/>
    <path id="Path_6695" data-name="Path 6695" d="M23.97,157.44c8.36,0,16.24-.13,24.11.06,3.49.08,6.21,1.88,8.27,4.87q6.375,9.24,13.13,18.22c1.32,1.75,3.28,3.03,5.34,4.88.53-3.43.96-6.2,3.79-7.06,1.84-.56,4.09-1.75,5.91.45.11-.05.32-.08.39-.2,1.06-1.73,3.16-3.64,1.67-5.51-.98-1.22-3.46-1.38-5.33-1.72-4.44-.8-8.91-1.43-13.44-2.14.9-3.85,7.12-6.12,4.38-11.92h2.9c7.58,0,15.15-.05,22.73.06a4.714,4.714,0,0,1,3.36,1.38c.41.54-.29,2.3-.94,3.18-4.14,5.63-8.58,11.04-12.58,16.77-3.28,4.69-7.5,6.69-13.14,6.54-7.4-.2-14.82-.12-22.23-.1a12.008,12.008,0,0,1-10.13-4.88C36.29,172.76,30.27,165.33,23.97,157.44Z" fill="#fff"/>
    <path id="Path_6696" data-name="Path 6696" d="M976.99,156.81c-.16-3,1.47-6.92,3.54-7.2,1.91-.26,4,.69,6,1.11-.03.23-.05.46-.08.7.17-.16.48-.32.5-.5.25-2.26.59-4.04,3.75-3.12,4.36,1.27,5.01,2.33,5.04,5.67.03,2.8.38,5.55-.56,8.24-.64,1.82-1.43,3.58-2.12,5.38-.13.34-.26.9-.08,1.12,3.22,3.98,1.05,8.41,1.1,12.65.02,2.14-.25,4.38.27,6.4.82,3.18-1.77,6.72-5.08,6.39a3.536,3.536,0,0,0-1.43-.09c-4.96,1.84-6.05,1.5-8.28-2.8-.82.54-1.64,1.07-2.47,1.61l-.42-.48c.63-.77,1.25-1.54,2-2.47-.24-.29-.83-.72-.76-.97.7-2.57-1.22-4.16-2.08-6.18-.68-1.61-1.43-3.33-.25-5.3.66-1.11.04-2.49-1.47-3.17-3.83-1.73-3.13-1.88-3.75-5.74-.51-3.17,1.95-5.28,1.53-8.18-.08-.56,1.17-1.5,1.98-1.96A17.344,17.344,0,0,1,976.99,156.81Z" fill="#fff"/>
    <path id="Path_6697" data-name="Path 6697" d="M670.86,478.7a16.206,16.206,0,0,1-16.33,16.29,16.447,16.447,0,0,1-16.75-16.23,16.658,16.658,0,0,1,16.69-16.39A16.425,16.425,0,0,1,670.86,478.7Zm-22.42,7.77c3.53,1.55,4.67-.85,5.79-3.22,2.85,3.82,2.85,3.82,6.12,3.32l-2.57-4.56c-1.29-2.28-.52-6.14,1.6-7.56.37-.25,1.04-.03,1.84-.03V486.7h3.62c0-4.22.09-8.27-.06-12.32-.04-1.16-.74-3.25-1.24-3.28-2.21-.15-5.6-.53-6.48.68C653.74,476.36,651.24,481.53,648.44,486.47Zm-.74.24V474.39c3.01-.66,2.38,2.74,4.33,3.34.5-1.11,1.59-2.36,1.36-3.28-.33-1.31-1.45-3.15-2.54-3.39-1.99-.44-4.2.08-6.31.32-.26.03-.61.82-.61,1.26-.04,4.64-.03,9.29-.03,14.08C645.18,486.71,646.23,486.71,647.7,486.71Z" fill="#fff"/>
    <path id="Path_6698" data-name="Path 6698" d="M418.48,5.82l-11.31,4.92c-14.8,6.43-29.54,12.99-44.43,19.19a41.587,41.587,0,0,1-12.7,3.18c-6.51.49-10.33-4.27-8.93-10.63a27.692,27.692,0,0,1,3.37-8.22,55.821,55.821,0,0,1,6.84-8.59,58.257,58.257,0,0,0-1.84,6.09c-1.09,5.68,2.14,9.85,7.87,9.35,4.83-.42,9.62-1.79,14.34-3.04,14.94-3.97,29.85-8.09,44.77-12.15.62-.17,1.27-.26,1.91-.38A2.014,2.014,0,0,1,418.48,5.82Z" fill="#fff"/>
    <path id="Path_6699" data-name="Path 6699" d="M663.49,334.9c-3.25,0-6.16.12-9.05-.08a4.04,4.04,0,0,1-2.27-1.61c-3.34-4.03-6.59-8.12-9.88-12.19-.03-.04-.14,0-.48,0v13.69h-5.64v-18.9c3.22,0,6.19-.1,9.15.07a3.7,3.7,0,0,1,2.1,1.46c3.31,4.05,6.54,8.15,10.23,12.78V315.94h5.86v9.38C663.49,328.38,663.49,331.44,663.49,334.9Z" fill="#fff"/>
    <path id="Path_6700" data-name="Path 6700" d="M678.82,315.74c2.5,0,4.99-.03,7.49.01,3.21.05,5.12,1.89,5.2,5.09.08,3.08.09,6.16,0,9.23a4.825,4.825,0,0,1-4.83,5.03c-5.24.15-10.48.14-15.72.02a4.988,4.988,0,0,1-5.01-5.17c-.1-3.07-.11-6.16.01-9.23a4.9,4.9,0,0,1,5.13-4.96C673.66,315.71,676.24,315.74,678.82,315.74Zm7.32,4.72H671.4v9.79h14.74Z" fill="#fff"/>
    <path id="Path_6701" data-name="Path 6701" d="M31.69,4.02c-.84.89-1.58,1.67-2.43,2.56-2.84-1.92-5.8-3.43-9.14-2.37a14.321,14.321,0,0,0-5.34,2.94c-3.21,3-3.72,8.06-1.6,12a10.233,10.233,0,0,0,11.23,5.11c3.66-.67,6.11-3.24,6.75-7.42h-8.8v-3.8H34.79c1.6,4.97-.89,10.88-5.69,13.63a14.612,14.612,0,0,1-18.58-4.1,13.881,13.881,0,0,1,1.64-18.6,14.153,14.153,0,0,1,18.9-.71C31.24,3.43,31.37,3.65,31.69,4.02Z" fill="#fff"/>
    <path id="Path_6702" data-name="Path 6702" d="M1017.66,317.87c-2.63-.19-5.48-.4-8.97-.65,2.12,1.36,3.63,2.33,5.3,3.4h-7.03c1.03-4.76,2.29-8.87,5.83-12.36a22.032,22.032,0,0,1,11.99-6.11,19.931,19.931,0,0,1,15.8,4.09,18.928,18.928,0,0,1,7.71,14.3h-9.1c-.07-.14-.14-.28-.21-.41l7.29-2.22c-2.97-.23-5.83-2.74-8.61.34-.1-.32-.19-.64-.29-.97,2.24-1.69,4.47-3.38,6.71-5.06-.09-.17-.17-.34-.26-.52-2.5.68-5,1.35-7.67,2.07a19.7,19.7,0,0,1,1.42-3.05,24.24,24.24,0,0,1,2.5-2.79c-.23-.24-.45-.48-.68-.72-2.22,1.66-4.45,3.32-6.67,4.98l1.66-7.67c-1.7,2.37-5.29,3.38-4.22,7.25-.29-.08-.58-.17-.87-.25q-.63-4.05-1.27-8.09l-.69.09c-.61,2.58-1.21,5.16-1.83,7.78-1.15-2.05-2.49-4.45-3.83-6.84.21,2.83-1.97,5.95,1.83,8.01-.34.17-.68.33-1.03.5q-3.21-2.82-6.41-5.64c-.19.13-.38.26-.56.39,1.32,2.4,2.65,4.79,3.95,7.15l-7.84-3.16c-.11.19-.22.38-.34.58C1013.39,314.14,1015.49,315.97,1017.66,317.87Z" fill="#fff"/>
    <path id="Path_6703" data-name="Path 6703" d="M697.34,153.65h2.78v13.33c4.02-3.93,8.28-5.8,13.42-4.86,7.19,1.32,12.12,7.53,11.47,14.34a13.681,13.681,0,0,1-13.68,12.6c-7.23.1-13.51-5.11-13.89-12.29C697.02,169.17,697.34,161.52,697.34,153.65Zm13.95,11.09a10.8,10.8,0,1,0,10.91,10.75A10.9,10.9,0,0,0,711.29,164.74Z" fill="#fff"/>
    <path id="Path_6704" data-name="Path 6704" d="M728.65,334.88c3.43-6.25,6.58-12.09,9.86-17.86a3.052,3.052,0,0,1,2.16-1.17c6.03-.35,6.03-.31,8.92,4.97,2.5,4.57,5.01,9.13,7.72,14.06-2.2,0-4.01.1-5.79-.06a2.269,2.269,0,0,1-1.59-1.22c-.7-1.8-1.93-2.21-3.71-2.09a59.825,59.825,0,0,1-5.99.02c-2.05-.07-4.04-.23-4.66,2.48-.09.39-1.01.79-1.57.83C732.34,334.95,730.68,334.88,728.65,334.88Zm18.42-7.29c-1.52-2.63-2.79-4.83-4.28-7.39-1.45,2.74-2.6,4.94-3.9,7.39Z" fill="#fff"/>
    <path id="Path_6705" data-name="Path 6705" d="M942.95,17V28.25h-5V9.44c3.22-.78,5.71-.32,7.58,2.85,1.76,2.98,4.08,5.62,6.61,9.03V9.34h4.94V28.22c-3.02.59-5.47.39-7.3-2.76a93.533,93.533,0,0,0-6.31-8.61C943.31,16.9,943.13,16.95,942.95,17Z" fill="#fff"/>
    <path id="Path_6706" data-name="Path 6706" d="M93.82,10.85c0,6.54.33,13.02-.12,19.44-.27,3.86-3.53,6.05-7.56,6.32a8.333,8.333,0,0,1-8.49-5.51c.95-.41,1.92-.82,3.06-1.3,1.76,2.52,4.02,4.09,7.13,2.61,2.26-1.07,2.71-3.12,2.33-5.49-5.44,2.44-9.83,1.29-12.31-3.15a9.236,9.236,0,0,1,2.7-12.01,7.879,7.879,0,0,1,8.26-.81c.52.24,1.29-.09,1.94-.1C91.83,10.83,92.89,10.85,93.82,10.85ZM80.75,19.2a5.277,5.277,0,0,0,4.92,5.56c2.78.07,4.96-2.31,4.98-5.43.02-3.14-2.08-5.55-4.86-5.56A5.235,5.235,0,0,0,80.75,19.2Z" fill="#fff"/>
    <path id="Path_6707" data-name="Path 6707" d="M1018.72,13.78c-1.65.65-3.11,1.23-4.53,1.78-2.68-2.96-4.85-3.65-7.15-2.34-2.22,1.26-3.42,4.65-2.66,7.49.77,2.86,2.96,4.65,5.52,4.53,2.16-.1,3.34-1.16,3.84-3.54-.66-.06-1.3-.13-1.94-.18-.58-.05-1.15-.08-1.9-.13v-3.4h9.73c.66,5.3-2.29,9.74-7.1,10.8-6.02,1.33-11.41-1.27-13.08-6.3-1.79-5.4.47-11.07,5.21-13.09C1010.12,7.09,1015.92,8.8,1018.72,13.78Z" fill="#fff"/>
    <path id="Path_6708" data-name="Path 6708" d="M345.74,464.57q-8.145,13.2-16.85,27.31c-3.41-5.51-6.69-10.81-9.77-15.8,4.89-1.33,9.86-2.11,14.33-4.05C337.85,470.12,341.76,467.04,345.74,464.57Z" fill="#fff"/>
    <path id="Path_6709" data-name="Path 6709" d="M1076.27,20.73c1.92,2.53,3.7,4.87,5.57,7.32-5.2,1-5.64.82-8.18-3.07a17.985,17.985,0,0,0-3.06-3.83v7.12h-5.26V9.53c3.83,0,7.54-.26,11.18.09,2.44.23,3.83,2.17,4.13,4.67C1080.98,17.06,1079.77,18.89,1076.27,20.73Zm-5.61-8.48V18.4a20.41,20.41,0,0,0,4.37-1.77,2.718,2.718,0,0,0,.07-2.58A21.433,21.433,0,0,0,1070.66,12.25Z" fill="#fff"/>
    <path id="Path_6710" data-name="Path 6710" d="M663.62,189.07a13.6,13.6,0,1,1,14.03-13.59A13.807,13.807,0,0,1,663.62,189.07Zm.17-24.34a10.811,10.811,0,1,0,10.95,10.95A10.88,10.88,0,0,0,663.79,164.73Z" fill="#fff"/>
    <path id="Path_6711" data-name="Path 6711" d="M20.11,333.71h-4.7v-8.15H4.81v8.06H-.01V315.14H4.7v7.31H15.33v-7.39h4.78Z" fill="#fff"/>
    <path id="Path_6712" data-name="Path 6712" d="M971.12,481.05c0-1.99-.05-3.87.03-5.73a4.6,4.6,0,0,1,.62-1.87c.91-1.66,2.32-2.96,4.22-2.27,2.03.73,2.07,2.8,1.37,4.46a55.463,55.463,0,0,1-3.49,6.07c.96.13,2.23.72,3.01.33,3.9-1.91,4.54-5.68,4.74-9.49.23-4.29-1.37-7.19-4.31-8.42,2.35-.39,5.02,1.72,5.89,5.5.66,2.88.46,5.95.64,8.93,1.11-1.65,2.37-3.52,3.63-5.38.27-.03.54-.06.81-.08.54,1.96,1.08,3.92,1.59,5.76.7-1.74,1.45-3.59,2.2-5.45.33.07.66.15.98.22-.43,2.18-.87,4.35-1.37,6.91,1.38-.42,2.35-.71,3.32-1.01.18.21.37.42.55.63-.94.93-1.74,2.18-2.87,2.67-.7.31-1.91-.52-2.91-.85-.01.07-.09.61-.22,1.47-1.08-1.01-2.06-2.59-2.86-2.5-.98.11-1.79,1.62-2.81,2.66-2.27-.83-.05-2.81-.78-4.4-.66.94-1.18,1.73-1.75,2.48-2.61,3.48-5.64,3.85-9.09,1.24a2.883,2.883,0,0,0-1.77-.31c-2.49.17-4.09-.81-4.62-3.17-1.15-5.17,2.85-12.57,7.67-13.67-.81,1.02-1.29,1.67-1.81,2.29a14.6,14.6,0,0,0-3.62,10.82C968.25,480.65,969.08,481.58,971.12,481.05Zm1.93-2.4c2.43-2.42,2.8-4.44,1.27-6.88C973.83,474.39,973.44,476.52,973.05,478.65Z" fill="#fff"/>
    <path id="Path_6713" data-name="Path 6713" d="M72.08,333.8a27.513,27.513,0,0,0-2.94.02c-1.81.23-3.04-.25-3.43-2.23a2.2,2.2,0,0,0-2.7-1.89,22.355,22.355,0,0,1-4.48,0c-2.34-.26-3.99.21-4.6,2.83-.13.55-1.27,1.08-2.02,1.22a22.928,22.928,0,0,1-3.86.05c2.03-4.34,3.95-8.44,5.87-12.53a28.605,28.605,0,0,0,1.7-3.59c.7-2.3,2.14-2.83,4.44-2.85,2.35-.02,3.48.71,4.42,2.89C66.77,323.04,69.41,328.2,72.08,333.8ZM56.4,326.63h7.29c-1.22-2.94-2.32-5.63-3.66-8.85C58.69,321.05,57.6,323.7,56.4,326.63Z" fill="#fff"/>
    <path id="Path_6714" data-name="Path 6714" d="M1061.56,28.42a16.133,16.133,0,0,1-3.53-.06c-.79-.19-1.87-.79-2.07-1.44a2.534,2.534,0,0,0-3.08-2.12c-1.24.12-2.51-.07-3.74.07-.55.06-1.45.51-1.53.9-.74,3.87-3.58,2.34-6.21,2.68,1.41-3.9,2.68-7.4,3.96-10.89.63-1.72,1.27-3.43,1.9-5.15,1.13-3.07,3.47-4.22,6.66-3.16a2.127,2.127,0,0,1,1.09,1.17c1.91,5.06,3.77,10.13,5.64,15.21C1060.94,26.42,1061.17,27.21,1061.56,28.42Zm-9.76-13.89h-.56c-.7,2.13-1.41,4.26-2.19,6.61h4.91C1053.19,18.79,1052.5,16.66,1051.8,14.53Z" fill="#fff"/>
    <path id="Path_6715" data-name="Path 6715" d="M111.56,333.67c0-2.39.11-4.55-.07-6.68a2.236,2.236,0,0,0-1.53-1.54c-2.48-.17-4.99-.03-7.48-.1-1.35-.03-1.71.58-1.68,1.82.06,2.07.02,4.15.02,6.43H96.27V315.08h4.55c0,1.9.07,3.7-.02,5.5-.07,1.46.39,2.14,1.96,2.08,2.32-.09,4.66-.08,6.98-.01,1.44.05,1.9-.56,1.85-1.93-.07-1.81-.02-3.63-.02-5.62h4.56v18.57Z" fill="#fff"/>
    <path id="Path_6716" data-name="Path 6716" d="M964.09,9.29h12.49v3.94h-7.37v3.42h7.1v4.1h-7.07v3.6h7.35v3.87h-12.5C964.09,22.01,964.09,15.8,964.09,9.29Z" fill="#fff"/>
    <path id="Path_6717" data-name="Path 6717" d="M88.35,327.35h4.62c.24,5.02-5.4,7.22-11.67,6.86-6.4-.36-9.78-3.87-9.71-9.95.07-6.12,3.79-9.53,10.75-9.86,5.9-.28,9.94,2.22,10.48,6.65-2.26.16-4.46,1.09-5.85-2.06-.89-2.01-3.3-2.01-5.35-1.73-2.16.3-3.91,1.47-4.32,3.6a19.958,19.958,0,0,0-.2,6.63c.39,2.64,2.5,3.77,5.04,4.03C85.27,331.83,86.66,330.9,88.35,327.35Z" fill="#fff"/>
    <path id="Path_6718" data-name="Path 6718" d="M1037.4,16.65v4.11h-7.11v3.59h7.35v4.07H1025.2V9.35h12.44v3.91h-7.38v3.4C1032.57,16.65,1034.85,16.65,1037.4,16.65Z" fill="#fff"/>
    <path id="Path_6719" data-name="Path 6719" d="M65.8,10.19a9.09,9.09,0,1,1-9.08,9.21A8.89,8.89,0,0,1,65.8,10.19ZM60.75,19.1a5.159,5.159,0,1,0,10.29.31,5.158,5.158,0,1,0-10.29-.31Z" fill="#fff"/>
    <path id="Path_6720" data-name="Path 6720" d="M45.93,10.19a8.964,8.964,0,0,1,9.18,9.15,9.2,9.2,0,0,1-18.39-.04A8.938,8.938,0,0,1,45.93,10.19Zm-5.15,8.95a5.158,5.158,0,1,0,10.29.24,5.314,5.314,0,0,0-5.16-5.61A5.241,5.241,0,0,0,40.78,19.14Z" fill="#fff"/>
    <path id="Path_6721" data-name="Path 6721" d="M119.52,24.28c-2.97,3.88-7.08,5.07-11.06,3.44a9.1,9.1,0,0,1-5.44-9.94c.65-4.21,3.6-7.2,7.46-7.56,4.42-.41,7.35,1.67,9.19,6.77q-5.9,2.46-11.83,4.95c1.81,3.61,5.02,3.79,8.75.42C117.47,22.94,118.41,23.56,119.52,24.28Zm-4.38-8.75c-1.7-1.87-3.32-2.2-5.07-1.47a4.5,4.5,0,0,0-3,4.81C109.78,17.75,112.27,16.72,115.14,15.53Z" fill="#fff"/>
    <path id="Path_6722" data-name="Path 6722" d="M999.07,466.91c1.1-.52,2.17-1.4,3.3-1.5,8.39-.73,15.5,2.07,20.66,8.74,3.82,4.93.72,10.38-6.01,11.14-1.15.13-2.33,0-3.49.04-1.27.05-2.53.17-3.91.26-1.72-1.59-3.79-3.36-5.7-5.3-1.77-1.81-1.6-3.14.82-3.86,3-.89,5.31-2,4.88-5.91.29.06.58.11.86.17.34,1.34.67,2.69,1.01,4.04a48.7,48.7,0,0,1,5.86,1.66,2.806,2.806,0,0,1,1.25,2.34c-.06.64-1.19,1.17-1.85,1.75-.18-.16-.36-.33-.53-.49.21-.44.42-.88.82-1.73-1.88-.4-3.67-.77-5.97-1.26,0,1.96-.07,3.58.05,5.18.03.38.74,1.04,1.09,1.01,2.45-.21,5.02-.21,7.31-.98,2.72-.92,3.45-3.59,2.08-6.16a10.849,10.849,0,0,0-2.29-2.92,22.918,22.918,0,0,0-15.6-6.27c-.79,0-2.7-1.15-2.48,1.25-.65-.1-1.3-.2-1.96-.3C999.21,467.49,999.14,467.2,999.07,466.91Zm9.63,15.78v-5.61l-5.08,1.09c-.04.29-.09.57-.13.86C1005.03,480.12,1006.57,481.19,1008.7,482.69Z" fill="#fff"/>
    <path id="Path_6723" data-name="Path 6723" d="M408.47,195.23a7.928,7.928,0,1,1,8.05-7.99A7.851,7.851,0,0,1,408.47,195.23Zm4.17-8.01a4.242,4.242,0,0,0-4.48-4,4.122,4.122,0,1,0,.47,8.23A4.173,4.173,0,0,0,412.64,187.22Z" fill="#fff"/>
    <path id="Path_6724" data-name="Path 6724" d="M719.31,334.74c-4.61.29-8.58.8-11.72-3.08-2.01-2.48-4.69-4.42-7.3-6.81,3.38-2.98,6.33-6.24,9.93-8.48,1.88-1.17,4.88-.52,7.54-.14-3.34,2.8-6.67,5.6-10.26,8.61C711.42,328.13,715.18,331.28,719.31,334.74Z" fill="#fff"/>
    <path id="Path_6725" data-name="Path 6725" d="M44.22,317.9v15.75H39.49V317.96H31.8v-2.88H52.04v2.82Z" fill="#fff"/>
    <path id="Path_6726" data-name="Path 6726" d="M996.18,9.4v3.72c-1.57.07-3.11.14-4.97.23V28.31h-5.19V13.33h-5.16V9.41C985.84,9.4,990.86,9.4,996.18,9.4Z" fill="#fff"/>
    <path id="Path_6727" data-name="Path 6727" d="M721.34,334.67V316.02h5.62v18.65Z" fill="#fff"/>
    <path id="Path_6728" data-name="Path 6728" d="M694.26,315.91h5.57v18.81h-5.57Z" fill="#fff"/>
    <path id="Path_6729" data-name="Path 6729" d="M100.91,27.76H97.22V1.32h3.69Z" fill="#fff"/>
    <path id="Path_6730" data-name="Path 6730" d="M354.59,180.09v3.49c-2.6-.5-5.4-1.26-6.85,1.61a5.447,5.447,0,0,0,.05,4.37c1.45,2.75,4.2,1.94,6.76,1.55v3.28a8.31,8.31,0,0,1-9.85-1.97,8.494,8.494,0,0,1-.46-9.56C346.35,179.75,350.25,178.68,354.59,180.09Z" fill="#fff"/>
    <path id="Path_6731" data-name="Path 6731" d="M378.95,179.47v3.27a17.257,17.257,0,0,0-3.48-.13c-.67.11-1.25.83-1.87,1.27a8.821,8.821,0,0,0,1.47,1.46,13.68,13.68,0,0,0,2.09.79,4.494,4.494,0,0,1-.43,8.58,52.977,52.977,0,0,1-6.95.53v-3.45a19.139,19.139,0,0,0,4.01.23c.84-.12,1.58-.93,2.37-1.43a13.917,13.917,0,0,0-1.89-1.72,21.979,21.979,0,0,0-2.29-.94,4.013,4.013,0,0,1-2.37-4.26,3.834,3.834,0,0,1,3.06-3.78A41.542,41.542,0,0,1,378.95,179.47Z" fill="#fff"/>
    <path id="Path_6732" data-name="Path 6732" d="M351.3,329.92c-.06-5.56-2.33-7.71-7.55-7.26-1.82.16-3.63.51-5.84.83.34-.77.38-1.17.59-1.3,6.63-3.94,14.15-.12,14.49,7.43a56.914,56.914,0,0,1-.25,8.46,6.27,6.27,0,0,1-5.09,5.78c-3.49.84-6.9.65-9.39-2.3-2.08-2.46-2.05-5.42-.83-8.25,1.34-3.12,4.24-3.81,7.26-3.85C346.84,329.42,348.98,329.74,351.3,329.92Zm.79,4.45c-.66-1-1.19-2.71-2.01-2.87a26.656,26.656,0,0,0-7.41-.29c-2.78.28-4.25,2.27-4.41,5.18-.17,3,1.23,5.14,3.89,5.94C347.88,344.08,351.36,341.26,352.09,334.37Z" fill="#fff"/>
    <path id="Path_6733" data-name="Path 6733" d="M395.73,191.06v3.44c-4.01,1.42-7.77.52-10-2.34a8.323,8.323,0,0,1-.23-9.37c2.06-2.99,5.93-4.07,10.19-2.76v3.5c-2.55-.45-5.37-1.15-6.78,1.7a5.474,5.474,0,0,0,.12,4.38C390.45,192.2,393.08,191.63,395.73,191.06Z" fill="#fff"/>
    <path id="Path_6734" data-name="Path 6734" d="M694.56,162.1v2.01c-2.25.92-4.47,1.48-6.28,2.66a10.236,10.236,0,0,0-4.77,9.07c.02,4.31,0,8.62,0,13.19-.88.07-1.64.13-2.32.18,0-5.75-.53-11.35.14-16.8C682.11,166.23,688.38,161.75,694.56,162.1Z" fill="#fff"/>
    <path id="Path_6735" data-name="Path 6735" d="M125.47,333.67h-4.62v-18.6h4.62Z" fill="#fff"/>
    <path id="Path_6736" data-name="Path 6736" d="M400.18,332.69c0,1.25.06,2.5-.01,3.74-.28,4.81-3.05,7.61-7.67,7.81-4.83.21-8.07-2.31-8.51-7.14a43.021,43.021,0,0,1,.16-9.69c.59-4.37,3.72-6.49,8.43-6.29,4.37.18,7.16,2.75,7.55,7.08.13,1.48.02,2.99.02,4.49Zm-1.35-.5a40.449,40.449,0,0,0-.53-5.01c-.68-3.11-3.06-4.69-6.49-4.6s-5.79,1.78-6.11,5.01a50.5,50.5,0,0,0-.07,9.68c.34,3.61,2.65,5.4,6.23,5.48,3.64.08,6.06-1.81,6.64-5.39C398.75,335.81,398.71,334.21,398.83,332.19Z" fill="#fff"/>
    <path id="Path_6737" data-name="Path 6737" d="M987.21,324.49a13.758,13.758,0,0,1,1.67,2.28c1.19,2.83,2.19,5.74,3.44,8.55a12.836,12.836,0,0,0,2.04,2.55,12.027,12.027,0,0,0,1.04-3.02,67.919,67.919,0,0,0,.02-6.99,18.262,18.262,0,0,0-.7-2.94,15.146,15.146,0,0,1,3.54,1.95c2.85,2.75,5.51,5.69,8.58,8.36.1-3.39,1.03-6.67-.26-9.8h1.78v12.64c-.23.07-.46.15-.7.22q-5.325-5.6-10.66-11.2c-.27.17-.53.34-.8.51.32,3.5-.72,7.08.73,10.54h-6.54c.81-.86.34-4.93-.95-5.34a6.238,6.238,0,0,0-4.59.23c-1.54.92-1.59,4.07-.53,5.12h-2.57C983.49,333.82,985.22,329.47,987.21,324.49Zm1.91,7.06c-.64-1.67-1.18-3.06-1.93-5.02-.75,1.99-1.28,3.39-1.89,5.02Z" fill="#fff"/>
    <path id="Path_6738" data-name="Path 6738" d="M403.18,160.8c0,3.07.15,6.16-.09,9.21-.07.93-1.2,1.78-1.85,2.66-.62-.85-1.74-1.68-1.76-2.54q-.225-9.585.01-19.19a3.1,3.1,0,0,1,1.78-2.38c1.54-.23,1.95,1.1,1.93,2.51C403.16,154.32,403.18,157.56,403.18,160.8Z" fill="#fff"/>
    <path id="Path_6739" data-name="Path 6739" d="M360.07,160.5c0,3.16-.02,6.31.01,9.47.01,1.38-.33,2.8-1.87,2.57-.74-.11-1.77-1.68-1.79-2.61q-.24-9.465-.01-18.93a3.139,3.139,0,0,1,1.72-2.44c1.56-.27,1.96,1.08,1.95,2.48C360.05,154.19,360.07,157.34,360.07,160.5Z" fill="#fff"/>
    <path id="Path_6740" data-name="Path 6740" d="M29.19,333.71H24.87V315.12h4.32Z" fill="#fff"/>
    <path id="Path_6741" data-name="Path 6741" d="M728.39,161.99h2.59v27.09c-.82.06-1.61.12-2.59.19Z" fill="#fff"/>
    <path id="Path_6742" data-name="Path 6742" d="M396.84,313.19c2.04-1.06,4.85-2.47,7.61-3.98a5.231,5.231,0,0,1,5.87.33,2.6,2.6,0,0,1,.58,2.43c-1.02-.51-2.03-1.37-3.08-1.43a6.639,6.639,0,0,0-3.8.98c-.36.23-.01,2.21.54,3.04a16.233,16.233,0,0,0,3.54,3.81c2.41,1.87,4.49,1.69,7.1-.09a19.573,19.573,0,0,1,2.99-1.38c-.82-.58-1.77-1.25-2.71-1.91.13-.21.26-.41.39-.62,3.71.68,5.88,3.94,8.72,6.19a15.863,15.863,0,0,0-3.61-.93c-1.78-.04-3.81-.18-5.3.58-3.71,1.88-6.73,1.04-9.63-1.45a4.812,4.812,0,0,1-1.07-1.04C402.82,314.28,399.81,312.65,396.84,313.19Z" fill="#fff"/>
    <path id="Path_6743" data-name="Path 6743" d="M634.64,29.5a21.853,21.853,0,0,1-4.14,2.23c-.81.23-1.85-.35-2.79-.57.22-.94.13-2.32.72-2.74a59.207,59.207,0,0,1,7.05-4.15,2,2,0,0,1,3.15,1.8,59.046,59.046,0,0,1-.06,8.2c-.06.72-1.31,1.34-2.01,2-.64-.71-1.64-1.33-1.83-2.15A21.4,21.4,0,0,1,634.64,29.5Z" fill="#fff"/>
    <path id="Path_6744" data-name="Path 6744" d="M628.75,19.31c-1.58-.95-2.9-1.45-3.78-2.37-.64-.67-.69-1.91-1-2.89.95-.22,2.11-.89,2.81-.57a56.326,56.326,0,0,1,6.91,3.96c1.69,1.1,1.65,2.68-.07,3.79a53.551,53.551,0,0,1-6.69,3.84c-.76.34-1.99-.36-3-.58.35-.97.46-2.19,1.12-2.87A18.782,18.782,0,0,1,628.75,19.31Z" fill="#fff"/>
    <path id="Path_6745" data-name="Path 6745" d="M634.63,9.1a22.206,22.206,0,0,1,.08-4.54c.19-.84,1.13-1.51,1.74-2.25.74.71,2.04,1.36,2.12,2.14a52.856,52.856,0,0,1,.07,7.96c-.1,1.96-1.57,2.79-3.3,1.88a54.936,54.936,0,0,1-6.62-3.93c-.68-.5-.72-1.87-1.06-2.85,1.01-.22,2.11-.8,3-.56A19.822,19.822,0,0,1,634.63,9.1Z" fill="#fff"/>
    <path id="Path_6746" data-name="Path 6746" d="M1008.96,187.55c1.68,1.2,2.31,2.71,1.54,4.59-.75,1.83-2.34,2.16-4.11,2.11-1.64-.04-3.28-.01-5.07-.01V181.67c1.68,0,3.39-.07,5.09.01C1010.2,181.89,1011.24,184.12,1008.96,187.55Zm-5.48.86v4.28c1.81-.5,3.32-.85,4.75-1.39a2.581,2.581,0,0,0-.07-1.71C1006.7,189.09,1005.17,188.81,1003.48,188.41Zm-.06-1.2c1.75-.56,3.14-.96,4.48-1.49a1.94,1.94,0,0,0-.05-1.28c-1.37-.44-2.79-.74-4.43-1.14Z" fill="#fff"/>
    <path id="Path_6747" data-name="Path 6747" d="M652.33,19.32c1.56.91,2.95,1.42,3.87,2.38.63.65.62,1.93.9,2.92-.96.19-2.12.83-2.83.49a55.945,55.945,0,0,1-6.89-3.94c-1.7-1.11-1.66-2.68.07-3.79a53.218,53.218,0,0,1,6.68-3.81c.78-.35,2,.3,3.02.49-.32.99-.38,2.22-1.03,2.9C655.25,17.88,653.92,18.37,652.33,19.32Z" fill="#fff"/>
    <path id="Path_6748" data-name="Path 6748" d="M646.56,9.04a20.541,20.541,0,0,1,4.07-2.17c.81-.22,1.85.4,2.79.64-.26.93-.23,2.28-.84,2.71a54.718,54.718,0,0,1-7.09,4.18c-1.64.82-2.82,0-2.89-1.81a73.071,73.071,0,0,1,.05-8.24c.05-.71,1.22-1.98,1.66-1.89a3.115,3.115,0,0,1,2.14,1.77C646.81,5.61,646.56,7.14,646.56,9.04Z" fill="#fff"/>
    <path id="Path_6749" data-name="Path 6749" d="M646.59,29.58a18.088,18.088,0,0,1-.08,4.3c-.25.91-1.26,1.6-1.93,2.39-.67-.77-1.83-1.48-1.92-2.31a60.417,60.417,0,0,1-.08-7.73c.07-2.07,1.38-2.85,3.2-1.89a54.484,54.484,0,0,1,6.64,3.94c.67.48.67,1.88.97,2.86-1.02.19-2.12.71-3.03.47A17.76,17.76,0,0,1,646.59,29.58Z" fill="#fff"/>
    <path id="Path_6750" data-name="Path 6750" d="M1044.7,172.08c.02,4.06-2.07,6.53-5.56,6.56-3.55.03-5.58-2.32-5.58-6.47,0-4.22,1.94-6.55,5.47-6.56C1042.54,165.6,1044.68,168.04,1044.7,172.08Zm-2.29-.06c-.02-2.77-1.25-4.35-3.35-4.33-2.04.02-3.33,1.72-3.33,4.4,0,2.72,1.5,4.67,3.51,4.55C1041.13,176.53,1042.43,174.65,1042.41,172.02Z" fill="#fff"/>
    <path id="Path_6751" data-name="Path 6751" d="M1007.21,156.66c-.63,1.92-1.23,3.73-2,6.08-.44-.39-1.44-.85-1.46-1.35-.13-3.73-.07-7.46-.07-11.17,2.07-.17,2.07-.17,2.34,4.86,2.73-1.25,3.11-5.79,7.6-5a43.5,43.5,0,0,1-3.01,3.43c-1.09,1.01-1.01,1.84-.25,3,1.22,1.85,2.29,3.81,3.58,6C1009.27,163.13,1010.07,158.46,1007.21,156.66Z" fill="#fff"/>
    <path id="Path_6752" data-name="Path 6752" d="M1046.92,165.89h8.03c.11,1.87.11,1.87-1.94,1.89-1.24.01-2.47,0-3.86,0v2.74c1.95.29,3.75.55,5.55.88a7.019,7.019,0,0,1,.01,1.32h-5.5v3.68c1.65,0,3.22-.09,4.78.05.54.05,1.02.68,1.53,1.05-.48.3-.95.84-1.45.86-2.31.09-4.63.04-7.15.04C1046.92,174.2,1046.92,170.19,1046.92,165.89Z" fill="#fff"/>
    <path id="Path_6753" data-name="Path 6753" d="M1026.61,162.62c-.07-.87-.15-1.43-.15-1.99-.01-3.46-.01-6.93-.01-10.34,5.21-.98,8.25-.47,8.43,1.58h-6.04v2.73c1.77,1.31,4.6-.92,6.39,2.29h-6.41v3.77c1.71,0,3.35-.07,4.99.04.49.03.94.58,1.4.89-.45.34-.89.96-1.35.98C1031.53,162.67,1029.21,162.62,1026.61,162.62Z" fill="#fff"/>
    <path id="Path_6754" data-name="Path 6754" d="M1015.78,162.53c-.07-.72-.16-1.21-.17-1.7-.01-3.49-.01-6.98-.01-10.43,4.22-1.21,8.12-.62,8.3,1.47h-6.05c-.05,1.07-.09,1.86-.12,2.56,1.68,1.58,4.71-.8,6.32,2.49h-6.18v3.37c1.9,1.18,4.89-.76,6.48,1.16-.13.36-.25.72-.38,1.08Z" fill="#fff"/>
    <path id="Path_6755" data-name="Path 6755" d="M1052.44,492.59c-.24-1.13-.8-2.3-.67-3.38a57.673,57.673,0,0,1,1.61-8.87c.46-1.65,1.72-3.07,2.63-4.6.26.13.52.26.79.4-.72,1.6-1.44,3.21-2.29,5.1,1.5-1.4,2.63-2.61,3.93-3.6a2.608,2.608,0,0,1,2.18-.51,2.873,2.873,0,0,1,1.05,2.06c.25,2.17-1.58,5.29-3.81,5.53-2.65.28-2.89,2.07-3.46,3.82-.4,1.24-.63,2.55-.94,3.82C1053.12,492.43,1052.78,492.51,1052.44,492.59Zm8.49-13.31-.9-.72c-1,1.25-2.01,2.5-3.01,3.75.3.24.59.48.89.72Q1059.41,481.155,1060.93,479.28Z" fill="#fff"/>
    <path id="Path_6756" data-name="Path 6756" d="M1037.29,183.64v2.85a9.16,9.16,0,0,1,1.95.22c1.25.42,3.02-1.09,3.8,1.02-1.31.32-2.61.66-3.93.94a13.607,13.607,0,0,1-1.81.14v3.41h6.03c.17.22.34.44.51.67-.5.46-.98,1.28-1.51,1.31-2.31.15-4.63.06-7.15.06V181.85h7.95c.23,1.78.23,1.78-2.05,1.79Z" fill="#fff"/>
    <path id="Path_6757" data-name="Path 6757" d="M1039.64,157.86a24.243,24.243,0,0,1-.05,3.46c-.07.47-.68.86-1.05,1.28-.36-.43-1.03-.86-1.04-1.3-.08-3.65-.05-7.31-.05-11.15a48.184,48.184,0,0,1,6.27.06c1.99.27,2.54,1.93,2.5,3.76a3.412,3.412,0,0,1-3.02,3.69A29.739,29.739,0,0,1,1039.64,157.86Zm.21-6.3v4.65a22.269,22.269,0,0,0,3.74-1.47,2.146,2.146,0,0,0-.08-1.91A21.041,21.041,0,0,0,1039.85,151.56Z" fill="#fff"/>
    <path id="Path_6758" data-name="Path 6758" d="M1009.21,178.01c1.31-3.67,2.57-7.35,3.96-10.98a2.123,2.123,0,0,1,1.53-1.16,2.086,2.086,0,0,1,1.59,1.04c1.48,3.68,2.82,7.41,4.21,11.13l-.61.64c-.72-.58-1.83-1.03-2.08-1.76-.57-1.7-1.8-1.45-3.01-1.45s-2.46-.26-2.99,1.48c-.21.71-1.24,1.16-1.9,1.73C1009.68,178.47,1009.45,178.24,1009.21,178.01Zm3.86-4.42c1.33-.07,2.24-.11,3.42-.17-.59-1.65-1.05-2.91-1.5-4.16-.18,0-.35.01-.53.01C1014.05,170.55,1013.64,171.84,1013.07,173.59Z" fill="#fff"/>
    <path id="Path_6759" data-name="Path 6759" d="M1022.17,166.06c1.8-.11,1.8-.11,2.27,4.57h4.67a29.448,29.448,0,0,1,.05-3.64c.06-.43.74-.78,1.14-1.17.32.38.92.76.92,1.14.07,3.41.07,6.83,0,10.24-.01.39-.61.76-.93,1.15-.39-.4-1.07-.76-1.12-1.19a37.763,37.763,0,0,1-.05-4.16h-4.79v5.11l-.67.49c-.49-.46-1.4-.9-1.41-1.37C1022.12,173.5,1022.17,169.77,1022.17,166.06Z" fill="#fff"/>
    <path id="Path_6760" data-name="Path 6760" d="M360.39,179.85h3.48v14.86h-3.48Z" fill="#fff"/>
    <path id="Path_6761" data-name="Path 6761" d="M1025.21,181.88v7.19c0,1.72.3,3.3,2.46,3.32,2.25.02,2.34-1.74,2.39-3.36.06-1.91-.05-3.83.07-5.74.04-.55.62-1.07.96-1.61.38.49,1.07.97,1.08,1.48a66.642,66.642,0,0,1-.05,7.48c-.21,2.81-1.65,3.83-4.81,3.75-2.69-.07-4.01-1.21-4.17-3.9-.15-2.49-.16-4.99-.07-7.49.02-.56.74-1.09,1.14-1.63C1024.55,181.55,1024.88,181.71,1025.21,181.88Z" fill="#fff"/>
    <path id="Path_6762" data-name="Path 6762" d="M1037.55,476.95c-2.2.26-4.4.53-6.6.79,0,.17-.01.33-.01.5,1.09.16,2.17.33,3.26.48,1.62.22,2.91.77,2.92,2.71a2.611,2.611,0,0,1-2.84,2.79,8.6,8.6,0,0,1-4.02-.76c-1.6-.81-2.12-2.12-.45-3.18-.41-.86-1.24-1.78-1.07-2.46a3.227,3.227,0,0,1,1.99-1.84,9.309,9.309,0,0,1,6.79.23C1037.53,476.47,1037.54,476.71,1037.55,476.95Z" fill="#fff"/>
    <path id="Path_6763" data-name="Path 6763" d="M700.07,12.91c1.25,3.24,2.49,6.49,3.84,10,1.12-2.49,2.11-4.7,3.11-6.92.25-.02.51-.04.76-.05.95,2.21,1.9,4.42,3.04,7.08,1.37-3.64,2.59-6.87,3.91-10.38.89,1.61-1.75,9.82-4.11,13.27-1.12-2.54-2.1-4.79-3.24-7.37-1.14,2.54-2.14,4.76-3.13,6.97l-.79.06q-2.25-6.1-4.49-12.21C699.34,13.21,699.71,13.06,700.07,12.91Z" fill="#fff"/>
    <path id="Path_6764" data-name="Path 6764" d="M767.34,19.34H757c.05,2.84,1.7,5.01,4.1,4.74,2-.23,3.88-1.45,5.71-2.19-.15,2.11-2.41,3.77-5.37,3.67a6.341,6.341,0,0,1-.13-12.67C764.63,12.77,767.09,15.3,767.34,19.34Zm-1.38-1.28c-.89-2.52-2.29-3.83-4.65-3.76-2.32.07-3.71,1.38-4.47,3.76Z" fill="#fff"/>
    <path id="Path_6765" data-name="Path 6765" d="M741.22,25.95c-.41-1.05-.61-1.58-.83-2.13-3.92,2.34-6.75,2.18-8.93-.45a6.773,6.773,0,0,1,.19-8.49c2.24-2.52,5.09-2.6,8.73-.2.21-.58.4-1.15.58-1.64C742.15,12.95,742.39,22.7,741.22,25.95Zm-.59-6.7a4.993,4.993,0,0,0-4.57-5,4.978,4.978,0,0,0-.06,9.94A5,5,0,0,0,740.63,19.25Z" fill="#fff"/>
    <path id="Path_6766" data-name="Path 6766" d="M744.93,25.43V7.81c.25-.01.5-.03.75-.04V19.53c.21.06.42.12.63.19q3.7-3.585,7.42-7.17c.3.3.59.6.89.9-1.66,1.66-3.32,3.33-5.1,5.1,1.71,2.19,3.36,4.3,5.01,6.41-.23.21-.45.42-.68.63-2.21-1.37-3.31-3.95-5.24-5.66-2.8.8-2.6,3.46-2.96,5.77C745.41,25.6,745.17,25.52,744.93,25.43Z" fill="#fff"/>
    <path id="Path_6767" data-name="Path 6767" d="M312.12,464.58c5.3,2.52,10.45,4.96,15.95,7.57-3.28.4-6.45.8-9.63,1.13a1.563,1.563,0,0,1-1.24-.56C315.47,470.03,313.81,467.31,312.12,464.58Z" fill="#fff"/>
    <path id="Path_6768" data-name="Path 6768" d="M376.45,312.45a23.144,23.144,0,0,1,.25,2.48q.03,9.105.01,18.21c-.01,3.71-.53,7.55,3.31,10.26l-.82.61c-.67-.35-1.68-.53-1.95-1.08-.82-1.67-1.87-3.47-1.92-5.24-.21-7.81-.11-15.63-.09-23.45a8.78,8.78,0,0,1,.41-1.85Z" fill="#fff"/>
    <path id="Path_6769" data-name="Path 6769" d="M359.43,343.91c-.19-.41-.54-.83-.53-1.24.07-5.06-.13-10.15.38-15.17.53-5.27,6.4-8.15,11.18-5.84.38.18.62.63,1.38,1.42a12.869,12.869,0,0,1-2.04-.01c-6.19-1.41-8.97.65-9.23,7.02-.15,3.73-.09,7.47-.15,11.21-.01.85-.16,1.69-.24,2.54C359.92,343.87,359.67,343.89,359.43,343.91Z" fill="#fff"/>
    <path id="Path_6770" data-name="Path 6770" d="M697.85,19.22a5.957,5.957,0,1,1-11.9.13,5.967,5.967,0,1,1,11.9-.13Zm-6.02-4.97a4.981,4.981,0,0,0,.23,9.94,5.079,5.079,0,0,0,4.48-5.09A4.966,4.966,0,0,0,691.83,14.25Z" fill="#fff"/>
    <path id="Path_6771" data-name="Path 6771" d="M345.66,162.13a23.668,23.668,0,0,1,.08-4.46c.14-.72,1.15-1.26,1.77-1.88.58.59,1.63,1.15,1.66,1.77a87.423,87.423,0,0,1,0,9.44c-.03.62-1.09,1.18-1.68,1.77-.61-.64-1.62-1.2-1.75-1.93A27.364,27.364,0,0,1,345.66,162.13Z" fill="#fff"/>
    <path id="Path_6772" data-name="Path 6772" d="M413.8,162.28a30.761,30.761,0,0,1-.08,4.71c-.1.66-1.07,1.66-1.62,1.65a2.4,2.4,0,0,1-1.78-1.54,89.489,89.489,0,0,1,0-9.69c.03-.57,1.17-1.49,1.8-1.49.56,0,1.5.99,1.6,1.65A30.761,30.761,0,0,1,413.8,162.28Z" fill="#fff"/>
    <path id="Path_6773" data-name="Path 6773" d="M370.76,162.3a24.429,24.429,0,0,1-.08,4.45c-.14.75-1.1,1.35-1.69,2.02-.61-.65-1.7-1.28-1.74-1.96a71.941,71.941,0,0,1,.01-9.17c.04-.65,1.18-1.23,1.81-1.84.56.6,1.5,1.13,1.6,1.8a30.652,30.652,0,0,1,.08,4.7Z" fill="#fff"/>
    <path id="Path_6774" data-name="Path 6774" d="M392.26,162.41a23.546,23.546,0,0,1-.08,4.45c-.14.72-1.14,1.28-1.76,1.91-.57-.6-1.6-1.18-1.63-1.81a84.57,84.57,0,0,1,.01-9.42c.03-.61,1.09-1.16,1.67-1.74.6.63,1.59,1.2,1.72,1.91A28.282,28.282,0,0,1,392.26,162.41Z" fill="#fff"/>
    <path id="Path_6775" data-name="Path 6775" d="M1015.82,322.87h3.8a10.145,10.145,0,0,0-.86,2.67c-.11,3.16.12,6.33-.11,9.47a18.287,18.287,0,0,1-1.39,5.73c-.86,2.03-2.79,2.49-4.85,1.99-.39-.1-.64-.77-.96-1.17.49-.09,1.04-.38,1.45-.25,3.02.99,3.85.47,3.9-2.76.06-4.32.07-8.65-.03-12.97A9.229,9.229,0,0,0,1015.82,322.87Z" fill="#fff"/>
    <path id="Path_6776" data-name="Path 6776" d="M1052.59,482.49c-2.39,2.61-4.89,3.4-6.12,2.36-1.28-1.09-.86-4.24.95-6.37-.38-.51-.78-1.05-1.14-1.54.91-1.54,5.97-1.1,7.23.76-1.5.27-2.88.51-4.94.87,1.49.62,2.37.98,3.25,1.35-.03.18-.05.36-.08.55-1.31.36-2.63.73-3.94,1.09.05.31.09.62.14.93Z" fill="#fff"/>
    <path id="Path_6777" data-name="Path 6777" d="M713.93,475.7v-7.36c.88-.12,1.82-.24,2.76-.36.49-.07,1.1-.36,1.44-.17,1.54.84,2.94.58,4.53.07.62-.2,2.24.66,2.3,1.17a57.169,57.169,0,0,1,.11,6.68l-1.02.03c-.05-1.35-.08-2.71-.17-4.06-.08-1.15.42-2.86-1.5-2.77-1.6.08-2.38,1.21-2.23,2.96a29.907,29.907,0,0,1-.15,3.89h-1.02c-.07-1.29-.08-2.58-.21-3.87-.13-1.18.63-3.07-1.51-2.99-1.82.07-2.32,1.5-2.19,3.24a27.226,27.226,0,0,1-.19,3.6C714.56,475.76,714.24,475.73,713.93,475.7Z" fill="#fff"/>
    <path id="Path_6778" data-name="Path 6778" d="M1039.97,479.6c-.33,1.92-.57,3.37-.89,5.23-2.01-2.2-1.56-6.34.66-8.73,1.17,1.7,2.29,3.34,3.42,4.98.12-.04.23-.09.35-.13-.37-2.05-.75-4.11-1.14-6.24,2.78,1.11,4.04,7.24,1.88,8.88a2.122,2.122,0,0,1-2.01-.38A24.532,24.532,0,0,1,1039.97,479.6Z" fill="#fff"/>
    <path id="Path_6779" data-name="Path 6779" d="M1048.4,331.53c.53,2.41.46,5.26,1.39,5.64,1.8.74,4.4,1.22,6.12-.96.15,1.89.16,1.96-1.5,1.99-2.88.06-5.76.02-8.83.02,2.07-1.36,2.45-10.52.49-12.93,3.2.37,6.27-.55,9.15.99-2.02,0-4.14-.34-6,.21-.54.16-.33,2.86-.51,4.97,2.2-.26,4.01-.47,5.83-.68v1.65C1052.8,332.18,1051,331.91,1048.4,331.53Z" fill="#fff"/>
    <path id="Path_6780" data-name="Path 6780" d="M670.37,15.32a19.006,19.006,0,0,0-4.35-.95c-.71.01-1.41,1.12-2.11,1.73a7.722,7.722,0,0,0,1.64,1.64c1.17.61,2.62.75,3.65,1.51a4.492,4.492,0,0,1,1.89,2.86c.05,1.98-1.43,3.08-3.37,3.34-2.07.28-3.89-.12-4.99-2.15a15.529,15.529,0,0,0,4.21.79c.94-.07,1.8-1.14,2.69-1.76a10.541,10.541,0,0,0-1.98-2.16c-.88-.56-2.18-.52-2.98-1.14-.94-.74-2.13-1.94-2.1-2.9a4.241,4.241,0,0,1,2.23-2.83C667,12.17,669.11,13.09,670.37,15.32Z" fill="#fff"/>
    <path id="Path_6781" data-name="Path 6781" d="M1009.98,167.66c-1.59.11-2.49.17-3.66.24v10.18c-1.55.52-2.22.24-2.2-1.29.04-2.89.01-5.78.01-8.86a16.1,16.1,0,0,1-2.6-.23,1.271,1.271,0,0,1-.8-.93c0-.32.5-.91.79-.92,2.49-.08,4.98-.1,7.46.02C1009.29,165.9,1009.55,166.86,1009.98,167.66Z" fill="#fff"/>
    <path id="Path_6782" data-name="Path 6782" d="M645.24,19.4c-2,1.55-3.47,3.56-4.85,3.5-1.27-.05-3.55-2.44-3.41-3.57.17-1.44,2.25-3.57,3.63-3.68C641.88,15.56,643.33,17.75,645.24,19.4Z" fill="#fff"/>
    <path id="Path_6783" data-name="Path 6783" d="M996,477.78c-.99-1.4-1.7-2.41-2.24-3.18,1.64-.02,2.94.02,4.22-.08.84-.07,1.76-.68,2.45-.45a2.184,2.184,0,0,1,.83,2.01c-.23.68-1.15,1.16-1.83,1.65-.23.17-.63.09-1.31.17-.17,2.56-.33,5.14-.51,7.77C994.99,484.5,994.74,483,996,477.78Z" fill="#fff"/>
    <path id="Path_6784" data-name="Path 6784" d="M1015.23,192.31h5.63c.2,2.3-.19,2.39-7.56,1.81V181.97c1.5-.56,1.97.06,1.94,1.59C1015.19,186.43,1015.23,189.3,1015.23,192.31Z" fill="#fff"/>
    <path id="Path_6785" data-name="Path 6785" d="M679.84,468.1c.61.14,1.3.53,1.68.34,1.45-.76,2.73-1.02,4.16.1.28.22,1.15-.3,1.74-.51,2.18-.77,3.43-.01,3.54,2.27.08,1.81.02,3.64.02,5.46-.37.01-.73.01-1.1.02l-.18-4.11c-.05-1.2.31-2.87-1.58-2.73-1.53.11-2.45,1.19-2.25,2.98a36.015,36.015,0,0,1,.03,3.89c-.42-.01-.84-.03-1.26-.04a24.479,24.479,0,0,0-.06-4.2c-.17-.95-.92-2.55-1.42-2.55a2.274,2.274,0,0,0-2.4,2.76c.12,1.31.02,2.64.02,3.96-.31-.01-.63-.01-.94-.02Z" fill="#fff"/>
    <path id="Path_6786" data-name="Path 6786" d="M977.12,338.15c3.05-2.26,2.95-3.96-.3-6.15a31.5,31.5,0,0,1-4.25-3c-2.02-1.91-1.35-4.87,1.29-5.42a14.8,14.8,0,0,1,5.37.28c.46.08.75,1.21,1.1,1.84a19.943,19.943,0,0,0-4.36-1.96,3.046,3.046,0,0,0-2.57,1.37,3.1,3.1,0,0,0,.8,2.75c1.6,1.42,3.72,2.29,5.16,3.82a5.159,5.159,0,0,1,1.23,4.09c-.29,1.15-1.96,1.95-3.02,2.91C977.43,338.52,977.27,338.33,977.12,338.15Z" fill="#fff"/>
    <path id="Path_6787" data-name="Path 6787" d="M708.22,487.81a26.875,26.875,0,0,1,3.49.99c.6.26,1.4.98,1.39,1.47-.01.67-.64,1.82-1.14,1.91a14.421,14.421,0,0,1-5.07.12c-1.36-.27-1.47-1.35-.73-2.74.55-1.05.41-2.48.48-3.75.05-.93-.43-2.21.02-2.73a4.906,4.906,0,0,1,2.96-1.29,15.734,15.734,0,0,1,3.57.36c-1.37,1.93-.84,5.7-5.44,4.93C707.91,487.33,708.06,487.57,708.22,487.81Zm3.93,3.5c.01-.41.01-.81.02-1.22a25.977,25.977,0,0,0-3.85-.77c-.44-.03-.94.77-1.41,1.19.42.43.83,1.22,1.25,1.22A26.871,26.871,0,0,0,712.15,491.31Zm-2.79-4.36c.78-1.26,1.62-2.03,1.59-2.76-.03-.59-1.3-1.68-1.72-1.55a2.907,2.907,0,0,0-1.72,1.9C707.42,485.07,708.43,485.8,709.36,486.95Z" fill="#fff"/>
    <path id="Path_6788" data-name="Path 6788" d="M1024.64,474.36c-1.08-2.08-1.44-3.99.69-5.55a5.105,5.105,0,0,1,6.03-.37c1.33.76,1.52,1.61.73,2.83a6.141,6.141,0,0,1-5.16,2.98C1026.21,474.28,1025.5,474.32,1024.64,474.36Zm1.99-2.49.33.69c1.99.17,3.59-.29,4.21-2.35-.16-.26-.31-.53-.47-.79Q1028.66,470.65,1026.63,471.87Z" fill="#fff"/>
    <path id="Path_6789" data-name="Path 6789" d="M673.95,13.63a14.381,14.381,0,0,0,2.82-.36c2.82-.98,6.12.21,6.62,3.07a29.044,29.044,0,0,1-.35,9.12,4.644,4.644,0,0,1-.5-1.32c-.05-1.91.04-3.83-.04-5.74-.1-2.46-1.68-4.12-3.79-4.11-2.16.02-3.74,1.61-3.89,4.06-.1,1.66,0,3.33-.04,4.99a20.117,20.117,0,0,1-.22,2.02c-.21-.02-.42-.04-.63-.05C673.95,21.25,673.95,17.18,673.95,13.63Z" fill="#fff"/>
    <path id="Path_6790" data-name="Path 6790" d="M717.59,13.07c.65-.2,1.31-.4,1.94-.59.5-4.48,1.43-5.39,4.89-4.24-1.15.49-2.24.63-2.74,1.25-.54.68-.54,1.8-.81,2.86.99.29,1.72.5,3.16.91l-3.22,1.43V25.42c-.27,0-.54.01-.8.01V14.62c-1.06-.42-1.76-.7-2.47-.98C717.55,13.46,717.57,13.26,717.59,13.07Z" fill="#fff"/>
    <path id="Path_6791" data-name="Path 6791" d="M749.35,489.3c-.68,0-1.29.03-1.89-.01-1.3-.07-3.37.28-3.74-.35a6.884,6.884,0,0,1-.77-4.79c.27-1.02,2.07-1.69,3.27-2.37.44-.24,1.12-.04,1.83-.04.18-1.31.35-2.58.52-3.85.26.02.52.03.78.05C749.35,481.81,749.35,485.66,749.35,489.3Zm-1.1-4.11c.2-1.28.05-2.44-1.78-2.4-2.1.06-2.65,1.48-2.65,3.19,0,1.41.49,2.83,2.2,2.73C748.05,488.59,748.5,487.08,748.25,485.19Z" fill="#fff"/>
    <path id="Path_6792" data-name="Path 6792" d="M433.66,479.77a5.031,5.031,0,0,0,3.2,5.09c3.23,1.42,5.68.02,7.75-2.53-1.15,3.13-3.85,4.39-7.12,3.53a6.205,6.205,0,0,1,1.55-12.24c3.6-.06,5.84,1.98,6.47,6.15Zm10.84-.65c-.62-3.2-2.77-4.98-5.66-4.8a4.964,4.964,0,0,0-4.91,4.8Z" fill="#fff"/>
    <path id="Path_6793" data-name="Path 6793" d="M373.24,479.9H361.56a4.876,4.876,0,0,0,3.43,5.07c3.11,1.23,5.47-.11,7.43-2.83-.4,2.58-3.14,4.34-5.86,4.02a6.242,6.242,0,0,1-5.9-6.74,6.047,6.047,0,0,1,6.26-5.8C370.59,473.57,373.02,475.82,373.24,479.9Zm-.77-.72c-.86-3.51-3.15-5.22-6.11-4.84-2.8.36-4.56,2.26-4.46,4.84Z" fill="#fff"/>
    <path id="Path_6794" data-name="Path 6794" d="M394.4,475.8c.2-.61.34-1.05.48-1.5.09,0,.17.01.26.01v11.12c-.09.02-.17.05-.26.07-.13-.49-.26-.98-.23-.88-2.36.44-4.67,1.2-6.97,1.17a5.977,5.977,0,0,1-3.7-2.16,6.169,6.169,0,0,1,.44-8.2C386.84,472.95,390.52,473.03,394.4,475.8Zm-5.21,9.58a5.54,5.54,0,1,0-.1-11.08,5.543,5.543,0,1,0,.1,11.08Z" fill="#fff"/>
    <path id="Path_6795" data-name="Path 6795" d="M338.58,165.78a2.936,2.936,0,0,1-.2,1.55,2.6,2.6,0,0,1-1.77,1.33,2.328,2.328,0,0,1-1.66-1.45,7.728,7.728,0,0,1-.06-3.7c.24-.9,1.22-1.61,1.88-2.4a16.94,16.94,0,0,1,1.78,2.31C338.78,163.86,338.58,164.55,338.58,165.78Z" fill="#fff"/>
    <path id="Path_6796" data-name="Path 6796" d="M699.52,475.25c-1.23.22-2.14.41-3.06.55-1.36.22-2.76.38-3.27-1.34-.46-1.57.37-2.55,1.79-3.05,1-.35,2.05-.57,3.08-.85-.38-1.45-.38-1.45-4.26-1.67-.02-.23-.05-.46-.07-.69,1.49-.08,3.07-.49,4.43-.11.66.18,1.16,1.8,1.3,2.83A28.907,28.907,0,0,1,699.52,475.25Zm-1.36-3.21c-1.68-.42-3.09-.14-3.78,1.61-.09.21.76,1.14,1.19,1.16C697.28,474.88,698.45,474.18,698.16,472.04Z" fill="#fff"/>
    <path id="Path_6797" data-name="Path 6797" d="M381.62,165c0,.58.2,1.28-.05,1.72a12.943,12.943,0,0,1-1.76,2.03c-.64-.63-1.59-1.16-1.84-1.91a5.536,5.536,0,0,1-.03-3.2c.29-.94,1.06-2.33,1.77-2.43,1.54-.22,1.98,1.13,1.92,2.54C381.61,164.17,381.62,164.59,381.62,165Z" fill="#fff"/>
    <path id="Path_6798" data-name="Path 6798" d="M727.56,7.23V26.01c-.69-.91-1.16-1.24-1.22-1.64C725.7,20.57,726.31,8.69,727.56,7.23Z" fill="#fff"/>
    <path id="Path_6799" data-name="Path 6799" d="M704.32,485.79h-5.2c.11,3.1,1.19,3.56,5,2.36-.64,1.53-2.17,2.13-4.1,1.59-1.89-.53-2.84-2.57-2.36-5.13a3.158,3.158,0,0,1,3.69-2.88C703.65,481.94,704.36,483.45,704.32,485.79Zm-1.65-1.04c.18-.21.37-.42.55-.63-.79-.48-1.57-1.32-2.37-1.34-.64-.02-1.32.94-1.97,1.46.12.17.25.34.37.51Z" fill="#fff"/>
    <path id="Path_6800" data-name="Path 6800" d="M740.77,488.46c-1.06,1.51-2.66,1.63-4.32,1.22-1.8-.45-2.67-2.48-2.26-4.95a3.154,3.154,0,0,1,3.35-3.01c2.49-.02,3.2,1.62,3.51,3.98-1.87.08-3.65.16-5.42.24C735.86,488.92,736.66,489.26,740.77,488.46Zm-1.31-3.77c.1-.2.19-.4.29-.6-.78-.48-1.56-1.32-2.35-1.34-.66-.02-1.35.91-2.03,1.43l.33.51Z" fill="#fff"/>
    <path id="Path_6801" data-name="Path 6801" d="M726.43,489.26c-1.16.16-1.99.24-2.8.39-1.42.26-2.94.6-3.52-1.23-.53-1.68.43-2.67,1.97-3.16.99-.32,2-.57,3.15-.9-.97-2.65-2.94-1.13-4.94-1.44a4.033,4.033,0,0,1,4.43-1.02,3.324,3.324,0,0,1,1.64,2.34A33.906,33.906,0,0,1,726.43,489.26Zm-1.63-4.33c-1.45,1.12-2.5,1.92-3.54,2.72.54.38,1.1,1.11,1.6,1.08C724.41,488.6,725.5,487.86,724.8,484.93Z" fill="#fff"/>
    <path id="Path_6802" data-name="Path 6802" d="M424.65,164.87c0,.5.18,1.1-.04,1.47a23.938,23.938,0,0,1-1.86,2.42,8.706,8.706,0,0,1-1.66-2.3,4.914,4.914,0,0,1,0-2.94,10.287,10.287,0,0,1,1.8-2.45c.58.85,1.22,1.67,1.72,2.56.18.33.03.83.04,1.24Z" fill="#fff"/>
    <path id="Path_6803" data-name="Path 6803" d="M410.78,477.63c-4.06-3.84-7.29-4.34-9.88-1.56a5.689,5.689,0,0,0,.34,7.87c2.75,2.49,6.17,1.82,9.37-1.82-.29,2.33-2.87,4.2-5.65,4.1a6.419,6.419,0,0,1-6.25-5.97,6.1,6.1,0,0,1,4.96-6.5C407.18,473.11,409.92,474.6,410.78,477.63Z" fill="#fff"/>
    <path id="Path_6804" data-name="Path 6804" d="M1038.05,325.82c-.97,2.03.13,3.17,1.58,4.16a17.866,17.866,0,0,1,3.45,2.38c.79.89,1.62,2.39,1.38,3.36-.28,1.13-1.71,1.97-2.88,2.69,2.39-2.32,2.32-3.67-.5-5.59a32.7,32.7,0,0,1-3.66-2.55C1035.72,328.73,1035.9,327.46,1038.05,325.82Z" fill="#fff"/>
    <path id="Path_6805" data-name="Path 6805" d="M683.7,489.75v-7.47a21.145,21.145,0,0,0,2.69-.42c2.17-.61,3.38.17,3.46,2.47.07,1.78.01,3.57.01,5.35-.37.02-.73.04-1.1.05-.05-1.33-.07-2.67-.15-4-.07-1.17.42-2.84-1.46-2.86-1.76-.02-2.61,1.14-2.48,2.99.09,1.27.02,2.55.02,3.82C684.38,489.7,684.04,489.73,683.7,489.75Z" fill="#fff"/>
    <path id="Path_6806" data-name="Path 6806" d="M416.27,490.52c2.26-4.82-.28-8.8-1.99-12.9-.47-1.12-.87-2.27-1.3-3.41.2-.09.4-.17.59-.26,1.41,3.35,2.81,6.69,4.44,10.57,1.71-3.81,3.24-7.22,4.77-10.64.22.11.45.21.67.32Q419.88,482.375,416.27,490.52Z" fill="#fff"/>
    <path id="Path_6807" data-name="Path 6807" d="M1027.31,325.39a7.012,7.012,0,0,1,7.96,4.23c1.05,2.98-.24,5.96-3.89,7.96,2.28-2.64,2.91-5.15,1.97-7.91C1032.39,326.83,1030.24,325.56,1027.31,325.39Z" fill="#fff"/>
    <path id="Path_6808" data-name="Path 6808" d="M1026.66,338.1c-3.47-.24-5.85-2.16-6.37-4.91-.58-3.06.97-5.76,4.37-7.25a7.173,7.173,0,0,0-2.5,6.69A6.8,6.8,0,0,0,1026.66,338.1Z" fill="#fff"/>
    <path id="Path_6809" data-name="Path 6809" d="M427.78,485.63V474.95c-.91-.22-1.64-.39-2.37-.56.01-.13.02-.25.03-.38l2.16-.35c.1-1.41.2-2.81.31-4.22.19,0,.37-.01.56-.01.1,1.4.2,2.8.31,4.29.92.08,1.73.14,2.54.21l.09.39c-.84.2-1.69.4-2.85.68v10.65C428.29,485.63,428.04,485.63,427.78,485.63Z" fill="#fff"/>
    <path id="Path_6810" data-name="Path 6810" d="M701.97,467.59c.85.89,1.69,1.79,2.64,2.79.81-.89,1.64-1.81,2.47-2.73.22.16.44.32.66.47-.77,1.16-1.53,2.32-2.37,3.59.86,1.25,1.74,2.55,2.63,3.84-.16.17-.33.34-.49.5-1-.98-1.99-1.97-2.98-2.94-.88.98-1.77,1.97-2.66,2.97-.28-.15-.56-.31-.85-.46,2.84-2.52,3.29-5.04.01-7.58C701.35,467.88,701.66,467.74,701.97,467.59Z" fill="#fff"/>
    <path id="Path_6811" data-name="Path 6811" d="M1011.05,453.74c-.81-.2-1.62-.4-2.64-.65v8.03c-.39.05-.98.12-1.69.21v-8.29c-1.1.35-1.96.62-3.33,1.05.62-.67,1.06-1.53,1.47-1.51,2.14.07,4.46-.58,6.47.32C1011.25,453.18,1011.15,453.46,1011.05,453.74Z" fill="#fff"/>
    <path id="Path_6812" data-name="Path 6812" d="M353.38,485.9q-2.46-5.835-4.92-11.66c.21-.1.42-.2.64-.29,1.48,3.41,2.96,6.82,4.66,10.75,1.7-3.95,3.18-7.39,4.65-10.82.23.1.45.2.68.3q-2.46,5.865-4.92,11.72Z" fill="#fff"/>
    <path id="Path_6813" data-name="Path 6813" d="M695.63,482.25c-.46.69-1.34,1.42-1.34,2.15-.01,1.77-1.11,4.14,2.06,4.72-2.23,1.11-3.27.62-3.44-1.48-.09-1.07.08-2.16-.05-3.22a10.21,10.21,0,0,0-.86-2.22c.39-.78.95-1.86,1.46-2.88C694.28,480.43,695.02,481.43,695.63,482.25Z" fill="#fff"/>
    <path id="Path_6814" data-name="Path 6814" d="M996.77,490.98c.11.61.22,1.25.33,1.88-4.79-3.28-6.66-1.56-6.16,3.59.22,2.3,2.2,2.65,4.23,2.56-1.6,1.26-3.16.64-4.43-.43a4.4,4.4,0,0,1-1.1-5.45C990.63,490.75,992.38,490.24,996.77,490.98Z" fill="#fff"/>
    <path id="Path_6815" data-name="Path 6815" d="M412.52,305.11c5.1-.45,8.56,3,8.04,7.94-.98-1.63-1.7-3.53-3.02-4.82C416.16,306.89,414.21,306.13,412.52,305.11Z" fill="#fff"/>
    <path id="Path_6816" data-name="Path 6816" d="M1054.96,342h-34.31v-.18h34.25C1054.92,341.89,1054.94,341.94,1054.96,342Z" fill="#fff"/>
    <path id="Path_6817" data-name="Path 6817" d="M1006.43,342.04H972.47v-.14h34A.731.731,0,0,1,1006.43,342.04Z" fill="#fff"/>
    <path id="Path_6818" data-name="Path 6818" d="M1014.03,455.01c1.03.53,2.72.88,2.95,1.64.41,1.42.76,3.24-.89,4.54a20.648,20.648,0,0,0-.05-3.34,6.445,6.445,0,0,0-1.05-1.86c-.46.65-1.16,1.25-1.32,1.97a15.765,15.765,0,0,0-.06,3.32c-.43-.1-1.12-.18-1.12-.27-.06-2.85-.05-5.71-.05-8.56l.88-.06c.12,1.06.25,2.11.37,3.17C1013.81,455.37,1013.92,455.19,1014.03,455.01Z" fill="#fff"/>
    <path id="Path_6819" data-name="Path 6819" d="M732.13,482.34c-.4.64-1.29,1.44-1.31,2.25-.05,1.7-1.04,4,2.02,4.49-2.04,1.14-3.11.73-3.32-1.2-.11-.99.09-2.01-.07-2.98a18.431,18.431,0,0,0-.9-2.76c.42-.8.95-1.84,1.5-2.88C730.77,480.34,731.47,481.37,732.13,482.34Z" fill="#fff"/>
    <path id="Path_6820" data-name="Path 6820" d="M1025.87,475.67c1.64,1.18,2.33,7.23,1.49,8.14-.24.26-1.59-.04-1.59-.09C1025.74,481.04,1025.81,478.35,1025.87,475.67Z" fill="#fff"/>
    <path id="Path_6821" data-name="Path 6821" d="M376.7,473.96c.33.41.58.72.74.91,1.2-.45,2.36-.9,3.53-1.34-2.22,1.21-3.79,2.63-3.74,5.36a26.666,26.666,0,0,1-.52,6.7C376.7,481.79,376.7,477.99,376.7,473.96Z" fill="#fff"/>
    <path id="Path_6822" data-name="Path 6822" d="M1022.22,460.97c-1.05.82-2.37.69-3.36-.83-.91-1.4-.23-4.07,1.14-4.62,1.65-.66,2.86-.24,3.36,1.93-1.36.12-2.56.22-3.76.33-.15.21-.31.42-.46.63C1020.16,459.26,1021.19,460.12,1022.22,460.97Z" fill="#fff"/>
    <path id="Path_6823" data-name="Path 6823" d="M1001.18,499.58c.35-1.22,1.02-2.46.95-3.65-.04-.72-1.23-1.38-1.9-2.06-.45.87-1.3,1.76-1.26,2.61.04,1.05.81,2.07,1.27,3.11a6.724,6.724,0,0,1-1.49-.83,3.123,3.123,0,0,1-.09-4.63,2.6,2.6,0,0,1,3.96.09c1.36,1.41,1.23,2.99-.02,4.43A6.114,6.114,0,0,1,1001.18,499.58Z" fill="#fff"/>
    <path id="Path_6824" data-name="Path 6824" d="M715.31,489.66v-8.1c.52.6.86.99,1.18,1.36.78-.37,1.63-.78,2.49-1.19C718.37,483.12,716.35,487.81,715.31,489.66Z" fill="#fff"/>
    <path id="Path_6825" data-name="Path 6825" d="M710.13,475.75v-7.84c.23-.01.46-.01.69-.02v7.81C710.59,475.71,710.36,475.73,710.13,475.75Z" fill="#fff"/>
    <path id="Path_6826" data-name="Path 6826" d="M1018.81,498.91c-.84.31-1.68.62-2.64.97v2.32h-1.37c0-2.49-.03-4.96.03-7.42.01-.4.43-.8.66-1.2.22.37.59.73.62,1.13a10.141,10.141,0,0,1-.16,1.97c-.2,2.07.62,2.82,2.63,2.03A2.2,2.2,0,0,1,1018.81,498.91Z" fill="#fff"/>
    <path id="Path_6827" data-name="Path 6827" d="M729.53,152.67c.98,1.32,1.89,2.02,1.91,2.75.02.6-1.08,1.78-1.57,1.72a2.761,2.761,0,0,1-2-1.61C727.74,154.92,728.67,154.06,729.53,152.67Z" fill="#fff"/>
    <path id="Path_6828" data-name="Path 6828" d="M1032.58,493.46c.46,0,.97-.16,1.22.03,1.65,1.27,2.33,6.13.99,7.73a2.935,2.935,0,0,1-2.23.62C1035.6,500.41,1035.6,500.41,1032.58,493.46Z" fill="#fff"/>
    <path id="Path_6829" data-name="Path 6829" d="M413.07,307.54c3.26.66,4.46,1.91,4.38,5.56a17.967,17.967,0,0,0-1.96-2.85,21.326,21.326,0,0,0-2.96-2.11C412.71,307.95,412.89,307.74,413.07,307.54Z" fill="#fff"/>
    <path id="Path_6830" data-name="Path 6830" d="M1009.84,494.46c1.63-1.54,2.7-1.32,3.17.68a5.333,5.333,0,0,1,.09.98c.01,1.05,0,2.09,0,3.47-2.08-.83-1.11-2.37-1.13-3.35-.04-1.68-.53-2.32-2.19-1.84C1009.78,494.39,1009.84,494.46,1009.84,494.46Z" fill="#fff"/>
    <path id="Path_6831" data-name="Path 6831" d="M680.54,481.92v7.73c-.22,0-.43.01-.65.01v-7.74Z" fill="#fff"/>
    <path id="Path_6832" data-name="Path 6832" d="M1006.23,494.41c1.23-1.86,2.41-.75,3.61.05,0,0-.06-.07-.06-.06-.15,1.6-.31,3.19-.5,5.15-.37-.31-.9-.54-.95-.84a10.566,10.566,0,0,1,0-2.45c.15-1.64-.53-2.27-2.14-1.91Z" fill="#fff"/>
    <path id="Path_6833" data-name="Path 6833" d="M1018.58,498.7c.35-1.9,1.11-3.93-1.82-4.73.14-.23.27-.45.41-.68.8.35,1.91.48,2.35,1.09a3.025,3.025,0,0,1-.72,4.53A2.233,2.233,0,0,0,1018.58,498.7Z" fill="#fff"/>
    <path id="Path_6834" data-name="Path 6834" d="M1023.49,493.31c3.29,1.03.55,4.3,2.05,6-2.38-.02-1.19-1.68-1.4-2.67C1023.91,495.58,1023.72,494.5,1023.49,493.31Z" fill="#fff"/>
    <path id="Path_6835" data-name="Path 6835" d="M1028.92,494.76c.52-.45,1.05-.89,1.57-1.34.41.57,1.12,1.1,1.19,1.71a13.836,13.836,0,0,1-.08,4.31l-.92-.12c0-1.27.04-2.54-.01-3.81-.06-1.31-.68-1.6-1.75-.81Z" fill="#fff"/>
    <path id="Path_6836" data-name="Path 6836" d="M1006.2,494.35c-.13,1.61-.26,3.21-.42,5.29-.44-.48-.94-.77-.96-1.09a30.767,30.767,0,0,1-.06-3.72,4.5,4.5,0,0,1,.38-1.18c.37.25.73.51,1.1.76C1006.23,494.41,1006.2,494.35,1006.2,494.35Z" fill="#fff"/>
    <path id="Path_6837" data-name="Path 6837" d="M1028.91,494.69c-.24,1.47-.49,2.94-.73,4.4-.95-.16-.95-.16-.91-5.92.75.72,1.2,1.14,1.65,1.58C1028.92,494.76,1028.91,494.69,1028.91,494.69Z" fill="#fff"/>
  </g>
</svg>
