<svg xmlns="http://www.w3.org/2000/svg" width="230.142" height="597.535" viewBox="0 0 230.142 597.535">
  <path id="Union_31" data-name="Union 31" d="M-11281.323-7110.465c-4.792,0-8.662-3.223-8.677-7.232-.011-3.984,3.97-7.329,8.694-7.3s8.529,3.269,8.541,7.275c.008,4.038-3.743,7.236-8.51,7.258Zm1.368-10.342a66.635,66.635,0,0,0-4.492,6.546c1.839.689,2.435-.38,3.017-1.436,1.484,1.7,1.484,1.7,3.189,1.481-.463-.7-.9-1.368-1.34-2.032a2.55,2.55,0,0,1,.835-3.368c.192-.113.542-.014.959-.014v5.471h1.884c0-1.881.048-3.686-.031-5.488-.02-.519-.386-1.45-.646-1.464-.506-.028-1.13-.077-1.711-.077A2.423,2.423,0,0,0-11279.955-7120.808Zm-6.523-.179c-.136.014-.317.366-.317.562-.021,2.068-.015,4.14-.015,6.273.667,0,1.212,0,1.978,0v-5.491c1.569-.292,1.24,1.22,2.256,1.487.262-.494.829-1.05.71-1.458-.171-.584-.755-1.4-1.322-1.512a4.924,4.924,0,0,0-.895-.077C-11284.867-7121.205-11285.687-7121.063-11286.479-7120.986Zm167.9,10.178c0-1.106-.015-2.21.014-3.306.006-.176.205-.354.315-.533.105.165.281.326.295.5a4.221,4.221,0,0,1-.076.88c-.094.922.3,1.257,1.254.9.02.015.04.029.06.045-.02-.017-.04-.031-.06-.048.167-.849.53-1.751-.865-2.108.065-.1.128-.2.2-.3.381.156.908.216,1.118.488a1.293,1.293,0,0,1-.341,2.015,0,0,0,0,1,0,0c-.4.136-.8.275-1.26.432v1.033Zm8.47-.159c1.447-.638,1.447-.638.009-3.734.218,0,.462-.071.581.014.786.565,1.112,2.729.472,3.445a1.411,1.411,0,0,1-1.011.275Zm-143.889-.7c-.707-.119-.767-.6-.381-1.22a3.64,3.64,0,0,0,.25-1.671c.025-.415-.222-.985.012-1.215a2.759,2.759,0,0,1,1.54-.576,9.737,9.737,0,0,1,1.861.159c-.715.863-.437,2.542-2.834,2.2.082.11.161.218.244.323a16.308,16.308,0,0,1,1.818.443c.313.116.729.437.724.652,0,.3-.332.812-.593.854a11.82,11.82,0,0,1-1.62.131A6.085,6.085,0,0,1-11254-7111.666Zm.011-.8c.219.193.432.545.65.545a15.983,15.983,0,0,0,2.079-.187c.006-.184.006-.36.012-.544a15.8,15.8,0,0,0-2.006-.344h-.015C-11253.49-7112.994-11253.743-7112.647-11253.984-7112.463Zm1.209-3.5a1.39,1.39,0,0,0-.9.846c-.046.235.479.562.965,1.073.405-.562.843-.9.828-1.229-.017-.25-.607-.695-.856-.695A.1.1,0,0,0-11252.775-7115.967Zm122.728,3.547a1.876,1.876,0,0,1-.522-2.429c.472-1.059,1.306-1.288,3.4-.956.051.27.1.556.156.837-2.284-1.461-3.175-.7-2.937,1.6.1,1.027,1.047,1.183,2.018,1.143a1.474,1.474,0,0,1-.889.313A2.043,2.043,0,0,1-11130.048-7112.42Zm6.713-.014a13.013,13.013,0,0,1-.028-1.657,1.933,1.933,0,0,1,.182-.525c.171.108.335.219.5.327-.06.712-.122,1.421-.2,2.344C-11123.085-7112.162-11123.323-7112.29-11123.335-7112.435Zm3.411-1.027c-.021-.724-.238-1.013-.962-.843.746-.633,1.237-.52,1.458.352a2.5,2.5,0,0,1,.043.437c0,.465,0,.931,0,1.546C-11120.378-7112.341-11119.915-7113.027-11119.924-7113.461Zm-6.3,1.121a1.333,1.333,0,0,1-.043-2.063,1.3,1.3,0,0,1,1.89.04,1.279,1.279,0,0,1-.011,1.975,2.988,2.988,0,0,1-.676.415,5.054,5.054,0,0,0,.451-1.626c-.02-.321-.587-.616-.905-.917-.216.386-.618.783-.6,1.161a4.155,4.155,0,0,0,.607,1.387A3.365,3.365,0,0,1-11126.229-7112.341Zm4.568-.023a4.372,4.372,0,0,1,0-1.089c.07-.718-.241-1-.977-.86.567-.766,1.112-.312,1.666.04-.071.709-.147,1.416-.235,2.284C-11121.383-7112.125-11121.638-7112.228-11121.66-7112.364Zm10.657.272c0-.564.017-1.132-.006-1.7-.025-.525-.267-.681-.687-.454.2-.159.4-.318.6-.477.2.252.533.491.567.761a5.735,5.735,0,0,1-.04,1.921C-11110.714-7112.054-11110.855-7112.074-11111-7112.091Zm-3.118-1.194c-.111-.471-.2-.954-.312-1.481,1.569.457.264,1.916.979,2.673C-11114.59-7112.105-11114.022-7112.843-11114.121-7113.286Zm1.492-1.543c.352.315.564.5.777.695-.113.647-.232,1.3-.346,1.941C-11112.648-7112.264-11112.648-7112.264-11112.629-7114.829Zm-144.944,2.026a1.765,1.765,0,0,1-1.231-2.287,1.61,1.61,0,0,1,1.924-1.283c1.2.094,1.566.766,1.546,1.808h-2.707c.057,1.382.619,1.586,2.6,1.053a1.5,1.5,0,0,1-1.444.794A3.055,3.055,0,0,1-11257.573-7112.8Zm-.6-2.452c.064.074.13.15.192.227h1.782c.094-.094.192-.187.286-.281-.411-.213-.816-.587-1.234-.6h-.011C-11257.482-7115.908-11257.832-7115.485-11258.169-7115.255Zm19.575,2.423a1.71,1.71,0,0,1-1.178-2.205,1.571,1.571,0,0,1,1.745-1.342c1.3-.009,1.665.721,1.827,1.773-.973.034-1.9.071-2.823.108.119,1.328.536,1.478,2.679,1.121a1.793,1.793,0,0,1-1.467.636A3.8,3.8,0,0,1-11238.594-7112.832Zm-.564-2.452c.057.077.116.153.173.227h1.958c.054-.088.1-.176.15-.267-.406-.213-.812-.587-1.224-.6h-.011C-11238.452-7115.919-11238.807-7115.513-11239.158-7115.283Zm-7.948,1.89c-.277-.749.222-1.189,1.024-1.407.517-.142,1.044-.255,1.641-.4-.35-.823-.954-.746-1.638-.667a3.939,3.939,0,0,1-.934.022,2.359,2.359,0,0,1,2.307-.454,1.515,1.515,0,0,1,.854,1.044,12.859,12.859,0,0,1,.037,2.236c-.6.071-1.036.108-1.459.173a5.393,5.393,0,0,1-.831.093A.943.943,0,0,1-11247.106-7113.394Zm.6-.343c.281.17.573.5.832.482.809-.06,1.376-.389,1.013-1.694C-11245.421-7114.449-11245.966-7114.091-11246.508-7113.737Zm-19.569-2.392a12.673,12.673,0,0,0,1.4-.187c1.13-.272,1.763.077,1.8,1.1.034.792,0,1.589,0,2.384-.19.008-.38.017-.573.022-.025-.593-.034-1.189-.076-1.782-.037-.522.218-1.266-.761-1.274a1.133,1.133,0,0,0-1.294,1.331c.048.564.012,1.138.012,1.7-.162.008-.338.022-.517.031Zm23.871,2.494c-.057-.44.048-.894-.034-1.328a7.463,7.463,0,0,0-.471-1.229c.219-.357.5-.82.78-1.282.377.479.74.939,1.084,1.37-.207.287-.67.645-.681,1-.026.757-.542,1.782,1.052,2a2.383,2.383,0,0,1-.973.281C-11241.888-7112.817-11242.135-7113.09-11242.206-7113.635Zm-19.073-.1c-.045-.477.043-.965-.025-1.436a4.229,4.229,0,0,0-.448-.99c.2-.346.5-.829.761-1.283l1.132,1.305c-.241.31-.7.633-.7.959-.006.789-.579,1.844,1.072,2.1a2.633,2.633,0,0,1-.99.258C-11260.97-7112.823-11261.22-7113.13-11261.279-7113.74Zm11.671-2.709c.27.267.448.439.615.6l1.3-.528c-.318.619-1.37,2.707-1.912,3.533Zm-18.452.162h.338v3.442c-.114,0-.225.005-.338.005Zm156.218,2.162v-.023a1.473,1.473,0,0,1,.147-.093c-.049.04-.1.079-.147.119Zm-.009-.009a.045.045,0,0,0,0-.02.1.1,0,0,0,.006.025S-11111.849-7114.131-11111.852-7114.134Zm-9.119-.139a.011.011,0,0,1,0-.009h0c.028-.008.057-.017.082-.022-.018.017-.037.031-.054.048Zm-1.688-.006v0h0Zm-.006-.006s-.009,0-.014-.005a.015.015,0,0,0,0-.009l0-.005.045-.009a.186.186,0,0,1-.022.031,0,0,0,0,1,0,0Zm21.718-2.31a23.934,23.934,0,0,1,.767-3.953,9.054,9.054,0,0,1,1.254-2.048c.125.057.247.113.377.176-.343.715-.687,1.43-1.092,2.273.715-.625,1.254-1.164,1.872-1.6a1.3,1.3,0,0,1,1.042-.227,1.256,1.256,0,0,1,.5.917,2.411,2.411,0,0,1-1.816,2.465c-1.263.125-1.379.922-1.648,1.7-.192.553-.3,1.138-.448,1.7-.164.031-.326.068-.488.1A4.769,4.769,0,0,1-11100.947-7116.594Zm2.5-3.076c.142.108.28.216.423.321.477-.556.959-1.112,1.441-1.668-.146-.108-.287-.216-.432-.324C-11097.488-7120.782-11097.968-7120.226-11098.444-7119.67Zm-29.345-.925a5,5,0,0,1-1.334,1.157c-.332.136-.911-.232-1.388-.38,0,.031-.042.272-.1.655-.514-.448-.982-1.152-1.362-1.112-.468.048-.854.721-1.342,1.183-1.081-.369-.022-1.251-.369-1.958-.317.417-.564.769-.837,1.1-1.243,1.549-2.687,1.714-4.333.553a1.443,1.443,0,0,0-.843-.139,1.839,1.839,0,0,1-2.2-1.413c-.548-2.3,1.358-5.6,3.657-6.089-.386.454-.616.744-.862,1.019a6.241,6.241,0,0,0-1.726,4.821c.065.786.463,1.2,1.436.962,0-.885-.025-1.722.012-2.551a1.968,1.968,0,0,1,.3-.834,1.683,1.683,0,0,1,2.012-1.01c.968.324.987,1.246.652,1.986a24.138,24.138,0,0,1-1.665,2.7c.459.057,1.063.32,1.436.147,1.861-.851,2.165-2.531,2.262-4.228.107-1.912-.653-3.2-2.055-3.754,1.118-.173,2.392.769,2.807,2.452a22.888,22.888,0,0,1,.306,3.978c.528-.735,1.13-1.566,1.731-2.395.128-.014.258-.028.386-.037.258.874.514,1.748.758,2.565.335-.774.692-1.6,1.05-2.426.156.031.314.065.465.1-.2.973-.414,1.938-.652,3.079.658-.187,1.121-.315,1.583-.449.077.085.159.167.238.253.06-.3.14-.645.238-1.033-.471-.624-.809-1.072-1.066-1.416.78-.012,1.4.008,2.012-.037.4-.031.84-.3,1.169-.2a.953.953,0,0,1,.395.9c-.11.3-.548.516-.874.735-.107.077-.3.04-.624.077-.08,1.141-.156,2.29-.241,3.461C-11127.8-7118.6-11128.062-7119.128-11127.789-7120.595Zm-10.691-.7c1.157-1.078,1.333-1.98.6-3.067C-11138.109-7123.2-11138.3-7122.249-11138.48-7121.3Zm14.718.729c-.846-.806-.764-1.4.392-1.72,1.43-.4,2.53-.891,2.326-2.633.137.025.275.048.409.077.164.6.32,1.2.481,1.8a24.549,24.549,0,0,1,2.795.741,1.235,1.235,0,0,1,.6,1.041c-.031.287-.568.522-.883.78-.085-.071-.173-.147-.253-.218.1-.2.2-.392.392-.772-.9-.176-1.75-.343-2.849-.562,0,.874-.031,1.6.025,2.31a.707.707,0,0,0,.52.448,16.2,16.2,0,0,0,3.484-.434,1.756,1.756,0,0,0,.993-2.747,4.934,4.934,0,0,0-1.093-1.3,11.34,11.34,0,0,0-7.437-2.795c-.377,0-1.288-.511-1.184.556-.309-.042-.618-.088-.934-.133-.028-.142-.062-.272-.1-.4a5.412,5.412,0,0,1,1.574-.667,10.973,10.973,0,0,1,9.849,3.893c1.822,2.2.344,4.625-2.865,4.963a7.915,7.915,0,0,1-1,.02c-.219,0-.439-.008-.658,0-.6.023-1.206.077-1.864.117C-11121.865-7118.915-11122.853-7119.7-11123.763-7120.569Zm-.143-.945c-.02.13-.045.255-.062.383.732.485,1.468.962,2.483,1.632v-2.5Zm20.43,2.977c-.609-.485-.411-1.89.454-2.837-.182-.227-.374-.468-.545-.687.435-.687,2.846-.491,3.447.338-.715.122-1.373.227-2.354.389.709.275,1.129.437,1.549.6-.014.08-.022.159-.039.244-.622.162-1.252.326-1.876.485.022.139.043.278.065.415h2.216a3.558,3.558,0,0,1-2.284,1.251A.993.993,0,0,1-11103.476-7118.538Zm-3.209-3.9c.559.758,1.093,1.487,1.632,2.219.057-.017.107-.04.167-.057-.179-.914-.357-1.833-.545-2.781,1.325.494,1.927,3.227.9,3.956a1.057,1.057,0,0,1-.959-.17,10.856,10.856,0,0,1-1.081-1.606c-.158.854-.272,1.5-.425,2.33A2.9,2.9,0,0,1-11106.685-7122.437Zm-4.52,3.28c-.764-.36-1.011-.945-.216-1.419-.193-.383-.591-.792-.508-1.1a1.5,1.5,0,0,1,.947-.82,4.718,4.718,0,0,1,3.237.1c.006.113.009.221.015.329-1.05.113-2.1.235-3.146.352,0,.074-.006.145-.006.222.521.071,1.035.147,1.555.213.774.1,1.388.343,1.394,1.208,0,.843-.588,1.226-1.354,1.243-.052,0-.105,0-.156,0A4.257,4.257,0,0,1-11111.2-7119.156Zm-145.848.06c1.479-1.121,1.711-2.245,0-3.376.168-.071.329-.133.491-.2.442.4.88.8,1.376,1.243.42-.394.854-.806,1.285-1.214.116.071.23.142.344.207-.4.52-.8,1.036-1.234,1.6.448.559.905,1.138,1.37,1.711-.082.077-.173.153-.255.224-.522-.437-1.036-.879-1.552-1.311-.46.437-.923.88-1.388,1.322C-11256.756-7118.958-11256.9-7119.029-11257.052-7119.1Zm143.708.057c-.015-1.194.017-2.4.045-3.586.783.525,1.112,3.22.713,3.626a.329.329,0,0,1-.21.045A1.9,1.9,0,0,1-11113.344-7119.04Zm-147.788-.573c-.241-.7.193-1.135.931-1.359.522-.156,1.07-.252,1.606-.377-.2-.647-.2-.647-2.219-.746-.012-.1-.028-.2-.037-.307a8.643,8.643,0,0,1,2.307-.048c.344.08.6.8.678,1.26a11.064,11.064,0,0,1,.031,1.93c-.641.1-1.114.182-1.594.247a5.446,5.446,0,0,1-.664.057A.96.96,0,0,1-11261.132-7119.613Zm.619-.36c-.046.094.4.508.621.517.891.031,1.5-.281,1.348-1.234a3.2,3.2,0,0,0-.655-.077A1.323,1.323,0,0,0-11260.513-7119.974Zm-5.073.945a9.422,9.422,0,0,0-.031-1.873c-.091-.423-.479-1.135-.741-1.135-.78,0-1.333.414-1.251,1.229a16.616,16.616,0,0,1,.012,1.765c-.162-.005-.327-.005-.488-.008v-3.4c.317.063.675.238.874.153a2.021,2.021,0,0,1,2.167.045c.146.1.6-.136.905-.23,1.136-.34,1.788,0,1.845,1.013.043.806.012,1.62.012,2.432-.193.005-.381.005-.573.008l-.094-1.83c-.025-.536.161-1.28-.823-1.217a1.113,1.113,0,0,0-1.172,1.328,14.05,14.05,0,0,1,.015,1.733C-11265.149-7119.015-11265.368-7119.026-11265.586-7119.029Zm17.89,0c-.037-.573-.043-1.149-.11-1.722-.065-.528.329-1.368-.786-1.333-.948.031-1.209.669-1.141,1.444a10.184,10.184,0,0,1-.1,1.6c-.167,0-.332-.014-.494-.026v-3.28c.457-.054.948-.108,1.437-.159.255-.031.573-.162.752-.077a3.2,3.2,0,0,0,2.36.031c.323-.091,1.166.3,1.2.522a21.552,21.552,0,0,1,.057,2.974c-.176.005-.354.011-.53.014-.025-.6-.043-1.206-.088-1.808-.043-.514.219-1.274-.783-1.234a1.093,1.093,0,0,0-1.16,1.317,11.5,11.5,0,0,1-.08,1.733Zm-4.611-3.5c.119-.005.241-.005.36-.011v3.481c-.119,0-.241.012-.36.023Zm138.754-3.155a2.574,2.574,0,0,1,2.874-.165c.633.341.724.718.349,1.263a2.977,2.977,0,0,1-2.46,1.328c-.343.011-.684.031-1.092.048C-11114.4-7124.139-11114.569-7124.99-11113.554-7125.685Zm.618,1.365c.054.1.105.2.159.306.947.077,1.711-.127,2.006-1.047-.076-.116-.147-.235-.224-.352C-11111.645-7125.047-11112.291-7124.681-11112.936-7124.32Zm-3.7-5.227a1.529,1.529,0,0,1,.542-2.057c.786-.3,1.365-.108,1.6.859-.649.051-1.223.1-1.793.145-.071.094-.147.187-.219.281.485.38.977.763,1.467,1.141a1.084,1.084,0,0,1-.636.224A1.2,1.2,0,0,1-11116.639-7129.547Zm-5.788-3.164c-.524.156-.937.278-1.589.468.295-.3.5-.681.7-.672.323.008.655-.014.99-.034a4.563,4.563,0,0,1,2.094.176c-.037.125-.085.25-.134.375-.386-.088-.771-.179-1.257-.29v3.578l-.806.093Zm2.75,3.553c-.028-1.271-.023-2.545-.023-3.813.137-.012.281-.02.42-.028.058.471.119.939.177,1.413.057-.085.107-.165.161-.244.491.235,1.3.392,1.407.729a1.648,1.648,0,0,1-.426,2.023,8.7,8.7,0,0,0-.022-1.489,2.874,2.874,0,0,0-.5-.829c-.219.29-.554.559-.63.879a6.694,6.694,0,0,0-.028,1.479A2.379,2.379,0,0,1-11119.677-7129.158Zm-156.584-63.192a2.389,2.389,0,0,1-2.557-2.3c-.051-1.368-.054-2.747.006-4.114a2.366,2.366,0,0,1,2.616-2.208c1.311-.023,2.624-.011,3.941-.011,1.273,0,2.542-.012,3.818.005,1.635.023,2.61.843,2.65,2.267.04,1.374.046,2.744,0,4.114a2.305,2.305,0,0,1-2.463,2.239q-2.039.051-4.08.051Q-11274.294-7192.308-11276.261-7192.351Zm.222-2.168h7.516v-4.364h-7.516Zm18.454.627a34.548,34.548,0,0,0-3.723-3.033,40.19,40.19,0,0,1,5.063-3.779c.959-.52,2.488-.23,3.845-.062-1.7,1.249-3.4,2.5-5.232,3.836,2,1.467,3.915,2.871,6.021,4.412-.712.04-1.393.088-2.043.088A4.876,4.876,0,0,1-11257.585-7193.892Zm-27.1,1.408a2.059,2.059,0,0,1-1.157-.715c-1.7-1.8-3.359-3.618-5.036-5.431-.015-.02-.071,0-.244,0v6.1H-11294v-8.421c1.643,0,3.157-.043,4.664.031a1.916,1.916,0,0,1,1.07.653c1.69,1.8,3.337,3.629,5.218,5.695v-6.319h2.987v4.179c-.011,1.362-.011,2.727-.011,4.268-.9,0-1.754.017-2.582.017C-11283.343-7192.43-11284.016-7192.441-11284.686-7192.484Zm49.5,0a1.138,1.138,0,0,1-.809-.542c-.357-.8-.984-.985-1.893-.931-1.016.062-2.034.034-3.056.008-1.044-.031-2.06-.1-2.375,1.1-.045.176-.514.352-.8.372-.846.048-1.694.017-2.727.017,1.747-2.787,3.354-5.389,5.024-7.959a1.643,1.643,0,0,1,1.1-.52c3.075-.156,3.075-.139,4.548,2.213,1.274,2.037,2.557,4.069,3.938,6.265-.624,0-1.186.014-1.717.014C-11234.378-7192.441-11234.786-7192.45-11235.189-7192.484Zm-6.437-3.221h4.168c-.774-1.172-1.422-2.151-2.182-3.292C-11240.379-7197.776-11240.966-7196.8-11241.627-7195.7Zm-22.757,3.178v-8.381h2.841v8.381Zm13.808-.022v-8.311h2.865v8.311Zm131.37-3.243c-.173-.045-.284-.343-.426-.522.216-.04.463-.167.645-.111,1.345.44,1.717.21,1.736-1.229.028-1.927.031-3.856-.012-5.78a4.11,4.11,0,0,0-.423-1.209h1.691a4.6,4.6,0,0,0-.383,1.192c-.049,1.407.054,2.82-.049,4.219a8.149,8.149,0,0,1-.618,2.551,1.535,1.535,0,0,1-1.513.97A2.765,2.765,0,0,1-11119.206-7195.792Zm-17.794-.307v-.062h15.149c-.006.023-.012.04-.02.063Zm21.466-.02v-.08h15.26c.008.031.017.054.025.08Zm-19.395-1.714c1.359-1.007,1.314-1.765-.133-2.741a14.112,14.112,0,0,1-1.9-1.336,1.355,1.355,0,0,1,.576-2.415,6.558,6.558,0,0,1,2.392.125c.2.034.335.539.491.82a8.842,8.842,0,0,0-1.944-.874,1.36,1.36,0,0,0-1.143.61,1.373,1.373,0,0,0,.354,1.226c.715.633,1.657,1.021,2.3,1.7a2.306,2.306,0,0,1,.548,1.821c-.131.514-.874.869-1.348,1.3C-11134.792-7197.668-11134.863-7197.753-11134.929-7197.833Zm28.5-2.375a14.715,14.715,0,0,1-1.632-1.138c-.755-.684-.676-1.251.281-1.981-.432.9.06,1.411.7,1.853a7.824,7.824,0,0,1,1.538,1.061,2.071,2.071,0,0,1,.615,1.5c-.124.5-.763.879-1.282,1.2C-11105.144-7198.752-11105.175-7199.354-11106.432-7200.208Zm-19.641-2.554c-.119.077-.236.153-.355.227.143,1.561-.32,3.155.324,4.7h-2.914c.363-.383.153-2.2-.423-2.378a2.772,2.772,0,0,0-2.046.1,1.734,1.734,0,0,0-.235,2.281h-1.144c.774-1.93,1.546-3.868,2.432-6.086a5.954,5.954,0,0,1,.743,1.016c.53,1.26.977,2.557,1.535,3.808a5.6,5.6,0,0,0,.908,1.138,5.35,5.35,0,0,0,.462-1.345,29.87,29.87,0,0,0,.009-3.116,8.007,8.007,0,0,0-.31-1.311,6.928,6.928,0,0,1,1.575.868c1.271,1.226,2.454,2.537,3.822,3.726.045-1.509.459-2.971-.114-4.367h.792v5.632c-.1.031-.2.068-.312.1Q-11123.693-7200.265-11126.072-7202.761Zm-5.213,1.986h1.7c-.283-.744-.524-1.362-.859-2.236C-11130.777-7202.123-11131.013-7201.5-11131.285-7200.775Zm26.859,2.974c.922-.607,1.09-4.687.219-5.763a10.779,10.779,0,0,0,1.449.037,5,5,0,0,1,2.625.406,9.716,9.716,0,0,0-2.673.094c-.238.071-.147,1.274-.228,2.213.982-.116,1.788-.21,2.6-.3v.738c-.777-.113-1.578-.232-2.738-.4.238,1.076.207,2.344.621,2.514a2.209,2.209,0,0,0,2.728-.429c.067.843.07.874-.67.888-.548.011-1.1.014-1.648.014C-11102.888-7197.8-11103.643-7197.8-11104.426-7197.8Zm-11.268-2.242a2.863,2.863,0,0,1,1.946-3.229,3.2,3.2,0,0,0-1.115,2.979,3.031,3.031,0,0,0,2.007,2.437A2.839,2.839,0,0,1-11115.693-7200.043Zm5.816-1.569a2.73,2.73,0,0,0-2.689-1.907,3.126,3.126,0,0,1,3.547,1.884c.468,1.328-.108,2.656-1.733,3.547A3.379,3.379,0,0,0-11109.877-7201.612Zm-11.758-4.032a10.105,10.105,0,0,1,2.6-5.507,9.817,9.817,0,0,1,5.343-2.721,8.878,8.878,0,0,1,7.04,1.821,8.444,8.444,0,0,1,3.434,6.37h-4.055c-.031-.062-.062-.122-.094-.182l3.249-.987c-1.322-.1-2.6-1.223-3.837.15-.045-.142-.085-.287-.13-.431q1.5-1.132,2.99-2.256c-.04-.077-.076-.15-.116-.232-1.112.3-2.228.6-3.416.922a8.944,8.944,0,0,1,.633-1.356,10.916,10.916,0,0,1,1.112-1.246c-.1-.1-.2-.212-.3-.32q-1.485,1.11-2.974,2.219c.224-1.027.482-2.222.74-3.417-.758,1.056-2.355,1.507-1.881,3.229-.128-.034-.259-.074-.387-.11q-.28-1.8-.567-3.6c-.1.014-.2.025-.306.04-.272,1.149-.539,2.3-.814,3.467-.514-.914-1.109-1.983-1.708-3.05.093,1.263-.877,2.653.816,3.57-.153.077-.3.147-.459.224q-1.431-1.256-2.857-2.514c-.085.06-.168.116-.25.176l1.762,3.184c-1.061-.428-2.278-.917-3.492-1.407-.049.085-.1.17-.153.258.944.826,1.881,1.64,2.849,2.485-1.172-.085-2.443-.179-4-.289l2.361,1.515Zm-124.351-74.2h1.154v12.067c-.365.028-.718.054-1.154.085Zm-20.966,4.642a5.636,5.636,0,0,1,5.894-4.594v.894a17.03,17.03,0,0,0-2.8,1.186,4.559,4.559,0,0,0-2.125,4.041c.008,1.921,0,3.842,0,5.876-.392.031-.732.06-1.033.082A62.51,62.51,0,0,1-11266.951-7275.2Zm-7.891,7.422a6.151,6.151,0,0,1-6.157-6.052,6.189,6.189,0,0,1,6.265-6.066,6.173,6.173,0,0,1,6.144,6.064,6.124,6.124,0,0,1-6.209,6.055Zm-4.866-6.043a4.861,4.861,0,0,0,4.923,4.829,4.888,4.888,0,0,0,4.9-4.752,4.857,4.857,0,0,0-4.878-4.877h-.034A4.846,4.846,0,0,0-11279.708-7273.825Zm26.03,6.038a5.938,5.938,0,0,1-6.095-5.477c-.187-3.385-.046-6.792-.046-10.3h1.237v5.939c1.791-1.751,3.691-2.585,5.981-2.165a6.04,6.04,0,0,1,5.11,6.39,6.1,6.1,0,0,1-6.095,5.612Zm-4.9-6.069a4.871,4.871,0,0,0,4.906,4.852,4.885,4.885,0,0,0,4.932-4.83,4.882,4.882,0,0,0-4.86-4.79h-.034A4.858,4.858,0,0,0-11258.581-7273.856Zm125.239-3.893c-.366.241-.732.477-1.1.718-.062-.071-.125-.142-.187-.215.281-.343.557-.684.892-1.1-.105-.13-.369-.324-.338-.434.313-1.144-.545-1.853-.928-2.752a2.382,2.382,0,0,1-.11-2.361c.295-.5.017-1.112-.656-1.413-1.705-.771-1.393-.837-1.671-2.559-.227-1.41.868-2.353.684-3.644-.036-.25.52-.667.88-.874a7.83,7.83,0,0,1,1.391-.494c-.071-1.336.655-3.084,1.577-3.209a8.6,8.6,0,0,1,2.673.5c-.011.1-.022.2-.034.312.074-.074.213-.145.222-.224.113-1.007.264-1.8,1.671-1.39,1.944.564,2.233,1.039,2.245,2.525a10.5,10.5,0,0,1-.247,3.671c-.287.812-.639,1.6-.945,2.4-.06.153-.116.4-.036.5,1.436,1.773.468,3.749.49,5.635a12.229,12.229,0,0,0,.119,2.852,2.278,2.278,0,0,1-2.264,2.849,1.6,1.6,0,0,0-.636-.042,5.767,5.767,0,0,1-1.848.474C-11132.287-7276.029-11132.715-7276.538-11133.342-7277.749Zm15.032,1.5v-5.414c.667-.25.877.025.865.707-.022,1.28-.006,2.559-.006,3.9h2.509c.06.7,0,.942-1.093.942C-11116.539-7276.117-11117.269-7276.171-11118.31-7276.251Zm6.242.119c-1.2-.031-1.787-.539-1.858-1.739-.065-1.106-.071-2.222-.031-3.337.009-.25.329-.485.508-.723.153.079.3.15.445.227v3.2c0,.766.134,1.47,1.1,1.479,1,.008,1.044-.775,1.066-1.5.026-.852-.022-1.706.031-2.557.018-.244.275-.477.426-.718.171.218.477.431.482.661a29.606,29.606,0,0,1-.022,3.331c-.091,1.206-.689,1.674-2,1.674Zm3.5-.06v-5.527h3.544c.1.792.1.792-.914.8h-1.688v1.271a4.152,4.152,0,0,1,.868.1,1.316,1.316,0,0,0,.639-.014c.414-.071.828-.145,1.056.468-.585.142-1.163.295-1.751.42a6.083,6.083,0,0,1-.809.063v1.518h2.688c.076.1.153.2.227.3-.222.207-.437.57-.673.584-.465.031-.933.04-1.41.04C-11107.359-7276.177-11107.947-7276.191-11108.562-7276.191Zm-12.825,0c-.732-.017-1.462-.006-2.259-.006v-5.6c.746,0,1.51-.031,2.267,0,1.688.093,2.151,1.086,1.138,2.616a1.584,1.584,0,0,1,.685,2.046,1.594,1.594,0,0,1-1.688.942Zm-1.3-.7c.806-.224,1.479-.38,2.116-.619a1.154,1.154,0,0,0-.031-.763c-.649-.221-1.333-.346-2.085-.525Zm-.028-2.44c.78-.25,1.4-.428,2-.664a.853.853,0,0,0-.022-.57c-.61-.2-1.243-.332-1.975-.511Zm-122.611-2.678a1.227,1.227,0,0,1-.891-.718c-.06-.272.354-.656.737-1.274.437.587.843.9.852,1.226a1.069,1.069,0,0,1-.682.766Zm129.023-1.907c-.252-.758-.8-.647-1.342-.647s-1.1-.116-1.331.661c-.094.315-.553.516-.846.769-.1-.094-.207-.2-.312-.3.581-1.634,1.144-3.274,1.762-4.892a.95.95,0,0,1,.684-.516.917.917,0,0,1,.707.462c.661,1.64,1.257,3.3,1.878,4.959-.091.091-.185.19-.272.284C-11115.693-7283.39-11116.187-7283.591-11116.3-7283.915Zm-1.492-3.408c-.182.57-.366,1.144-.619,1.924.594-.031,1-.048,1.524-.077-.264-.735-.469-1.3-.67-1.853C-11117.637-7287.328-11117.714-7287.322-11117.793-7287.322Zm10.967,4.174c-1.563,0-2.457-1.047-2.457-2.883,0-1.881.865-2.92,2.437-2.923s2.518,1.081,2.528,2.883-.925,2.909-2.479,2.923Zm-1.49-2.92c0,1.211.67,2.083,1.563,2.029.843-.051,1.422-.888,1.413-2.06-.008-1.226-.55-1.929-1.476-1.929h-.017C-11107.74-7288.021-11108.316-7287.263-11108.316-7286.068Zm-6.007,2.29c-.057-1.66-.036-3.323-.036-4.974.8-.051.8-.051,1.013,2.034h2.08a13.43,13.43,0,0,1,.022-1.623c.028-.19.329-.346.508-.519.145.167.411.338.411.508.031,1.518.031,3.042,0,4.563-.006.173-.272.338-.414.511-.176-.179-.477-.337-.5-.53a16.433,16.433,0,0,1-.023-1.853h-2.134v2.278c-.1.071-.2.145-.3.219C-11113.911-7283.373-11114.317-7283.568-11114.323-7283.778Zm10.992.522v-5.573h3.578c.049.832.049.832-.865.843-.551,0-1.1,0-1.72,0v1.22c.871.127,1.672.244,2.475.392a3.163,3.163,0,0,1,0,.587h-2.449v1.64c.735,0,1.434-.04,2.129.023.24.022.456.3.681.468-.213.133-.423.375-.645.383-.485.02-.973.023-1.47.023C-11102.17-7283.25-11102.737-7283.256-11103.331-7283.256Zm-19.067-.718c.018-1.289,0-2.574,0-3.947a7.059,7.059,0,0,1-1.157-.1.564.564,0,0,1-.357-.414.56.56,0,0,1,.352-.412c1.109-.034,2.219-.042,3.325.012.137.011.253.439.445.8-.709.048-1.109.074-1.631.1v4.537a1.739,1.739,0,0,1-.52.1C-11122.262-7283.293-11122.407-7283.495-11122.4-7283.974Zm-.167-6.861c-.057-1.663-.031-3.323-.031-4.977.922-.074.922-.074,1.044,2.165,1.215-.556,1.385-2.579,3.385-2.228a19.472,19.472,0,0,1-1.339,1.529.879.879,0,0,0-.113,1.336c.545.823,1.021,1.7,1.595,2.673-2.08.275-1.723-1.8-3-2.607-.28.857-.55,1.663-.891,2.71C-11122.111-7290.407-11122.555-7290.611-11122.565-7290.835Zm10.187.547c-.031-.386-.068-.636-.068-.885,0-1.541,0-3.087,0-4.608,2.321-.437,3.675-.21,3.757.7h-2.692v1.217a1.641,1.641,0,0,0,1.095.2,1.6,1.6,0,0,1,1.751.82h-2.854v1.68c.763,0,1.492-.031,2.222.02.219.011.42.258.624.4-.2.15-.395.425-.6.434-.52.022-1.041.028-1.577.028S-11111.8-7290.288-11112.379-7290.288Zm4.852-.587c-.037-1.626-.022-3.257-.022-4.968a21.175,21.175,0,0,1,2.795.028c.885.119,1.129.86,1.112,1.674a1.517,1.517,0,0,1-1.345,1.643,13.09,13.09,0,0,1-1.587.091,10.79,10.79,0,0,1-.022,1.541c-.031.21-.3.383-.468.57C-11107.224-7290.486-11107.524-7290.679-11107.527-7290.875Zm1.047-2.267a10.2,10.2,0,0,0,1.666-.655.959.959,0,0,0-.034-.852,9.372,9.372,0,0,0-1.632-.564Zm-10.726,2.815c-.031-.321-.07-.539-.073-.758-.006-1.555-.006-3.11-.006-4.647,1.881-.539,3.618-.275,3.7.655h-2.7c-.021.477-.04.829-.052,1.141a1.5,1.5,0,0,0,1.141.272,1.5,1.5,0,0,1,1.675.837h-2.753v1.5a2.115,2.115,0,0,0,1.325.15c.585-.054,1.169-.1,1.561.369-.057.159-.11.32-.17.479Zm-172.431-61.572a23.958,23.958,0,0,1-.039-3.442c.033-.922.689-1.271,1.6-.843a28.07,28.07,0,0,1,3.32,1.753c.335.216.335.84.485,1.277a4.336,4.336,0,0,1-1.516.207,9.261,9.261,0,0,1-1.884-.9,7.182,7.182,0,0,1-.04,1.915c-.125.406-.63.712-.965,1.064C-11289.013-7351.213-11289.594-7351.528-11289.637-7351.9Zm-3.964.074a8.462,8.462,0,0,1-.045-2.06,11.422,11.422,0,0,1-2.071.993,3.676,3.676,0,0,1-1.394-.252c.11-.42.065-1.036.36-1.223a30.778,30.778,0,0,1,3.524-1.847c.819-.38,1.529-.02,1.574.8a23.373,23.373,0,0,1-.031,3.651c-.028.321-.655.6-1,.891C-11293-7351.185-11293.507-7351.462-11293.6-7351.826Zm45.791-4.347c-.318-1.691-.015-6.986.612-7.635v8.368C-11247.543-7355.846-11247.778-7355.994-11247.81-7356.173Zm7.022-.244c-1.958,1.044-3.374.97-4.461-.2a2.77,2.77,0,0,1,.094-3.785c1.118-1.121,2.543-1.158,4.364-.088.1-.258.2-.514.289-.732.6-.04.716,4.3.131,5.754C-11240.574-7355.935-11240.677-7356.173-11240.787-7356.417Zm-4.523-2.009a2.318,2.318,0,0,0,2.33,2.174,2.361,2.361,0,0,0,2.315-2.2,2.348,2.348,0,0,0-2.284-2.228h-.051A2.3,2.3,0,0,0-11245.311-7358.426Zm-11.977-.343c-.567,1.132-1.069,2.123-1.563,3.107l-.395.026q-1.124-2.72-2.244-5.439c.185-.068.369-.133.548-.2.627,1.444,1.245,2.892,1.921,4.455.559-1.11,1.056-2.094,1.555-3.082.125-.009.256-.02.381-.023.474.985.947,1.969,1.518,3.152.687-1.62,1.3-3.059,1.955-4.622.445.715-.874,4.375-2.055,5.911C-11256.226-7356.615-11256.717-7357.62-11257.287-7358.769Zm18.772,3.07v-7.851c.125,0,.247-.015.372-.017v5.241c.107.025.21.051.317.082q1.852-1.6,3.709-3.192l.442.4c-.828.741-1.657,1.484-2.548,2.273.854.976,1.68,1.915,2.5,2.854-.116.093-.227.187-.34.281-1.106-.61-1.654-1.759-2.619-2.522-1.4.357-1.3,1.543-1.481,2.571C-11238.276-7355.622-11238.4-7355.659-11238.515-7355.7Zm8.251.057a2.971,2.971,0,0,1-3.063-2.789,2.974,2.974,0,0,1,3-2.854,2.855,2.855,0,0,1,3.013,2.874h-5.167a1.932,1.932,0,0,0,2.049,2.111,12.548,12.548,0,0,0,2.854-.976c-.073.914-1.141,1.637-2.557,1.637C-11230.178-7355.639-11230.221-7355.639-11230.264-7355.642Zm-2.3-3.34h4.557a2.256,2.256,0,0,0-2.235-1.677h-.088A2.254,2.254,0,0,0-11232.562-7358.982Zm-32.491,3.329a2.9,2.9,0,0,1-2.945-2.755,2.933,2.933,0,0,1,2.939-2.886,2.952,2.952,0,0,1,3.008,2.829,2.9,2.9,0,0,1-2.96,2.812Zm-2.287-2.818a2.317,2.317,0,0,0,2.395,2.219,2.369,2.369,0,0,0,2.239-2.267,2.35,2.35,0,0,0-2.327-2.163h-.025A2.311,2.311,0,0,0-11267.34-7358.471Zm-12.264,1.825a8.792,8.792,0,0,0,2.1.352c.472-.031.9-.511,1.345-.786a4.946,4.946,0,0,0-.99-.962c-.439-.25-1.089-.233-1.489-.508-.471-.329-1.064-.866-1.05-1.291.017-.443.6-1.03,1.115-1.263a2.113,2.113,0,0,1,2.783.9,10.614,10.614,0,0,0-2.173-.423c-.355.006-.7.5-1.056.772a3.672,3.672,0,0,0,.819.729,14.748,14.748,0,0,1,1.825.672,2,2,0,0,1,.944,1.277c.025.882-.715,1.371-1.683,1.487a4.623,4.623,0,0,1-.556.037A2.088,2.088,0,0,1-11279.6-7356.646Zm9.9.372c-.023-.851.02-1.705-.021-2.557a1.83,1.83,0,0,0-1.893-1.83,1.871,1.871,0,0,0-1.946,1.808c-.048.741,0,1.484-.02,2.225a8.237,8.237,0,0,1-.108.9c-.107-.009-.21-.017-.317-.023.012-1.807.012-3.623.012-5.2a8.179,8.179,0,0,0,1.41-.159c1.41-.437,3.059.091,3.308,1.368a11.527,11.527,0,0,1-.176,4.063A1.948,1.948,0,0,1-11269.7-7356.275Zm18.729-4.239-1.234-.437c.006-.082.015-.17.025-.255.326-.088.655-.179.971-.261.25-2,.715-2.4,2.443-1.89-.576.218-1.118.281-1.368.556a3.358,3.358,0,0,0-.405,1.274c.493.13.859.224,1.58.406l-1.611.635v4.784l-.4,0Zm-32.86,4.673a28.9,28.9,0,0,1-3.444-1.756c-.849-.494-.829-1.194.034-1.688a27.689,27.689,0,0,1,3.339-1.7c.392-.156,1,.133,1.51.215-.159.443-.187.99-.514,1.294a9.532,9.532,0,0,1-1.9,1.05,9.586,9.586,0,0,1,1.936,1.061c.314.29.31.86.451,1.3a8.689,8.689,0,0,1-1.175.261A.6.6,0,0,1-11283.834-7355.841Zm-15.166-.278c.176-.432.229-.976.562-1.277a9.476,9.476,0,0,1,1.848-1.03,9.818,9.818,0,0,1-1.89-1.055c-.318-.3-.344-.852-.5-1.289.475-.1,1.056-.4,1.405-.255a29.516,29.516,0,0,1,3.453,1.765c.845.491.825,1.194-.034,1.688a27.411,27.411,0,0,1-3.343,1.711.609.609,0,0,1-.241.043A8.243,8.243,0,0,1-11299-7356.119Zm8.229-.707c-.636-.023-1.776-1.087-1.705-1.592a2.513,2.513,0,0,1,1.815-1.64c.633-.04,1.359.937,2.313,1.671-.984.681-1.711,1.561-2.395,1.561Zm167.454-4.892a4.556,4.556,0,0,1,2.432-5.831,5.147,5.147,0,0,1,6.558,1.952c-.77.289-1.45.547-2.114.792-1.251-1.319-2.262-1.626-3.334-1.042a3.015,3.015,0,0,0-1.24,3.337,2.574,2.574,0,0,0,2.574,2.018,1.725,1.725,0,0,0,1.79-1.578c-.307-.025-.607-.057-.905-.08-.27-.022-.536-.037-.885-.057v-1.515h4.536a4.178,4.178,0,0,1-3.311,4.812,7.05,7.05,0,0,1-1.438.153A4.69,4.69,0,0,1-11123.317-7361.717Zm34.613,1.11a8.241,8.241,0,0,0-1.427-1.706v3.172h-2.454v-8.351c1.784,0,3.516-.116,5.215.04a2.154,2.154,0,0,1,1.924,2.083c.156,1.234-.408,2.048-2.043,2.869.9,1.126,1.728,2.17,2.6,3.26a10.439,10.439,0,0,1-1.736.229C-11087.543-7359.01-11087.9-7359.421-11088.7-7360.607Zm-1.4-2.931a9.8,9.8,0,0,0,2.04-.789,1.161,1.161,0,0,0,.031-1.149,10.238,10.238,0,0,0-2.071-.8Zm-5.891,4.438c-.366-.085-.871-.352-.965-.641a1.178,1.178,0,0,0-1.436-.945,6.983,6.983,0,0,1-.846.011,7.253,7.253,0,0,0-.9.02c-.255.028-.675.227-.715.4-.255,1.283-1.053,1.234-1.946,1.189a5.259,5.259,0,0,0-.948.006c.658-1.737,1.249-3.3,1.848-4.852.292-.766.59-1.527.885-2.293a2.261,2.261,0,0,1,3.107-1.41.974.974,0,0,1,.508.522c.891,2.256,1.759,4.515,2.63,6.776.137.355.244.707.426,1.246-.395,0-.74.028-1.056.028A2.5,2.5,0,0,1-11096-7359.1Zm-4.187-3.217h2.289c-.357-1.047-.681-2-1.007-2.943h-.261C-11099.489-7364.313-11099.818-7363.366-11100.184-7362.318Zm-46.3,1.926a41.592,41.592,0,0,0-2.942-3.836c-.076.022-.159.045-.244.065v5.014H-11152v-8.381c1.5-.346,2.664-.142,3.535,1.271.823,1.328,1.9,2.5,3.084,4.023v-5.34h2.3v8.413a6.045,6.045,0,0,1-1.09.117A2.5,2.5,0,0,1-11146.482-7360.392Zm38.155,1.319h-2.979v-8.5h5.8v1.742h-3.442v1.515c1.078-.005,2.14-.005,3.329-.005v1.833h-3.314v1.6h3.428v1.816Zm-21.253-.051v-6.674h-2.406v-1.745c2.321-.005,4.662-.005,7.146-.005v1.657c-.732.031-1.45.063-2.318.1v6.665Zm-10.229-.04v-8.433h5.825v1.753h-3.437v1.524h3.312v1.827h-3.3v1.6h3.428v1.725Zm-149.859-2.255a29.531,29.531,0,0,1,.025-3.672c.026-.318.61-.882.829-.843a1.519,1.519,0,0,1,1.069.789,8.141,8.141,0,0,1,.057,2.142,10.861,10.861,0,0,1,2.035-.965c.4-.1.925.176,1.393.284-.13.415-.113,1.016-.42,1.209a28.449,28.449,0,0,1-3.544,1.861,1.47,1.47,0,0,1-.593.142C-11289.315-7360.471-11289.643-7360.826-11289.668-7361.419Zm-3.629.757a28.973,28.973,0,0,1-3.309-1.75c-.34-.224-.36-.834-.53-1.271a4.056,4.056,0,0,1,1.5-.25,10.546,10.546,0,0,1,1.983.959,8.8,8.8,0,0,1,.04-2.023c.1-.375.564-.672.868-1,.371.315,1.021.6,1.061.953a21.046,21.046,0,0,1,.037,3.544.962.962,0,0,1-.979,1A1.608,1.608,0,0,1-11293.3-7360.662Zm135.816-79.164c3.158-.829,6.367-1.317,9.256-2.525,2.841-1.189,5.365-3.11,7.937-4.648q-5.26,8.227-10.882,17.022C-11153.372-7433.413-11155.491-7436.716-11157.48-7439.826Zm62.86,8.736c-.039.088-.079.176-.122.264C-11094.7-7430.914-11094.662-7431-11094.62-7431.089Zm-1.407-7.777c-.3-.7-.562-1.413-.84-2.125.131-.057.259-.1.383-.162.908,2.088,1.813,4.171,2.866,6.588l3.081-6.631c.143.068.29.13.432.2q-2.247,4.962-4.515,9.908C-11093.38-7433.975-11094.954-7436.387-11096.027-7438.867Zm-164.049,6.078c-2.281-.068-4.562-.025-7.068-.025a12.424,12.424,0,0,1,.554-1.121c1.833-2.948,3.641-5.91,5.536-8.813a1.888,1.888,0,0,0-.037-2.2c-1.24-2.584-3.13-3.481-5.959-3.132a54.26,54.26,0,0,1-6.458.048v2.52h7.074v5.8h-7.162v6.818h-7.4v-21.006c.459-.025.907-.074,1.358-.074q2.848,0,5.7,0c4.534,0,9.068.009,13.6-.031a2.064,2.064,0,0,1,2.176,1.283c.563,1.146,1.246,2.233,1.989,3.53.792-1.421,1.422-2.712,2.213-3.9a2.084,2.084,0,0,1,1.428-.848c2.381-.088,4.767-.037,7.511-.037-2.369,3.49-4.6,6.793-6.844,10.116,2.225,3.6,4.426,7.162,6.807,11.012-2.849,0-5.447.031-8.053-.042-.307-.005-.667-.573-.888-.953-.715-1.246-1.376-2.525-2.162-4-.772,1.407-1.5,2.636-2.125,3.913a1.689,1.689,0,0,1-1.7,1.131Zm158.031-.718a4.084,4.084,0,0,1-4.038-3.72,3.832,3.832,0,0,1,3.2-4.052c2.268-.4,4.038.531,4.594,2.417-2.624-2.392-4.71-2.7-6.381-.97a3.455,3.455,0,0,0,.219,4.9c1.775,1.552,3.983,1.135,6.052-1.132-.182,1.413-1.771,2.557-3.51,2.557C-11101.954-7433.5-11102-7433.5-11102.045-7433.507Zm-24.8-.037a3.938,3.938,0,0,1-3.811-4.2,3.851,3.851,0,0,1,4.044-3.615,3.769,3.769,0,0,1,4.08,3.913h-7.542a3.049,3.049,0,0,0,2.216,3.161c2.009.766,3.532-.068,4.8-1.765a3.319,3.319,0,0,1-3.371,2.528A3.405,3.405,0,0,1-11126.845-7433.544Zm-.127-7.366a2.936,2.936,0,0,0-2.881,3.016h6.824c-.5-1.989-1.771-3.05-3.431-3.05A3.914,3.914,0,0,0-11126.972-7440.91Zm45.935,7.179a3.815,3.815,0,0,1-3.036-4.319,3.924,3.924,0,0,1,4.035-3.308c2.326-.04,3.771,1.231,4.18,3.833h-7.652a3.135,3.135,0,0,0,2.065,3.172c2.085.882,3.669.011,5-1.578a3.432,3.432,0,0,1-3.351,2.364A5.052,5.052,0,0,1-11081.037-7433.731Zm.871-7.193a3.158,3.158,0,0,0-3.172,2.993h6.826a3.38,3.38,0,0,0-3.4-3C-11080-7440.93-11080.081-7440.927-11080.166-7440.924Zm-55.19,7.218q-1.588-3.635-3.176-7.267c.137-.062.27-.125.412-.182.956,2.125,1.912,4.25,3.01,6.7,1.1-2.463,2.055-4.608,3-6.745.15.063.293.125.44.187-1.059,2.435-2.117,4.875-3.178,7.3Zm22.151-.068a3.878,3.878,0,0,1-2.389-1.348,3.746,3.746,0,0,1,.283-5.11c1.563-1.546,3.938-1.5,6.444.229.13-.38.221-.652.312-.934.057,0,.108.006.168.006V-7434c-.06.011-.111.031-.168.042-.07-.25-.139-.5-.15-.548a25.76,25.76,0,0,1-4.415.729Zm-2.744-3.766a3.554,3.554,0,0,0,3.721,3.51,3.507,3.507,0,0,0,3.558-3.484,3.531,3.531,0,0,0-3.623-3.422h-.012A3.548,3.548,0,0,0-11115.949-7437.539Zm28.642,3.666v-6.657c-.59-.139-1.062-.244-1.532-.349.006-.083.014-.156.02-.238.44-.068.877-.136,1.394-.219.065-.877.131-1.75.2-2.63.122,0,.238-.005.363-.005.063.874.128,1.745.2,2.675.594.048,1.118.085,1.641.131l.06.241c-.545.125-1.093.25-1.842.425v6.637C-11086.979-7433.873-11087.141-7433.873-11087.308-7433.873Zm-32.988-7.275c.213.255.375.448.479.567.772-.281,1.521-.562,2.278-.834-1.433.755-2.448,1.64-2.414,3.34a16.017,16.017,0,0,1-.338,4.177C-11120.3-7436.268-11120.3-7438.637-11120.3-7441.148Zm-38.424-.772c-1.118-1.677-2.188-3.374-3.28-5.073,3.422,1.569,6.747,3.09,10.3,4.719-2.117.25-4.166.5-6.22.7a.284.284,0,0,1-.051,0A1.032,1.032,0,0,1-11158.72-7441.92Zm11.817-69.335a4.5,4.5,0,0,1-.545-5.145c.88-1.943,2.786-2.375,4.772-2.4,1.413-.022,2.82.176,4.345.29-.04-3.467-1.532-4.807-4.963-4.526-1.2.1-2.387.318-3.839.517.224-.479.249-.729.389-.809,4.358-2.457,9.3-.077,9.525,4.631a33.714,33.714,0,0,1-.165,5.271,3.988,3.988,0,0,1-3.346,3.6,9.925,9.925,0,0,1-2.176.27A5.084,5.084,0,0,1-11146.9-7511.255Zm2.9-6.452a3.088,3.088,0,0,0-2.9,3.229,3.357,3.357,0,0,0,2.557,3.7c3.768,1.089,6.055-.667,6.534-4.963-.434-.621-.78-1.688-1.319-1.787a17.716,17.716,0,0,0-3.09-.264C-11142.819-7517.79-11143.415-7517.762-11144-7517.708Zm27.162,3.671a25.622,25.622,0,0,1,.105-6.041c.389-2.724,2.445-4.043,5.541-3.918,2.872.111,4.707,1.714,4.963,4.412.088.922.014,1.864.014,2.8h.021c0,.78.039,1.558-.006,2.333-.185,3-2.006,4.741-5.042,4.866-.125.005-.244.008-.363.008C-11114.581-7509.579-11116.562-7511.142-11116.84-7514.036Zm1.124-5.927a29.793,29.793,0,0,0-.046,6.032c.225,2.25,1.742,3.365,4.095,3.417,2.395.051,3.986-1.129,4.367-3.36.164-.964.136-1.963.215-3.223a23.5,23.5,0,0,0-.349-3.121c-.435-1.887-1.927-2.869-4.083-2.869h-.182C-11113.96-7523.031-11115.506-7521.978-11115.716-7519.963Zm-5.556,9.559a8.307,8.307,0,0,1-1.26-3.263c-.14-4.869-.074-9.744-.06-14.619a5.126,5.126,0,0,1,.27-1.152c.176.011.349.025.524.037a13.7,13.7,0,0,1,.165,1.546q.021,5.673.008,11.35c-.008,2.313-.349,4.7,2.174,6.4-.176.125-.36.255-.539.38C-11120.429-7509.947-11121.093-7510.061-11121.271-7510.4Zm-12.062-.162c.046-3.152-.085-6.325.25-9.454.349-3.286,4.208-5.079,7.352-3.641.247.113.406.395.905.885a8.927,8.927,0,0,1-1.342-.006c-4.069-.879-5.9.406-6.066,4.375-.1,2.324-.06,4.656-.1,6.989-.006.528-.1,1.053-.156,1.58-.173.02-.335.031-.493.045C-11133.109-7510.047-11133.34-7510.308-11133.334-7510.566Zm-116.938-11.075c-4.387-.224-6.7-2.412-6.654-6.2.046-3.816,2.6-5.941,7.366-6.146,4.043-.176,6.813,1.382,7.185,4.145-1.55.1-3.059.678-4.01-1.285-.612-1.254-2.264-1.254-3.669-1.078a3.114,3.114,0,0,0-2.959,2.244,11.314,11.314,0,0,0-.139,4.131c.27,1.646,1.714,2.35,3.456,2.511,2.145.193,3.1-.386,4.256-2.6h3.166c.153,2.911-3.181,4.3-7.1,4.3C-11249.674-7521.615-11249.972-7521.624-11250.272-7521.641Zm-10.687-1.631c-.189-.879-.809-1.266-1.85-1.177a17.1,17.1,0,0,1-3.07,0c-1.6-.165-2.735.13-3.152,1.762-.088.343-.871.672-1.385.761a17.336,17.336,0,0,1-2.645.031c1.391-2.7,2.707-5.26,4.023-7.809a16.952,16.952,0,0,0,1.164-2.238c.479-1.433,1.467-1.762,3.044-1.776a2.789,2.789,0,0,1,3.028,1.8c1.568,3.317,3.379,6.532,5.209,10.021-.885,0-1.461-.048-2.015.015a5.135,5.135,0,0,1-.53.031A1.637,1.637,0,0,1-11260.959-7523.272Zm-6.378-3.093h4.994c-.835-1.833-1.59-3.507-2.509-5.516C-11265.768-7529.841-11266.515-7528.189-11267.337-7526.365Zm-21.61,4.412v-11.585h2.96v11.585Zm-6.483,0v-5.079h-7.267v5.025h-3.3v-11.52h3.227v4.557h7.286v-4.6h3.277v11.622Zm72.264-.022v-11.594h3.167v11.594Zm-6.367,0c0-1.49.077-2.837-.048-4.166a1.472,1.472,0,0,0-1.047-.959c-1.014-.062-2.032-.057-3.054-.051-.692,0-1.385.006-2.074-.011-.925-.02-1.172.36-1.151,1.135.042,1.291.014,2.584.014,4.006h-3.118v-11.543h3.118c0,1.184.049,2.307-.014,3.428-.049.911.267,1.333,1.345,1.3,1.589-.057,3.192-.048,4.781-.006.987.031,1.3-.349,1.271-1.2-.048-1.129-.014-2.261-.014-3.5h3.124v11.577Zm-49.394-.014v-9.778h-5.27v-1.8h13.869v1.759h-5.359v9.815Zm176.59-3.479a3.074,3.074,0,0,1-.7-.647c-1.419-2.145-3.4-3.161-5.352-2.823,1.342-.661,3.189-1.541,5-2.482a3.6,3.6,0,0,1,3.859.207,1.564,1.564,0,0,1,.383,1.515,6.2,6.2,0,0,0-2.025-.894,4.551,4.551,0,0,0-2.5.613c-.235.142-.006,1.376.357,1.9a10.318,10.318,0,0,0,2.326,2.372c1.584,1.166,2.951,1.055,4.668-.054a12.949,12.949,0,0,1,1.964-.86c-.539-.363-1.161-.78-1.779-1.191.085-.131.17-.255.255-.386,2.44.423,3.865,2.455,5.732,3.856a11.045,11.045,0,0,0-2.372-.579,8.056,8.056,0,0,0-3.484.363,5.886,5.886,0,0,1-2.56.639A5.938,5.938,0,0,1-11102.338-7525.468Zm6.206-5.3a13.861,13.861,0,0,0-1.946-1.316c.119-.116.238-.25.354-.372,2.145.409,2.934,1.189,2.88,3.464A11.267,11.267,0,0,0-11096.132-7530.771Zm1.348-1.26a17.933,17.933,0,0,0-3.3-1.943c3.354-.281,5.626,1.87,5.283,4.948A14.247,14.247,0,0,0-11094.784-7532.031Zm-30.176-66a13.153,13.153,0,0,0,2.633.142c.553-.074,1.038-.579,1.558-.891a9.2,9.2,0,0,0-1.243-1.072,14.844,14.844,0,0,0-1.5-.584,2.48,2.48,0,0,1-1.555-2.656,2.422,2.422,0,0,1,2.009-2.355,28.714,28.714,0,0,1,4.123-.264v2.04a11.869,11.869,0,0,0-2.284-.083c-.439.068-.82.52-1.229.792a5.617,5.617,0,0,0,.965.911,9.3,9.3,0,0,0,1.373.491,2.648,2.648,0,0,1,1.943,2.613,2.673,2.673,0,0,1-2.227,2.735,36.4,36.4,0,0,1-4.562.329Zm25.352,2.143a5.035,5.035,0,0,1-5.351-4.88,5.06,5.06,0,0,1,5.291-5,5.083,5.083,0,0,1,5.4,4.9c.045,2.823-2.225,4.957-5.286,4.98Zm-.15-7.485a2.617,2.617,0,0,0-2.6,2.636,2.642,2.642,0,0,0,2.905,2.494,2.662,2.662,0,0,0,2.631-2.636,2.723,2.723,0,0,0-2.8-2.5C-11099.662-7603.378-11099.71-7603.378-11099.759-7603.375Zm-41.67,5.734a5.072,5.072,0,0,1-.3-5.958c1.385-1.938,3.946-2.6,6.8-1.725v2.173c-1.709-.312-3.547-.783-4.5,1a3.233,3.233,0,0,0,.034,2.724c.951,1.714,2.755,1.208,4.438.965v2.045a5.835,5.835,0,0,1-2.4.511A5.414,5.414,0,0,1-11141.429-7597.641Zm26.941-.162a4.97,4.97,0,0,1-.15-5.839c1.351-1.864,3.893-2.537,6.69-1.722v2.182c-1.674-.281-3.526-.715-4.452,1.062a3.258,3.258,0,0,0,.08,2.729c.931,1.614,2.658,1.26,4.4.9v2.145a7.542,7.542,0,0,1-2.4.414A5.245,5.245,0,0,1-11114.487-7597.8Zm-16.639,1.589v-9.261h2.284v9.261Zm-123.191-4.368.152,0-.018.1Zm.152,0c.376-2.09.71-3.772,2.727-4.3,1.33-.349,2.962-1.089,4.278.281.079-.031.232-.048.281-.125.769-1.078,2.289-2.267,1.211-3.434-.709-.76-2.5-.859-3.858-1.072-3.215-.5-6.452-.891-9.732-1.333.652-2.4,5.155-3.813,3.172-7.432h2.1c5.488,0,10.97-.031,16.457.04a3.7,3.7,0,0,1,2.432.86c.3.334-.21,1.433-.681,1.98-3,3.51-6.211,6.881-9.108,10.453a10.88,10.88,0,0,1-9.092,4.082Zm-.236,0c-5.357-.125-10.729-.077-16.094-.062a9.271,9.271,0,0,1-7.335-3.042c-4.25-4.713-8.608-9.344-13.171-14.261,6.055,0,11.761-.082,17.458.037a7.6,7.6,0,0,1,5.987,3.036q4.614,5.758,9.506,11.355a26.111,26.111,0,0,0,3.732,2.938Zm148.942-10.95q-.148-5.975.006-11.962a1.951,1.951,0,0,1,1.169-1.484c1.013-.142,1.282.687,1.269,1.566-.025,2.026-.015,4.043-.015,6.064,0,1.915.1,3.839-.06,5.74-.045.582-.785,1.109-1.214,1.66C-11104.71-7610.48-11105.444-7611-11105.459-7611.533Zm-27.1,1.5c-.487-.068-1.163-1.047-1.177-1.625q-.158-5.9-.006-11.8a1.967,1.967,0,0,1,1.129-1.523c1.024-.167,1.288.675,1.28,1.546-.018,1.963-.006,3.927-.006,5.9s-.012,3.933.006,5.9c.008.8-.185,1.614-1.021,1.617A1.29,1.29,0,0,1-11132.557-7610.032Zm20.078-3.479a50.75,50.75,0,0,1,.006-5.871c.022-.38.718-.724,1.1-1.084.395.392,1.044.746,1.13,1.192a16.8,16.8,0,0,1,.045,2.928,14.089,14.089,0,0,1-.051,2.772c-.094.451-.749.8-1.158,1.192C-11111.783-7612.756-11112.459-7613.116-11112.479-7613.511Zm-14.142-.094a42.589,42.589,0,0,1,.006-5.714c.025-.406.774-.766,1.188-1.146.366.375.984.7,1.05,1.121a18.319,18.319,0,0,1,.054,2.931h.006a14.33,14.33,0,0,1-.054,2.772c-.091.468-.721.843-1.109,1.26C-11125.88-7612.787-11126.595-7613.179-11126.62-7613.6Zm-14.125.02a16.074,16.074,0,0,1-.054-2.937,13.933,13.933,0,0,1,.054-2.778c.091-.448.755-.786,1.163-1.172.381.366,1.07.715,1.09,1.1a52.345,52.345,0,0,1,0,5.885c-.02.386-.718.735-1.1,1.1C-11140-7612.782-11140.66-7613.13-11140.745-7613.584Zm49.477-.235a2.913,2.913,0,0,1,0-1.833,6.483,6.483,0,0,1,1.18-1.53c.381.531.8,1.044,1.13,1.6.119.2.02.517.028.772h0c0,.312.116.687-.028.917a15.018,15.018,0,0,1-1.22,1.509A5.4,5.4,0,0,1-11091.269-7613.82Zm-28.312.235a3.266,3.266,0,0,1-.02-1.995c.188-.584.7-1.453,1.16-1.515,1.011-.136,1.3.707,1.263,1.583-.014.264-.008.525-.008.78,0,.36.13.8-.034,1.073a8.1,8.1,0,0,1-1.155,1.266C-11118.795-7612.787-11119.419-7613.116-11119.581-7613.584Zm-27.159,1.135a1.508,1.508,0,0,1-1.09-.9,4.566,4.566,0,0,1-.04-2.3c.159-.562.8-1,1.234-1.5a10.489,10.489,0,0,1,1.169,1.441c.15.272.021.7.021,1.47a1.755,1.755,0,0,1-.131.967,1.735,1.735,0,0,1-1.146.829Zm49.566-.014c-.42-.011-1.148-.6-1.166-.959a52.331,52.331,0,0,1,0-6.038c.018-.357.767-.931,1.181-.931.369,0,.984.619,1.05,1.03a18,18,0,0,1,.054,2.934,18.037,18.037,0,0,1-.054,2.937,1.541,1.541,0,0,1-1.059,1.027Zm-156.354-76.143c.658-.252,1.328-.511,2.119-.809,1.221,1.572,2.784,2.548,4.94,1.626,1.566-.667,1.878-1.944,1.614-3.422-3.771,1.521-6.812.806-8.529-1.963a5.4,5.4,0,0,1,1.87-7.485,5.961,5.961,0,0,1,5.723-.5c.36.15.895-.057,1.346-.062.74-.011,1.476,0,2.119,0,0,4.077.229,8.115-.082,12.119-.187,2.406-2.446,3.771-5.238,3.938-.147.008-.292.014-.437.014A5.779,5.779,0,0,1-11253.527-7688.606Zm2.148-7.417a3.438,3.438,0,0,0,3.407,3.467,3.341,3.341,0,0,0,3.45-3.385,3.343,3.343,0,0,0-3.368-3.464h-.011A3.43,3.43,0,0,0-11251.379-7696.023Zm106.57,1.583a16.668,16.668,0,0,1,2.23-5.125,35.22,35.22,0,0,1,4.525-5.354,34.451,34.451,0,0,0-1.217,3.8c-.721,3.538,1.416,6.137,5.209,5.828a60.4,60.4,0,0,0,9.491-1.9c9.892-2.474,19.761-5.042,29.635-7.573.411-.108.843-.162,1.266-.238a1.411,1.411,0,0,1,.073.176q-3.746,1.532-7.487,3.067c-9.8,4.006-19.553,8.1-29.41,11.96a28.981,28.981,0,0,1-8.4,1.983c-.2.014-.4.021-.6.021C-11143.439-7687.793-11145.692-7690.666-11144.809-7694.44Zm-87.373,3.729a5.6,5.6,0,0,1-3.771-6.2,5.6,5.6,0,0,1,5.17-4.71c3.062-.255,5.093,1.042,6.367,4.219q-4.083,1.532-8.2,3.084c1.257,2.25,3.479,2.363,6.063.264.61.36,1.26.746,2.031,1.194a6.849,6.849,0,0,1-5.255,2.588A6.976,6.976,0,0,1-11232.182-7690.711Zm1.115-8.515a2.807,2.807,0,0,0-2.077,3c1.876-.7,3.6-1.339,5.59-2.083a3.342,3.342,0,0,0-2.366-1.141A3.272,3.272,0,0,0-11231.066-7699.227Zm-68.975,5.306a8.04,8.04,0,0,1,1.138-11.594,10.631,10.631,0,0,1,13.095-.442c.125.1.216.244.437.474-.581.553-1.095,1.042-1.683,1.595-1.969-1.194-4.021-2.137-6.333-1.476a10.31,10.31,0,0,0-3.7,1.83,5.8,5.8,0,0,0-1.109,7.479c1.49,2.5,4.483,3.723,7.78,3.187a5.33,5.33,0,0,0,4.677-4.625h-6.1v-2.369h8.612c1.109,3.1-.616,6.781-3.941,8.5a10.245,10.245,0,0,1-4.687,1.1A10.714,10.714,0,0,1-11300.041-7693.921Zm24.419,3.621c-3.521-.037-6.251-2.505-6.266-5.661-.014-3.234,2.738-5.683,6.382-5.678s6.4,2.489,6.361,5.7c-.043,3.187-2.835,5.635-6.4,5.635Zm-3.45-5.76a3.481,3.481,0,0,0,3.561,3.51,3.521,3.521,0,0,0,3.566-3.359,3.478,3.478,0,0,0-3.575-3.5A3.446,3.446,0,0,0-11279.072-7696.06Zm17.367,5.754c-3.526-.006-6.276-2.443-6.324-5.593-.057-3.251,2.653-5.72,6.29-5.74s6.43,2.42,6.444,5.635c.014,3.189-2.8,5.7-6.382,5.7Zm-3.532-5.777a3.492,3.492,0,0,0,3.541,3.527,3.516,3.516,0,0,0,3.587-3.334,3.464,3.464,0,0,0-3.547-3.515h-.025A3.458,3.458,0,0,0-11265.237-7696.083Zm25.268,5.4v-16.48h2.559v16.48Z" transform="translate(11306 7708)" fill="#fff"/>
</svg>
