<svg xmlns="http://www.w3.org/2000/svg" width="38.091" height="36.067" viewBox="0 0 38.091 36.067">
  <g id="promotion" transform="translate(0.263 0.252)">
    <path id="Path_6688" data-name="Path 6688" d="M123.064,290.945a.734.734,0,1,0-1-.269A.734.734,0,0,0,123.064,290.945Zm0,0" transform="translate(-113.013 -268.323)" fill="#ed4e08" stroke="#ed4e08" stroke-width="0.5"/>
    <path id="Path_6689" data-name="Path 6689" d="M7.044,48.4l3.7,6.4a2.936,2.936,0,1,0,5.085-2.935l-2.2-3.814,1.907-1.1a.734.734,0,0,0,.269-1L14.844,44.3,28.9,41.541a2.2,2.2,0,0,0,1.785-3.3l-2.439-4.225,1.559-2.361a.734.734,0,0,0,.023-.771l-1.468-2.542a.735.735,0,0,0-.68-.366l-2.824.169-2.708-4.69a2.183,2.183,0,0,0-1.879-1.1h-.028a2.182,2.182,0,0,0-1.854,1.015L8.8,35.584l-6.233,3.6A5.137,5.137,0,0,0,7.044,48.4Zm7.51,4.2a1.468,1.468,0,0,1-2.543,1.468l-3.67-6.357,2.542-1.468Zm-1.665-5.82-.734-1.271,1.271-.734.734,1.271ZM27.317,29.469l1.014,1.757-.9,1.37-1.748-3.028Zm-7.7-5.294a.734.734,0,0,1,1.262.015l8.536,14.786a.734.734,0,0,1-.618,1.1,2.693,2.693,0,0,0-.4.068L19.365,24.5C19.555,24.26,19.579,24.237,19.617,24.175Zm-1.228,1.573,8.484,14.694-12.8,2.511-3.893-6.743ZM1.96,45.466A3.667,3.667,0,0,1,3.3,40.453l5.72-3.3,3.67,6.356-5.72,3.3A3.674,3.674,0,0,1,1.96,45.466Zm0,0" transform="translate(0 -20.715)" fill="#ed4e08" stroke="#ed4e08" stroke-width="0.5"/>
    <path id="Path_6690" data-name="Path 6690" d="M47.328,309.94a.734.734,0,0,0-1-.269l-1.271.734a.735.735,0,0,1-1-.269.734.734,0,0,0-1.271.734,2.2,2.2,0,0,0,3.008.806l1.271-.734A.734.734,0,0,0,47.328,309.94Zm0,0" transform="translate(-39.55 -286.853)" fill="#ed4e08" stroke="#ed4e08" stroke-width="0.5"/>
    <path id="Path_6691" data-name="Path 6691" d="M440.741,42.574l-4.09,2.276a.734.734,0,1,0,.714,1.283l4.089-2.276a.734.734,0,0,0-.714-1.283Zm0,0" transform="translate(-404.256 -39.363)" fill="#ed4e08" stroke="#ed4e08" stroke-width="0.5"/>
    <path id="Path_6692" data-name="Path 6692" d="M443.823,137.406l-2.836-.76a.734.734,0,1,0-.38,1.418l2.836.76a.734.734,0,1,0,.38-1.418Zm0,0" transform="translate(-407.767 -126.595)" fill="#ed4e08" stroke="#ed4e08" stroke-width="0.5"/>
    <path id="Path_6693" data-name="Path 6693" d="M384.278.544l-.761,2.836a.734.734,0,1,0,1.418.38L385.7.925a.734.734,0,1,0-1.418-.38Zm0,0" transform="translate(-355.348 0)" fill="#ed4e08" stroke="#ed4e08" stroke-width="0.5"/>
  </g>
</svg>
