<svg xmlns="http://www.w3.org/2000/svg" width="16.551" height="16.551" viewBox="0 0 16.551 16.551">
  <g id="Group_4286" data-name="Group 4286" transform="translate(-1428 -6762.986)">
    <g id="facebook-logo_1_" data-name="facebook-logo (1)" transform="translate(1412.125 6767.231)">
      <path id="Path_6262" data-name="Path 6262" d="M26.454,0,25.363,0a1.916,1.916,0,0,0-2.018,2.07v.955h-1.1a.172.172,0,0,0-.172.172V4.58a.172.172,0,0,0,.172.172h1.1v3.49a.171.171,0,0,0,.172.172h1.431a.172.172,0,0,0,.172-.172V4.751H26.4a.171.171,0,0,0,.172-.172V3.2a.172.172,0,0,0-.172-.172H25.12V2.216c0-.389.093-.586.6-.586h.735a.172.172,0,0,0,.171-.172V.173A.172.172,0,0,0,26.454,0Z" fill="#fff"/>
    </g>
    <path id="Path_6263" data-name="Path 6263" d="M11.983,0H4.567A4.573,4.573,0,0,0,0,4.567v7.416a4.573,4.573,0,0,0,4.567,4.567h7.416a4.573,4.573,0,0,0,4.568-4.567V4.567A4.573,4.573,0,0,0,11.983,0Zm3.1,11.983a3.1,3.1,0,0,1-3.1,3.1H4.567a3.1,3.1,0,0,1-3.1-3.1V4.567a3.1,3.1,0,0,1,3.1-3.1h7.416a3.1,3.1,0,0,1,3.1,3.1v7.416Z" transform="translate(1428 6762.986)" fill="#fff"/>
  </g>
</svg>
