<svg id="instagram-logo" xmlns="http://www.w3.org/2000/svg" width="16.551" height="16.551" viewBox="0 0 16.551 16.551">
  <path id="Path_6263" data-name="Path 6263" d="M11.983,0H4.567A4.573,4.573,0,0,0,0,4.567v7.416a4.573,4.573,0,0,0,4.567,4.567h7.416a4.573,4.573,0,0,0,4.568-4.567V4.567A4.573,4.573,0,0,0,11.983,0Zm3.1,11.983a3.1,3.1,0,0,1-3.1,3.1H4.567a3.1,3.1,0,0,1-3.1-3.1V4.567a3.1,3.1,0,0,1,3.1-3.1h7.416a3.1,3.1,0,0,1,3.1,3.1v7.416Z" transform="translate(0 0)" fill="#fff"/>
  <path id="Path_6264" data-name="Path 6264" d="M45.233,40.97A4.265,4.265,0,1,0,49.5,45.235,4.27,4.27,0,0,0,45.233,40.97Zm0,7.061a2.8,2.8,0,1,1,2.8-2.8A2.8,2.8,0,0,1,45.233,48.031Z" transform="translate(-36.957 -36.959)" fill="#fff"/>
  <path id="Path_6265" data-name="Path 6265" d="M120,28.251a1.076,1.076,0,1,0,.762.315A1.081,1.081,0,0,0,120,28.251Z" transform="translate(-107.279 -25.485)" fill="#fff"/>
</svg>
