<svg xmlns="http://www.w3.org/2000/svg" width="99" height="99" viewBox="0 0 99 99">
  <g id="Group_4356" data-name="Group 4356" transform="translate(-278 -6330)">
    <rect id="Rectangle_2090" data-name="Rectangle 2090" width="99" height="99" transform="translate(278 6330)" fill="#ed4e08"/>
    <g id="Group_4279" data-name="Group 4279" transform="translate(29 6299)">
      <rect id="Rectangle_2" data-name="Rectangle 2" width="6.919" height="8.705" rx="3.46" transform="translate(320.263 78.395) rotate(90)" fill="#fff"/>
      <path id="Path_240" data-name="Path 240" d="M157.494,185.08a.252.252,0,0,0,0-.05,1.884,1.884,0,0,0-.03-.274.562.562,0,0,1,0-.073c-.017-.076-.03-.152-.05-.228l-.04-.142-.03-.089a3.4,3.4,0,0,0-2.394-2.261h-.04l-.152-.036-.218-.036h-.093c-.089,0-.175-.017-.264-.02H126.549l-1.065,1.227a3.422,3.422,0,0,0,.331,4.817l.066.059a3.4,3.4,0,0,0,2.565.817h17.985l-16.5,18.963a3.468,3.468,0,0,0,.331,4.88h0a3.471,3.471,0,0,0,4.883-.331l21.489-24.7a3.424,3.424,0,0,0,.486-.737l.023-.043c.03-.066.06-.129.086-.2s.036-.1.053-.145l.04-.112c.023-.079.046-.159.063-.238l.02-.073a1.937,1.937,0,0,1,.046-.271.26.26,0,0,1,0-.053,1.388,1.388,0,0,1,.02-.284v-.116h0A.972.972,0,0,0,157.494,185.08Z" transform="translate(152.353 -103.482)" fill="#fff"/>
      <path id="Path_241" data-name="Path 241" d="M163.733,107.767a3.425,3.425,0,0,0-.331-4.82l-.066-.06a3.425,3.425,0,0,0-4.817.331l-18.59,21.489H149.1Z" transform="translate(142.122 -50.052)" fill="#fff"/>
    </g>
  </g>
</svg>
