<svg xmlns="http://www.w3.org/2000/svg" width="146.499" height="30.923" viewBox="0 0 146.499 30.923">
  <g id="Group_2395" data-name="Group 2395" transform="translate(-974.67 -1337.85)">
    <path id="Path_1289" data-name="Path 1289" d="M1967.478,1413.81a7.211,7.211,0,0,0-5.648,2.382l.265-1.378a.652.652,0,0,0-.649-.8,1.036,1.036,0,0,0-.959.8l-4.06,21.075a.653.653,0,0,0,.649.8,1.038,1.038,0,0,0,.96-.8l1.508-7.828c.555,1,1.842,2.373,4.732,2.373a8,8,0,0,0,5.637-2.067,11.183,11.183,0,0,0,3.1-6.262c.528-2.738.3-4.84-.689-6.246-.952-1.358-2.583-2.048-4.844-2.048Zm-2.917,15.15c-3.438,0-4.8-2.37-3.935-6.853.872-4.526,3.048-6.821,6.469-6.821,3.739,0,5.125,2.231,4.241,6.821C1970.434,1426.782,1968.282,1428.96,1964.561,1428.96Z" transform="translate(-887.011 -68.63)" fill="#c19b39"/>
    <path id="Path_1290" data-name="Path 1290" d="M2360.579,1421.207c-2.04-.756-3.967-1.471-3.6-3.371.184-.956.959-2.559,4.083-2.559a4.376,4.376,0,0,1,3.823,1.676.561.561,0,0,0,.473.222.952.952,0,0,0,.88-.738.668.668,0,0,0-.095-.516c0-.007-.008-.013-.012-.02a5.449,5.449,0,0,0-4.784-2.1c-3.206,0-5.5,1.546-5.977,4.034-.573,2.979,2.064,3.977,4.391,4.857,2.011.76,3.912,1.478,3.56,3.3-.5,2.573-3.194,2.958-4.76,2.958-2.157,0-3.489-.587-4.455-1.963l-.01-.013a.581.581,0,0,0-.472-.222.952.952,0,0,0-.88.738.662.662,0,0,0,.094.515c.643,1.2,2.574,2.42,5.439,2.42,3.631,0,6.117-1.658,6.652-4.434.571-2.959-2.045-3.929-4.351-4.784Z" transform="translate(-1245.084 -68.622)" fill="#c19b39"/>
    <path id="Path_1291" data-name="Path 1291" d="M2327.673,1347.243h-1.7l.327-1.7a.653.653,0,0,0-.65-.8,1.038,1.038,0,0,0-.96.8l-.327,1.7h-1.7a1.037,1.037,0,0,0-.959.8.653.653,0,0,0,.649.8h1.7l-.327,1.7a.652.652,0,0,0,.65.8,1.037,1.037,0,0,0,.958-.8l.328-1.7h1.7a1.039,1.039,0,0,0,.959-.8A.652.652,0,0,0,2327.673,1347.243Z" transform="translate(-1217.044 -6.225)" fill="#c19b39"/>
    <path id="Path_1292" data-name="Path 1292" d="M975.791,1424a8.328,8.328,0,0,0,3.729.99c1.287,0,1.98-.694,1.98-1.551,0-.825-.5-1.385-1.882-2.177-1.716-.99-3-2.377-3-4.192,0-3.2,2.739-5.479,6.732-5.479a8.044,8.044,0,0,1,3.828.76l-1.056,3.234a6.819,6.819,0,0,0-2.838-.627c-1.287,0-2.112.594-2.112,1.517,0,.726.594,1.255,1.75,1.882,1.782,1.023,3.267,2.41,3.267,4.357,0,3.63-2.937,5.677-7.03,5.644a8.977,8.977,0,0,1-4.488-1.122Z" transform="translate(0 -66.624)" fill="#fff"/>
    <path id="Path_1293" data-name="Path 1293" d="M1103.61,1368.04l4.422-23.109h4.555l-1.75,8.959.066-.059a6.2,6.2,0,0,1,4.818-2.455c2.376,0,3.73,1.528,3.73,4.1a17.992,17.992,0,0,1-.33,3.064l-1.782,9.5h-4.555l1.716-9.214a11.011,11.011,0,0,0,.2-2.065c0-.99-.4-1.709-1.419-1.709-1.452,0-3,1.94-3.6,4.943l-1.519,8.045h-4.553Z" transform="translate(-116.498 -6.397)" fill="#fff"/>
    <path id="Path_1294" data-name="Path 1294" d="M1295.381,1417.611c0,5.644-3.631,10.463-9.01,10.463-4.092,0-6.27-2.839-6.27-6.37,0-5.512,3.631-10.463,9.109-10.463C1293.467,1411.241,1295.381,1414.343,1295.381,1417.611Zm-10.626,3.994c0,1.65.66,2.97,2.211,2.97,2.408,0,3.762-4.292,3.762-7.1,0-1.353-.529-2.738-2.145-2.738C1286.107,1414.739,1284.754,1419,1284.754,1421.6Z" transform="translate(-275.958 -66.308)" fill="#fff"/>
    <path id="Path_1295" data-name="Path 1295" d="M1427.18,1435.816l3.167-16.655c.364-1.882.726-4.315.925-6.028h4.026l-.265,2.568h.066a6.217,6.217,0,0,1,4.818-2.861c3.333,0,4.687,2.662,4.687,5.732,0,5.545-3.5,11.007-8.845,11.007a4.6,4.6,0,0,1-2.674-.61h-.1l-1.254,6.847Zm6.5-10.39a2.822,2.822,0,0,0,1.882.66c2.542,0,4.291-4.192,4.291-7.128,0-1.221-.429-2.508-1.815-2.508-1.585,0-3.07,1.882-3.6,4.719Z" transform="translate(-408.846 -67.754)" fill="#fff"/>
    <path id="Path_1296" data-name="Path 1296" d="M1609.15,1367.6l3.069-16.262h4.587l-3.1,16.262Zm5.908-17.974a2.251,2.251,0,0,1-2.145-2.454,2.676,2.676,0,0,1,2.607-2.729,2.274,2.274,0,0,1,2.277,2.411,2.685,2.685,0,0,1-2.672,2.773Z" transform="translate(-573.257 -5.954)" fill="#fff"/>
    <path id="Path_1297" data-name="Path 1297" d="M1697.391,1361.642l2.409-12.839h-2.112l.66-3.423h2.112l.132-.818a8.731,8.731,0,0,1,2.641-5.179,6.775,6.775,0,0,1,4.456-1.533,6.424,6.424,0,0,1,2.475.389l-.891,3.561a4.477,4.477,0,0,0-1.452-.232c-1.519,0-2.443,1.445-2.707,3l-.165.817h3.168l-.627,3.423h-3.135l-2.409,12.839Z" transform="translate(-652.983 0)" fill="#fff"/>
    <path id="Path_1298" data-name="Path 1298" d="M1799.667,1415.89l.726,7.279c.2,1.617.33,2.991.4,3.847h.066c.363-.856.694-2.131,1.354-3.88l2.772-7.246h4.752l-5.577,11.905c-1.98,4.092-3.895,7.075-5.974,9.022a10.356,10.356,0,0,1-4.456,2.464l-1.254-3.867a9.915,9.915,0,0,0,2.574-1.289,7.8,7.8,0,0,0,2.475-2.74.874.874,0,0,0,.1-.717l-2.74-14.777Z" transform="translate(-738.888 -70.51)" fill="#fff"/>
    <path id="Path_1299" data-name="Path 1299" d="M2215.288,1417.411a1.038,1.038,0,0,0-.96.8l-1.538,7.988c-.835,4.069-3.333,4.625-5.676,4.625-4.22,0-4.326-2.4-3.874-4.755l1.808-9.389a.652.652,0,0,0-.649-.805,1.039,1.039,0,0,0-.96.805l-1.808,9.389a5.94,5.94,0,0,0,.4,4.317c.793,1.27,2.409,1.913,4.8,1.913a7.578,7.578,0,0,0,5.537-1.913,7.976,7.976,0,0,0,2.061-4.317l1.512-7.858a.654.654,0,0,0-.651-.8Z" transform="translate(-1108.385 -70.501)" fill="#c19b39"/>
    <path id="Path_1300" data-name="Path 1300" d="M2146.6,1345.21a1.039,1.039,0,0,0-.96.8l-4.128,21.436a.653.653,0,0,0,.65.805,1.039,1.039,0,0,0,.96-.805l4.127-21.436A.652.652,0,0,0,2146.6,1345.21Z" transform="translate(-1054.232 -6.65)" fill="#c19b39"/>
  </g>
</svg>
